<?xml version="1.0" encoding="UTF-8" standalone="no"?>
<!-- Created with Inkscape (http://www.inkscape.org/) -->

<svg
   version="1.1"
   id="svg1"
   width="1184"
   height="864"
   viewBox="0 0 1184 864"
   sodipodi:docname="Bilynapis-EDIT.svg"
   inkscape:version="1.4.2 (f4327f4, 2025-05-13)"
   xmlns:inkscape="http://www.inkscape.org/namespaces/inkscape"
   xmlns:sodipodi="http://sodipodi.sourceforge.net/DTD/sodipodi-0.dtd"
   xmlns="http://www.w3.org/2000/svg"
   xmlns:svg="http://www.w3.org/2000/svg">
  <defs
     id="defs1" />
  <sodipodi:namedview
     id="namedview1"
     pagecolor="#98c456"
     bordercolor="#000000"
     borderopacity="0.25"
     inkscape:showpageshadow="true"
     inkscape:pageopacity="0.0"
     inkscape:pagecheckerboard="true"
     inkscape:deskcolor="#d1d1d1"
     showgrid="false"
     inkscape:zoom="0.99999999"
     inkscape:cx="543"
     inkscape:cy="267.5"
     inkscape:window-width="1920"
     inkscape:window-height="1051"
     inkscape:window-x="-9"
     inkscape:window-y="-9"
     inkscape:window-maximized="1"
     inkscape:current-layer="g129"
     borderlayer="true" />
  <g
     id="g21"
     style="display:inline">
    <g
       id="g111"
       inkscape:label="Obrysy"
       style="fill:#ffffff;fill-opacity:1;stroke:#000000;stroke-width:1.5;stroke-dasharray:none;stroke-opacity:1">
      <path
         style="display:inline;fill:#ffffff;fill-opacity:1;stroke:#000000;stroke-width:1.5;stroke-dasharray:none;stroke-opacity:1"
         d="m 889.5525,309.40717 c 0,0 3.27254,-4.33831 3.77492,-7.65717 0.22973,-1.51762 2.53153,-18.475 4.5011,-35.25 5.54579,-47.23406 17.66496,-144.89914 18.7352,-145.69644 0.8392,-0.62517 8.5641,-1.18166 24.00413,-3.30024 16.86993,-2.31479 30.84811,-4.25084 32.01053,-5.19063 5.60024,-4.52763 8.02816,-6.10815 9.85677,-9.75904 0.84942,-1.6959 0.57652,-6.5643 -0.62514,-10.17238 L 979.62002,86 966.56001,86.0329 C 959.377,86.051 945.175,86.46869 935,86.96115 c -10.175,0.49246 -36.5,1.42858 -58.5,2.08028 l -40,1.1849 -5.38151,3.63685 c -2.95984,2.00027 -5.73594,4.53685 -6.16913,5.63685 -0.43319,1.1 -1.33733,8.03474 -2.0092,15.41053 -1.15268,12.65419 -1.1179,13.48633 0.61668,14.75469 1.01103,0.73929 2.64025,0.80308 3.73057,0.74356 6.34115,-0.34618 15.32202,-0.66659 34.30251,-3.31901 6.05831,-0.84661 18.20553,-2.37777 18.637,-2.02863 0.61344,0.4964 -0.73077,11.34497 -0.75217,12.12529 -0.0356,1.29777 -3.93614,36.96802 -13.40599,113.65215 C 861.63094,286.77482 858,316.83573 858,317.64062 c 0,0.8049 1.29686,1.91554 2.88191,2.46809 2.72013,0.94824 4.08864,0.88382 7.63186,0.38012 6.02137,-0.85599 10.25932,-0.80993 16.35374,-5.83299 1.54589,-1.27413 4.68499,-5.24867 4.68499,-5.24867 z"
         id="path106"
         sodipodi:nodetypes="cssssssscssscsssssssssssssc" />
      <path
         id="path98"
         style="display:inline;fill:#ffffff;fill-opacity:1;stroke:#000000;stroke-width:1.5;stroke-dasharray:none;stroke-opacity:1"
         d="m 621.32031,89.246094 c -3.09364,0.08735 -4.36995,0.383717 -4.90039,0.919922 -0.77226,0.78065 -2.19224,8.172354 -3.42578,17.833984 -2.47297,19.36947 -7.13993,51.86384 -13.35742,93 -2.45231,16.225 -6.31894,42.325 -8.5918,58 -2.27287,15.675 -5.23901,35.57344 -6.58984,44.21875 C 583.10425,311.86407 582,320.02798 582,321.36133 c 0,2.57869 1.54814,3.01995 5.5288,3.01995 2.36496,0 5.78738,0.002 8.06463,-0.21491 l 11.83531,-0.85768 c 1.01406,-3.0907 1.56758,-6.0507 1.56758,-6.0507 0,0 2.45319,-9.94029 4.62355,-20.66529 5.57603,-27.55432 5.87925,-30.13864 6.65415,-30.13864 0.79413,0 37.84436,38.32461 50.55953,52.79702 4.83219,5.5 4.58812,4.89482 5.61422,5.97262 1.55219,1.63041 10.25498,1.05626 10.25498,1.05626 0,0 14.39479,0.0277 15.2038,-0.13662 1.05087,-0.0151 1.84475,-1.91901 1.84475,-2.7449 0,-0.82588 -6.69642,-9.46493 -13.96224,-19.19922 C 665.95188,272.2637 649,248.23344 649,247.45312 c 0,-0.42232 21.30623,-13.24119 44.875,-27.61523 27.82209,-16.96804 28.71094,-17.54094 38.875,-24.46289 2.0081,-1.41157 4.49357,-3.09608 7.29297,-5.24805 1.62628,-1.20236 4.20703,-3.27948 4.20703,-4.0039 0,-0.72443 -8.1125,-8.21092 -16.5,-17.24805 -14.73042,-15.87132 -40.75175,-44.49767 -61.32031,-67.45898 L 656.5,90.330078 637.11914,89.582031 c -7.79494,-0.301125 -12.70518,-0.42329 -15.79883,-0.335937 z M 647.06836,123 c 0.003,-2.9e-4 0.007,0 0.01,0 0.4089,0 8.96217,10.2375 19.00782,22.75 10.04565,12.5125 22.29001,27.38625 27.20898,33.05273 8.24362,9.49636 8.8017,10.40506 7.13867,11.6211 C 698.49833,191.83892 624.41519,229 623.5293,229 623.23797,229 623,228.77603 623,228.50195 c 0,-0.27407 3.60009,-16.27701 8,-35.5625 7.65821,-33.56712 12.02615,-53.34761 14.28711,-64.68945 0.57112,-2.86494 1.36944,-5.21349 1.78125,-5.25 z"
         sodipodi:nodetypes="sssssssscccsssscsssssccsscccssssscsssss" />
      <path
         style="fill:#ffffff;fill-opacity:1;stroke:#000000;stroke-width:1.5;stroke-dasharray:none;stroke-opacity:1"
         d="m 773.797,327.50555 c 0.87494,-0.0978 1.05224,-3.08445 1.1999,-4.75 0.64589,-7.28542 2.6219,-24.05555 4.52608,-37.25555 4.87248,-33.77656 10.95844,-77.57193 13.96584,-100.5 11.09958,-84.62188 11.03027,-83.95201 8.69379,-84.01981 -0.37543,-0.0109 -3.83261,-0.49428 -7.68261,-1.0742 -18.20361,-2.74196 -24.54772,-3.4877 -25.25735,-2.96896 -0.42358,0.30963 -2.67405,2.87254 -5.00104,5.69535 l -4.23089,5.13238 -2.50017,41.86762 c -1.3751,23.02719 -2.94984,48.84262 -3.49943,57.36762 -0.54959,8.525 -1.4564,23.375 -2.01513,33 -1.02994,17.74228 -2.17381,36.12917 -4.10595,66 -0.58699,9.075 -1.13989,17.625 -1.22865,19 -0.13108,2.03048 0.33149,2.69358 3.12957,3.17341 3.36094,0.57635 5.71208,0.48586 8.75228,0.39811 4.52774,-0.13068 7.635,-0.21454 15.25376,-1.06597 z"
         id="path93"
         sodipodi:nodetypes="sssssssscssssssss" />
      <path
         style="display:inline;fill:#ffffff;fill-opacity:1;stroke:#000000;stroke-width:1.5;stroke-dasharray:none;stroke-opacity:1"
         d="m 520.45926,338.47489 c 4.51545,-0.66116 8.72731,-0.97816 9.28769,-1.33184 0.56039,-0.35368 1.53538,-6.26805 2.16665,-13.14305 1.07924,-11.75383 6.05282,-57.78337 11.61558,-107.5 1.35386,-12.1 4.28238,-39.1 6.50783,-60 2.22544,-20.9 4.454,-40.88604 4.95235,-44.41342 1.37946,-9.76402 1.49998,-9.67951 -14.99733,-10.51693 l -14.09006,-0.71523 -4.95946,3.18247 c -2.72771,1.75037 -5.16814,4.14562 -5.42319,5.3228 -0.25505,1.17717 -0.92767,10.24031 -1.49471,20.14031 -1.24142,21.67406 -3.50681,58.51257 -5.56531,90.5 -2.07047,32.17363 -8.46669,114.20294 -8.96822,115.01443 -0.22422,0.3628 0.27408,1.63297 1.10733,2.8226 1.10939,1.58388 2.5514,2.16297 5.38604,2.16297 h 3.87104 c 0,0 6.22068,-0.88333 10.60377,-1.52511 z"
         id="path90"
         sodipodi:nodetypes="ssssssscssssssscs" />
      <path
         style="fill:#ffffff;fill-opacity:1;stroke:#000000;stroke-width:1.5;stroke-dasharray:none;stroke-opacity:1"
         d="m 269.99086,312.7735 c 3.03659,-5.9556 5.25958,-11.30201 6.08022,-13.46045 0.69633,-1.83148 0.50282,-2.98373 -0.77686,-4.62602 -1.84911,-2.37305 -18.67243,-18.27511 -48.09697,-45.46312 -10.28349,-9.50185 -27.26659,-26.32685 -27.19856,-27 0.1109,-1.0973 32.70654,-52.77654 38.03306,-59.80104 l 9.46825,-13.20213 28.875,23.93379 c 22.79326,18.89278 30.2905,26.31805 32.3693,21.07996 l 2.98837,-7.52999 c 0.84276,-4.70547 0.84489,-6.51386 1.26733,-11.49969 0.074,-0.87368 -4.89981,-10.16909 -10.88848,-20.64951 C 296.12286,144.07489 285.25556,124.925 277.96197,112 270.66838,99.075 263.9807,87.75555 263.10045,86.84566 c -1.48814,-1.53825 -3.17541,-1.46781 -24.04431,1.00387 l -22.44386,2.65822 -3.38721,8.49612 c -4.55248,11.41895 -26.17113,62.71733 -41.65726,98.84752 -6.91933,16.14326 -12.82374,30.32013 -13.12091,31.50416 -0.44593,1.77673 6.10583,8.90995 37.50639,40.83505 C 216.87898,291.46585 234,309.49631 234,310.2583 c 0,1.75469 -3.03795,10.98631 -3.95277,12.01155 -0.66133,0.74116 -16.02952,-8.62183 -58.49884,-35.64008 -19.31271,-12.28641 -23.86166,-14.6496 -25.34496,-13.16674 -0.38689,0.38677 -0.84104,5.95332 -1.00923,12.3701 -0.28774,10.97793 -0.16963,11.8229 2,14.3091 1.26819,1.45323 11.00047,10.60284 22.27547,20.11641 11.275,9.51356 26.08916,22.4287 32.92035,28.48426 9.58327,8.49516 12.07211,12.24142 14.02773,11.84539 2.51146,-0.50859 10.82147,-2.46167 17.06708,-4.11065 5.39888,-1.42542 16.14824,-3.77677 16.14824,-3.77677 z"
         id="path66"
         sodipodi:nodetypes="sssssscsscssssscsssssssssssssscs" />
      <path
         style="fill:#ffffff;fill-opacity:1;stroke:#000000;stroke-width:1.5;stroke-dasharray:none;stroke-opacity:1"
         d="m 744.72325,455.90803 c 16.35822,-7.16405 46.4422,-24.72439 46.03826,-26.87303 C 790.46966,427.48258 786.9883,426.35951 758.5,418.62761 710.72963,405.66242 700.65865,403 699.38641,403 c -3.25877,0 -0.99437,4.17605 5.32954,9.82882 l 6.71594,6.00321 -6.34181,-1.4651 c -3.488,-0.8058 -7.07267,-1.30687 -7.96595,-1.11347 -1.12498,0.24355 2.2175,4.18986 10.87587,12.8406 C 719.85809,440.94171 738.42641,458 739.46473,458 c 0.26497,0 2.63131,-0.94139 5.25852,-2.09197 z"
         id="path61" />
      <path
         style="fill:#ffffff;fill-opacity:1;stroke:#000000;stroke-width:1.5;stroke-dasharray:none;stroke-opacity:1"
         d="m 1076.6725,685.3183 c 4.4948,-0.33243 8.5811,-0.87754 9.0806,-1.21136 0.4995,-0.33382 4.578,-13.43194 9.0633,-29.10694 4.4853,-15.675 11.7128,-40.875 16.0611,-56 8.9528,-31.14132 14.5006,-50.87242 26.0083,-92.5 19.7885,-71.5821 19.5349,-64.68908 16.1168,-65.99455 -0.8893,-0.33966 -8.145,-0.80873 -15.3687,-1.14726 l -13.1339,-0.61551 -8,11.65182 c -4.4,6.4085 -8.5315,12.6539 -9.181,13.87866 -1.3238,2.49607 -7.3817,31.24032 -12.7983,60.72684 -1.9701,10.725 -3.9827,20.625 -4.4724,22 -0.8848,2.48416 -0.8911,2.48099 -0.9979,-0.5 -0.1431,-3.99558 -2.4626,-42.42624 -4.6172,-76.5 -0.9563,-15.125 -2.1752,-28.0625 -2.7085,-28.75 -0.6887,-0.8879 -4.7935,-1.25 -14.1699,-1.25 h -13.2004 l -4.6681,8.85363 -4.6682,8.85363 3.0203,21.39637 c 1.6612,11.768 5.9446,43.44637 9.5188,70.39637 3.5741,26.95 7.1739,53.57552 7.9994,59.16782 l 1.5011,10.16781 -5.1655,26.83219 c -8.7892,45.65544 -8.8238,41.93681 0.3802,40.93366 3.4252,-0.37332 9.9052,-0.95075 14.4001,-1.28318 z"
         id="path56"
         sodipodi:nodetypes="ssssssscsssssssscccssscsss" />
      <path
         style="fill:#ffffff;fill-opacity:1;stroke:#000000;stroke-width:1.5;stroke-dasharray:none;stroke-opacity:1"
         d="m 891.98651,688.45088 c 5.76758,-0.83815 10.77418,-1.84497 11.12577,-2.23739 0.3516,-0.39242 1.833,-9.26349 3.292,-19.71349 1.45901,-10.45 3.27102,-23.275 4.0267,-28.5 0.75567,-5.225 3.74732,-26.51454 6.64811,-47.31009 3.08508,-22.11676 5.60647,-37.21627 6.0748,-36.3794 0.44036,0.78687 2.80543,7.00141 5.25572,13.81008 9.73022,27.03758 33.69138,92.39448 38.81752,105.87941 l 2.47091,6.5 10.90098,0.25233 c 5.99554,0.13878 11.47195,-0.11801 12.1698,-0.57065 1.5471,-1.00347 2.05483,-3.89236 12.68628,-72.18168 4.6666,-29.975 9.8273,-63.05 11.4682,-73.5 6.3542,-40.46582 12.3134,-81.17723 12.4421,-85 l 0.1346,-4 -11.5,-0.78011 c -6.325,-0.42907 -12.4202,-0.55616 -13.5449,-0.28242 -1.1247,0.27373 -6.09421,5.12478 -11.04332,10.78011 -14.45177,16.51402 -13.40824,14.40397 -13.43565,27.16728 -0.0131,6.11333 -0.44588,19.05703 -0.96168,28.76379 -0.5158,9.70676 -1.44348,28.83176 -2.06151,42.5 -1.81082,40.04768 -1.25416,39.71302 -9.704,5.83385 C 950.91824,494.00543 939,445.11719 939,443.60625 c 0,-3.86872 -3.31825,-5.2749 -14.09647,-5.97371 -5.72194,-0.37098 -12.92535,-0.94076 -16.00757,-1.26618 l -5.60405,-0.59167 -10.63395,20.2524 -10.63395,20.25239 -2.03276,43.11026 c -2.03016,43.05513 -4.06873,89.36138 -5.97005,135.61026 -0.55396,13.475 -1.29742,26.48565 -1.65213,28.91256 -0.7739,5.29507 1.18733,7.41752 6.08235,6.58236 1.67672,-0.28608 7.76751,-1.2059 13.53509,-2.04404 z"
         id="path48" />
      <path
         style="fill:#ffffff;fill-opacity:1;stroke:#000000;stroke-width:1.5;stroke-dasharray:none;stroke-opacity:1"
         d="m 829.08666,687.95579 c 3.49827,-1.78468 3.65009,-2.09021 4.29962,-8.6529 0.63627,-6.42864 3.11587,-24.85689 11.14151,-82.80289 1.9044,-13.75 4.84074,-35.8 6.52519,-49 1.68446,-13.2 4.81137,-37.725 6.9487,-54.5 2.13733,-16.775 4.17931,-32.32172 4.53774,-34.54826 0.45715,-2.83986 0.25003,-4.37641 -0.69387,-5.14762 -0.74005,-0.60465 -10.98788,-2.12448 -22.77294,-3.3774 l -21.42739,-2.27803 -1.57261,2.29784 c -0.86494,1.26381 -4.31798,7.36901 -7.67344,13.56712 l -6.10083,11.26929 -0.67351,105.35853 c -0.37044,57.94719 -0.93008,107.64637 -1.24367,110.44261 -0.43445,3.87403 -0.19262,5.46161 1.01606,6.67029 1.44828,1.44828 2.56346,1.19339 12.82467,-2.93118 6.18115,-2.48457 12.8703,-5.3499 14.86477,-6.3674 z"
         id="path41"
         inkscape:label="path41" />
      <path
         style="fill:#ffffff;fill-opacity:1;stroke:#000000;stroke-width:1.5;stroke-dasharray:none;stroke-opacity:1"
         d="m 669.5,696.12394 c 11,-3.32457 30.575,-9.19558 43.5,-13.04668 21.33473,-6.35684 23.76145,-7.30492 26.33757,-10.28963 7.63644,-8.84766 7.99377,-9.60119 9.30914,-19.63137 0.69649,-5.31094 1.03058,-10.44376 0.74243,-11.40626 -0.6914,-2.30943 -3.00671,-2.19313 -14.36024,0.72131 -6.75958,1.73517 -9.67014,2.10918 -10.1663,1.30638 -0.49803,-0.80584 -3.05863,-0.51202 -9.02889,1.03601 -8.35979,2.16762 -47.3011,11.1863 -48.30075,11.1863 -1.33476,0 -1.52401,1.19293 18.85929,-118.8797 4.1436,-24.40883 9.5405,-54.44889 9.77785,-54.68623 0.50471,-0.50472 17.69256,7.8614 30.46313,14.95241 9.79783,5.44036 11.3956,6.10369 17.76537,9.26142 4.1112,2.03807 5.65118,2.94136 8.03798,3.7574 2.29532,0.78476 2.79221,1.53023 9.2833,0.6274 4.20416,-0.58474 7.79705,-1.2163 7.9842,-1.40345 0.18715,-0.18715 1.76011,-5.14691 3.49546,-11.02168 2.72525,-9.22591 2.96069,-10.86753 1.72783,-12.04728 C 772.95689,484.6747 671.43059,434 669.62331,434 c -1.3896,0 -2.72531,7.46642 -3.62331,11.96743 -1.875,9.39801 -2.54462,14.25174 -3.16579,17.61503 -1.2385,6.70579 -2.34479,12.93932 -4.50834,26.21841 -5.12355,31.44658 -9.78636,59.11107 -22.92186,140.89356 -2.22033,13.82392 -5.89703,33.44409 -8.56116,50.3479 -1.27071,8.06261 -2.50564,15.53551 -2.64092,21.33091 -0.0166,0.71249 2.84276,1.80539 5.45934,2.68071 5.38867,1.80266 1.2815,2.7233 39.83873,-8.93001 z"
         id="path29"
         sodipodi:nodetypes="sssssssssssssssssssssssssss" />
      <path
         id="path16"
         style="display:inline;fill:#ffffff;fill-opacity:1;stroke:#000000;stroke-width:1.5;stroke-dasharray:none;stroke-opacity:1"
         d="m 572.53516,432 c -0.67089,0 -8.12339,11.1375 -16.56055,24.75 -8.43717,13.6125 -18.48521,29.7 -22.33008,35.75 -38.8205,61.08508 -51.64316,82.03906 -51.63476,84.37891 0.0103,2.87894 3.17689,19.15985 5.44726,28.00781 0.79218,3.08725 2.10711,8.76328 2.92188,12.61328 2.32854,11.00305 8.42153,37.83279 11.58203,51 1.58419,6.6 4.9479,21.675 7.47461,33.5 4.99005,23.35338 5.79713,26 7.94531,26 0.78478,0 4.78659,-5.95137 8.9082,-13.25 4.11532,-7.2875 13.46809,-23.825 20.78516,-36.75 7.31706,-12.925 14.93602,-26.425 16.92969,-30 1.99367,-3.575 8.04271,-14.375 13.4414,-24 5.39869,-9.625 13.40123,-23.9326 17.78516,-31.79492 l 7.9707,-14.29492 -4.56055,-23.20508 C 596.13246,541.9424 592.00957,520.7 589.47852,507.5 c -2.53105,-13.2 -5.4366,-28.275 -6.45704,-33.5 -1.02043,-5.225 -3.07229,-16.25 -4.56054,-24.5 -2.68338,-14.87516 -3.57246,-17.5 -5.92578,-17.5 z m -12.06775,74.54297 0.51597,3.93432 c 0.17234,2.23226 1.26875,14.85525 2.16112,28.09498 l 1.26948,23.89548 -2.85275,7.75097 c -3.52049,8.83014 -18.85225,51.10039 -27.22456,74.1252 -2.9885,8.21872 -5.56293,15.06165 -5.70832,15.20703 -0.14539,0.14539 -1.87353,-7.37981 -3.90765,-16.84392 C 522.68657,633.24292 519.23233,617.175 517.04492,607 l -3.97851,-18.5 5.57617,-10 c 17.02741,-30.54053 34.8554,-60.35161 35.43359,-59.24805 0.35939,0.68594 1.21358,10.16968 1.89649,21.07422 0.68292,10.90455 1.60491,21.02955 2.04882,22.5 1.33937,4.4366 1.12274,-8.23747 -0.50781,-29.74219 l -1.47265,-19.41406 2.20312,-3.56445 z"
         sodipodi:nodetypes="ssssssssssssssccsssscccccssscccssscccc" />
      <path
         style="fill:#ffffff;fill-opacity:1;stroke:#000000;stroke-width:1.5;stroke-dasharray:none;stroke-opacity:1"
         d="m 413.64854,730 c 1.4567,-4.675 4.41669,-16.6 7.18887,-26.5 2.77217,-9.9 10.66081,-37.8 17.53029,-62 6.86949,-24.2 12.91978,-45.575 13.4451,-47.5 0.52531,-1.925 5.98522,-21.05 12.13313,-42.5 16.58763,-57.87415 18.53437,-64.74291 22.53185,-79.5 2.01132,-7.425 4.29831,-15.4829 5.08219,-17.90644 2.37411,-7.34007 0.45992,-7.97834 -19.31129,-6.43925 -8.20746,0.63891 -8.28092,0.66944 -13.82182,5.74401 l -5.5705,5.10168 -3.35736,17 c -1.84655,9.35 -5.45586,26.675 -8.0207,38.5 -2.56484,11.825 -6.80641,31.85 -9.42571,44.5 -2.6193,12.65 -6.5101,31.325 -8.64624,41.5 l -3.88388,18.5 -0.6986,-6 c -0.38422,-3.3 -1.17975,-23.55 -1.76784,-45 -2.23066,-81.36083 -3.20408,-109.09456 -3.93109,-112 l -0.75067,-3 -19.93714,-0.24736 -19.93713,-0.24735 -7.29748,6.06008 c -5.12278,4.25413 -7.14781,6.5629 -6.79526,7.74736 0.27622,0.928 1.62143,7.98727 2.98936,15.68727 1.36794,7.7 3.63671,20.075 5.04173,27.5 2.50856,13.25684 10.10883,55.6856 22.92866,128 3.55887,20.075 8.09404,46.85 10.07814,59.5 4.74144,30.2299 6.54296,40.67174 7.20062,41.73587 0.29739,0.48118 1.72375,1.17495 2.63497,1.007 1.11807,-0.20608 2.58042,-3.5066 4.3678,-9.24287 z"
         id="path13"
         sodipodi:nodetypes="ssssssssscsssscssscccsssssssss" />
      <path
         style="fill:#ffffff;fill-opacity:1;stroke:#000000;stroke-width:1.5;stroke-dasharray:none;stroke-opacity:1"
         d="m 279.47548,773.25 9.96327,-5.75 2.73754,-24.05214 c 1.50565,-13.22868 5.93026,-48.77868 9.83246,-79 3.90221,-30.22132 7.94592,-61.69786 8.98604,-69.94786 4.01294,-31.82984 9.22834,-71.88007 11.98037,-92 l 2.8724,-21 -2.89607,-4.5 c -1.59284,-2.475 -4.59604,-6.40554 -6.67378,-8.73454 L 312.5,464.03091 293.67837,462.32233 c -14.88981,-1.35166 -18.98178,-1.44943 -19.58832,-0.46804 -0.42168,0.6823 -1.06886,18.65671 -1.43818,39.94313 -1.22975,70.88002 -5.92841,246.84585 -7.12354,266.778 -0.29928,4.99148 -0.24059,9.37898 0.13042,9.75 1.46724,1.46724 4.25338,0.44378 13.81673,-5.07542 z"
         id="path8" />
      <path
         id="path81"
         style="display:inline;fill:#ffffff;fill-opacity:1;stroke:#000000;stroke-width:1.5;stroke-dasharray:none;stroke-opacity:1"
         d="m 397.24219,82.541016 c -1.0983,-0.42236 -18.83723,1.479893 -27.93555,2.996093 -1.81111,0.30182 -3.42379,1.275327 -3.72461,2.248047 C 365.29027,88.728546 360.54704,116.275 355.04102,149 338.45886,247.55594 332.31159,283.52935 328.56641,303.9375 326.60462,314.62767 325,324.8718 325,326.70312 c 0,1.84538 1.97547,7.55644 4.43164,12.8125 l 4.43164,9.48438 3.81836,0.0117 c 3.78877,0.0122 10.17617,-0.88199 16.29253,-1.45598 13.33403,-1.25133 17.46025,-2.81673 20.31069,-3.72519 0.82966,-0.26441 3.3655,-15.55149 6.21825,-38.37649 l 5.36233,-41.67678 15.97153,-15.18484 c 10.05917,-9.8524 58.86926,-50.34354 78.54673,-68.3309 5.65662,-5.17077 3.96315,-4.32658 10.81242,-10.82299 l 3.45622,-3.23736 2.31641,-2.66992 c 1.7901,-1.84691 3.46679,-4.01148 3.26758,-4.58203 C 500.03711,158.37866 478.125,143.76317 452,126.24219 404.66388,94.495767 404.48965,94.366318 401.5,88.705078 c -1.65,-3.12445 -3.56599,-5.898012 -4.25781,-6.164062 z M 400.75,126.03125 c 0.9625,0.017 12.58711,7.55447 25.83203,16.75 24.87625,17.2708 32.41797,22.87669 32.41797,24.0957 0,0.38963 -8.82114,7.88936 -19.60352,16.66602 -10.78237,8.77667 -26.76387,21.91953 -35.51367,29.20703 -8.7498,7.2875 -16.1865,13.25 -16.52539,13.25 -0.3389,0 -0.30804,-3.2625 0.0684,-7.25 0.37641,-3.9875 1.77175,-14.9 3.10156,-24.25 4.75222,-33.41309 8.47197,-62.05318 8.47266,-65.25 5.3e-4,-2.44006 0.43612,-3.24191 1.75,-3.21875 z"
         sodipodi:nodetypes="sssssscccsscccscccsssssssssssssss" />
      <path
         id="path1"
         style="display:inline;fill:#ffffff;fill-opacity:1;stroke:#000000;stroke-width:1.5;stroke-dasharray:none;stroke-opacity:1"
         inkscape:label="path1"
         d="m 46.953125,458.06641 c -0.632271,0.0324 -1.06888,0.31133 -1.375,0.80664 -0.29665,0.48001 0.348311,7.79251 1.431641,16.25 5.57247,43.5039 24.311353,203.2134 33.371093,284.41797 2.3343,20.9229 4.595821,38.61158 5.025391,39.30664 0.42957,0.69505 1.460036,1.12498 2.291016,0.95703 0.83097,-0.16795 9.67601,-10.49714 19.656254,-22.95508 23.95393,-29.90075 90.94404,-110.00291 129.8457,-155.26172 7.62441,-8.87036 7.63295,-8.90573 5.1543,-21.39258 l -1.64844,-8.30469 -6.10352,-4.30078 C 224.59399,580.53709 132.37553,515.99189 123.03125,509.5 101.64689,494.64332 69.087924,471.86618 59.777344,465.25 52.516991,460.09073 48.849937,457.96913 46.953125,458.06641 Z M 115.5,550.82422 132,562.6875 c 29.00063,20.85221 52.94908,38.42279 53.42773,39.19727 0.2555,0.4134 -1.2369,3.64592 -3.31835,7.18359 -2.08144,3.53767 -7.74704,13.18164 -12.58985,21.43164 -11.06439,18.84882 -64.0716,107.47955 -65.48828,109.5 -0.75642,1.07879 -0.90488,-0.74646 -0.5293,-6.5 0.28723,-4.4 1.21084,-20.15 2.05274,-35 0.8419,-14.85 2.39667,-39.825 3.45508,-55.5 1.05842,-15.675 2.63792,-41.325 3.50976,-57 0.87185,-15.675 1.89946,-30.00195 2.2832,-31.83789 z" />
    </g>
    <g
       id="g129"
       inkscape:label="stíny"
       style="fill:#000000;fill-opacity:1;stroke:none;stroke-opacity:1">
      <path
         style="display:inline;fill:#000000;fill-opacity:1;stroke:none;stroke-width:0.5;stroke-dasharray:none;stroke-opacity:1"
         d="m 95.757428,785.74556 c 7.937622,-10.42482 56.483832,-75.59854 62.737352,-84.49556 2.70609,-3.85 13.03453,-18 23.25764,-31.75 10.22312,-13.75 21.79573,-30.1625 25.86968,-35.9375 4.07395,-5.775 12.14995,-17.23895 18.3183,-25.38824 l 11.41111,-15.07574 2.78335,9.45074 c 2.0635,7.00653 1.41211,9.24718 0.41239,10.45074 -0.68527,0.825 -7.50124,8.88606 -15.1466,17.91347 -38.00099,44.87044 -97.56253,117.29804 -120.37802,145.83653 -7.584908,9.4875 -14.450848,17.34073 -14.67885,17.25 -0.444254,-0.17678 2.144318,-3.96069 5.413648,-8.25444 z"
         id="path4"
         sodipodi:nodetypes="ssssscssssss" />
      <path
         id="path86"
         style="display:inline;fill:#000000;fill-opacity:1;stroke:none;stroke-width:1;stroke-dasharray:none;stroke-opacity:1"
         d="m 402.10352,128 c -0.218,0 -0.40862,0.034 -0.58399,0.16797 0.28752,0.16253 0.61957,0.35468 0.98828,0.57422 1.40092,0.83413 3.34695,2.05899 5.67774,3.57031 4.66157,3.02264 10.86995,7.19764 17.48047,11.78711 12.43371,8.63234 20.5349,14.34951 25.49609,18.03711 0.14291,0.10622 0.28413,0.21155 0.42187,0.31445 -0.8683,-0.98934 -5.83619,-4.74327 -11.64843,-8.7832 -6.28989,-4.37192 -17.13559,-11.93584 -24.10157,-16.80859 C 408.868,131.98662 402.68956,128 402.10352,128 Z m -1.58008,2.78711 c -0.56014,2.69779 -1.25073,7.96699 -2.54492,18.21289 -1.14629,9.075 -3.36586,25.725 -4.93164,37 -2.88196,20.75269 -3.92865,28.19016 -3.77344,30.56055 0.56024,-4.9724 1.72627,-13.97694 2.84375,-21.83399 2.37689,-16.71204 4.49624,-32.23109 6.02148,-43.97656 0.76263,-5.87273 1.37625,-10.80148 1.80078,-14.4707 0.28037,-2.42315 0.48012,-4.22652 0.58399,-5.49219 z" />
      <path
         style="display:inline;fill:#000000;fill-opacity:1;stroke:none;stroke-width:0.5;stroke-dasharray:none;stroke-opacity:1"
         d="M 86.57249,794.75 C 86.3164,793.5125 84.94017,781.475 83.51422,768 82.08826,754.525 79.82452,734.95 78.48368,724.5 77.14284,714.05 73.12126,679.625 69.54684,648 62.3193,584.05375 59.35926,558.67603 57.99952,549 c -0.50238,-3.575 -2.7193,-22.025 -4.92648,-41 -2.20718,-18.975 -4.42474,-37.425 -4.92792,-41 -0.50318,-3.575 -0.77466,-6.65452 -0.60329,-6.84337 0.39791,-0.43852 50.64533,34.08341 84.95817,58.36956 7.15,5.06067 22,15.48566 33,23.16663 11,7.68098 24.05,16.822 29,20.3134 4.95,3.49139 13.95,9.73251 20,13.86915 C 229.32207,586.00984 237.55495,592 236.66172,592 235.6685,592 222.96067,583.4125 196.49299,564.85538 184.39685,556.37448 154.925,535.76549 131,519.05761 85.30255,487.14508 77.81321,481.88899 61.38159,470.19873 55.81646,466.23943 50.75396,463 50.13159,463 c -1.37637,0 -1.37726,0.0641 -0.12732,9.17764 C 51.66489,484.28558 62.1597,573.23867 75.93921,692 c 2.20161,18.975 5.58877,48 7.52702,64.5 1.93824,16.5 3.52626,31.43036 3.52893,33.17857 0.003,1.74822 0.65841,3.83214 1.45722,4.63095 0.79881,0.79881 1.17381,1.73096 0.83333,2.07143 -1.21244,1.21245 -2.25442,0.5861 -2.71322,-1.63095 z"
         id="path3" />
      <path
         id="path6"
         style="display:inline;fill:#000000;fill-opacity:1;stroke:none;stroke-width:1;stroke-dasharray:none;stroke-opacity:1"
         d="m 113.19727,547.65234 c -0.13769,10e-4 -0.23825,0.0311 -0.29883,0.0957 -0.38772,0.4132 -1.20684,8.62695 -1.81836,18.25195 -0.61153,9.625 -2.46264,38.68933 -4.11328,64.58789 -6.56792,103.05023 -7.080712,115.77603 -4.63086,114.83594 0.73506,-0.28207 5.42405,-7.35558 10.41992,-15.71875 C 174.38509,626.5368 188,603.35124 188,601.56445 c 0,-0.69861 -17.13581,-13.43433 -44.5,-33.07422 -12.1,-8.68444 -23.77742,-17.07226 -25.94922,-18.64062 -1.83246,-1.32331 -3.61,-2.20289 -4.35351,-2.19727 z M 115.5,550.82422 132,562.6875 c 29.00063,20.85221 52.94908,38.42279 53.42773,39.19727 0.2555,0.4134 -1.2369,3.64592 -3.31835,7.18359 -2.08144,3.53767 -7.74704,13.18164 -12.58985,21.43164 -11.06439,18.84882 -64.0716,107.47955 -65.48828,109.5 -0.75642,1.07879 -0.90488,-0.74646 -0.5293,-6.5 0.28723,-4.4 1.21084,-20.15 2.05274,-35 0.8419,-14.85 2.39667,-39.825 3.45508,-55.5 1.05842,-15.675 2.63792,-41.325 3.50976,-57 0.87185,-15.675 1.89946,-30.00195 2.2832,-31.83789 z" />
      <path
         id="path5"
         style="display:inline;fill:#000000;fill-opacity:1;stroke:none;stroke-width:1;stroke-dasharray:none;stroke-opacity:1"
         d="m 92.5,531.02344 -0.324219,13.73828 c -0.17842,7.55589 0.160307,23.41328 0.753907,35.23828 0.593599,11.825 1.537053,35.225 2.095703,52 0.55865,16.775 1.679927,48.95 2.492187,71.5 0.81226,22.55 1.492819,43.025 1.511719,45.5 0.03238,4.2401 0.121637,4.38449 1.554683,2.5 2.44075,-3.20962 22.65998,-36.90482 62.4043,-104 24.16112,-40.78807 27.01047,-45.6814 26.98047,-46.32617 -0.0173,-0.37076 -1.14519,-1.4842 -2.50586,-2.47461 C 167.64278,584.27255 124.8833,553.72869 104.5,539.4375 Z m 23,19.80078 16.5,11.86328 c 29.00063,20.85221 52.94908,38.42279 53.42773,39.19727 0.2555,0.4134 -1.2369,3.64592 -3.31835,7.18359 -2.08144,3.53767 -7.74704,13.18164 -12.58985,21.43164 -11.06439,18.84882 -64.0716,107.47955 -65.48828,109.5 -0.75642,1.07879 -0.90488,-0.74646 -0.5293,-6.5 0.28723,-4.4 1.21084,-20.15 2.05274,-35 0.8419,-14.85 2.39667,-39.825 3.45508,-55.5 1.05842,-15.675 2.63792,-41.325 3.50976,-57 0.87185,-15.675 1.89946,-30.00195 2.2832,-31.83789 z" />
      <path
         style="fill:#000000;fill-opacity:1;stroke:none;stroke-opacity:1"
         d="m 970.89907,102.24069 c 0.81582,-8.77792 1.43167,-10.137212 4.50721,-11.538522 2.23306,-1.01745 2.75264,-0.418838 3.70954,2.056492 2.59165,6.70418 2.31227,8.56466 -1.7741,11.81401 -6.90317,5.48919 -7.17567,5.55503 -6.44265,-2.33198 z"
         id="path111"
         sodipodi:nodetypes="sssss" />
      <path
         style="fill:#000000;fill-opacity:1;stroke:none;stroke-opacity:1"
         d="m 860,316.37834 c 0,-0.89192 0.65999,-6.17942 1.46665,-11.75 0.80665,-5.57059 2.17341,-16.42834 3.03724,-24.12834 0.86382,-7.7 2.22155,-19.175 3.01717,-25.5 11.63206,-92.47213 16.10199,-131.71029 15.11643,-132.69585 -0.33024,-0.33023 -10.17127,0.58693 -21.86896,2.03815 -29.74439,3.6901 -35.35929,4.12888 -36.16444,2.82612 -0.59833,-0.96812 0.84866,-20.43995 1.90854,-25.68285 0.23011,-1.13828 2.85131,-3.4957 6.0267,-5.42018 l 5.61949,-3.40576 27.67059,-0.78286 c 23.25254,-0.657864 49.86686,-2.072413 69.92624,-2.828802 12.52513,-0.472291 23.02495,-0.806354 28.02468,-1.09274 C 970.93402,87.545464 974,88.12844 974,88.81875 c 0,1.38571 -5.75157,1.96458 -36.5,3.67354 -48.16976,2.67721 -107.99442,6.7606 -108.73517,7.42182 -0.40435,0.36093 -1.19641,5.14041 -1.76014,10.62106 -0.56372,5.48066 -1.29547,11.42733 -1.62611,13.21483 -0.42799,2.31379 -0.22515,3.25 0.70413,3.25 0.7179,0 14.09651,-1.59647 29.73024,-3.54771 15.63373,-1.95124 28.60573,-3.36694 28.82668,-3.14599 0.70008,0.70007 -11.75183,106.5264 -19.61379,166.6937 -2.12009,16.225 -3.69711,29.6586 -3.5045,29.85244 0.56759,0.57121 17.91979,-1.9152 18.60584,-2.66603 0.585,-0.64026 6.89009,-40.26264 17.29519,-108.68641 6.38177,-41.96641 13.76149,-87.93442 14.1935,-88.41088 0.38356,-0.42302 52.37125,-6.9969 55.8008,-7.05606 1.05416,-0.0182 1.70469,0.17892 1.44561,0.438 -0.25909,0.25908 -12.37159,1.90119 -26.91667,3.64913 -14.54509,1.74794 -26.95195,3.56946 -27.57082,4.04782 -0.61887,0.47836 -1.39091,2.54875 -1.71565,4.60087 C 910.99768,133.2679 899.96143,223.37846 893.5248,279 c -1.43206,12.375 -2.81211,23.48281 -3.06677,24.68403 -0.25466,1.20122 -2.73696,4.35122 -5.51622,7 -5.42109,5.16659 -10.61936,7.02522 -20.19181,7.21954 -3.75358,0.0762 -4.75,-0.24375 -4.75,-1.52523 z"
         id="path108"
         sodipodi:nodetypes="ssssssssscssssssssssssssssssssssssss" />
      <path
         style="fill:#000000;fill-opacity:1;stroke:none;stroke-opacity:1"
         d="m 693.25,323.26496 c 2.81049,-0.22161 4.74886,-0.86257 4.74721,-1.56975 -0.002,-0.65737 -10.68904,-15.60385 -23.75,-33.21441 -25.65107,-34.58623 -31.33496,-42.30452 -32.50056,-44.13324 -0.50184,-0.78735 2.16901,-2.77225 8,-5.9454 4.81434,-2.6199 22.25335,-12.62427 38.75335,-22.23193 16.5,-9.60765 34.4647,-19.98886 39.92155,-23.06935 5.45686,-3.08048 10.0715,-6.05732 10.25477,-6.61518 0.18327,-0.55787 -6.01702,-7.75787 -13.77842,-16 -7.7614,-8.24214 -26.68204,-29.00496 -42.04586,-46.13962 L 654.91782,93.19216 643.70891,92.51829 c -6.1649,-0.37063 -14.33664,-0.52636 -18.15941,-0.34608 L 618.59899,92.5 615.29802,117 c -2.92588,21.71606 -10.76185,75.59017 -14.83586,102 -0.80602,5.225 -3.72751,24.8 -6.49221,43.5 -4.37209,29.57215 -5.95967,39.86526 -8.52776,55.2897 l -0.54771,3.2897 8.78369,-0.2897 8.78368,-0.2897 3.70988,-16 c 2.04044,-8.8 5.40374,-23.98333 7.47402,-33.74074 l 3.76414,-17.74074 2.92808,2.74074 c 3.54168,3.31508 55.34564,60.38031 58.54486,64.49074 1.19799,1.5392 1.11766,1.75 -0.66687,1.75 -1.29893,0 -4.99126,-3.32807 -10.26241,-9.25 -8.91361,-10.0141 -11.85221,-13.17855 -34.37043,-37.01212 -8.19072,-8.66916 -15.0611,-15.59324 -15.2675,-15.38684 -0.2064,0.2064 -2.83117,12.69936 -5.83283,27.76212 -3.00166,15.06276 -5.83225,28.73684 -6.29021,30.38684 l -0.83266,3 -10.67996,0.28383 C 588.47216,321.94881 584,321.67364 584,321.12669 c 0,-1.53051 4.8481,-34.14716 5.96439,-40.12669 0.56472,-3.025 3.25668,-21.475 5.98214,-41 2.72546,-19.525 6.77355,-46.83418 8.99574,-60.68706 2.2222,-13.85289 5.83323,-38.96549 8.02451,-55.8058 2.19129,-16.8403 4.24675,-31.04363 4.56771,-31.56294 0.83962,-1.35854 33.79337,-1.20757 36.81386,0.16866 1.34335,0.61207 7.10202,6.34634 12.79705,12.74283 22.48462,25.25403 47.94067,53.33747 60.74273,67.01211 l 13.45098,14.36781 -2.362,1.78165 c -1.29909,0.97991 -10.48789,6.65023 -20.41955,12.6007 -9.93166,5.95048 -21.43256,12.91837 -25.55756,15.48421 -4.125,2.56585 -16.63478,10.18493 -27.79951,16.93129 -14.11788,8.53083 -20.13625,12.69156 -19.76339,13.66322 0.56972,1.48467 13.33959,19.05087 30.02574,41.30332 C 690.23221,307.69626 700,321.57674 700,322.86841 c 0,0.73182 -2.03138,1.06791 -5.75,0.95134 -5.68646,-0.17825 -5.69751,-0.18439 -1,-0.55479 z"
         id="path100" />
      <path
         style="fill:#000000;fill-opacity:1;stroke:none;stroke-opacity:1"
         d="M 774.13747,108.59344 763.77494,107.5 l 3.86253,-4.2574 3.86253,-4.2574 13.47125,2.28708 13.47125,2.28707 -5.7061,3.22033 c -3.13836,1.77117 -6.27542,3.14987 -6.97125,3.06376 -0.69583,-0.0861 -5.92829,-0.64861 -11.62768,-1.25 z"
         id="path97" />
      <path
         style="fill:#000000;fill-opacity:1;stroke:none;stroke-opacity:1"
         d="m 760.5625,324.81103 8.80492,-0.37732 1.83454,-16.9444 c 1.01209,-9.34797 4.87542,-50.98089 8.7541,-92.5 9.88476,-105.81101 9.59938,-103.15264 11.17523,-104.09826 0.75279,-0.45173 3.3097,-2.08989 5.63335,-3.66501 l 4.70215,-3.18743 -0.31586,4.49632 c -0.15116,2.15179 -3.84027,28.49007 -7.68955,58.46507 -6.17943,48.1202 -15.08754,102.3186 -20.20374,144 -0.9141,7.4471 -1.46337,13.97858 -1.93101,14.72254 -0.35755,0.58928 -4.52663,0.28617 -10.04538,0.33849 0,0 -9.67788,0.38038 -9.78125,-0.43897 -0.0743,-0.58901 9.0625,-0.81103 9.0625,-0.81103 z"
         id="path96"
         sodipodi:nodetypes="ccsssscssscssc" />
      <path
         style="fill:#000000;fill-opacity:1;stroke:none;stroke-opacity:1"
         d="m 749.41151,315.25 c 0.37645,-5.9125 1.75501,-27.4 3.06346,-47.75 1.30846,-20.35 2.88808,-46.45 3.51026,-58 0.62218,-11.55 2.00504,-35.07923 3.07301,-52.28718 1.06797,-17.20794 1.97339,-34.30794 2.01205,-38 0.0386,-3.69205 0.47938,-7.61282 0.9794,-8.71282 0.58742,-1.29229 0.73418,1.18469 0.41476,7 -0.27189,4.95 -0.94679,18 -1.49976,29 -1.63683,32.56022 -4.87651,86.98222 -7.97228,133.92288 -1.59322,24.15758 -2.66672,44.29508 -2.38556,44.75 0.28115,0.45492 -0.0268,0.82712 -0.6843,0.82712 -0.89562,0 -1.02381,-2.69642 -0.51104,-10.75 z"
         id="path95" />
      <path
         style="fill:#000000;fill-opacity:1;stroke:none;stroke-opacity:1"
         d="m 526.62238,334.23469 c 0.63539,-0.41592 1.85146,-8.1107 2.80275,-17.73469 0.9242,-9.35 3.67083,-35 6.1036,-57 2.43278,-22 6.91409,-63.4 9.95846,-92 3.04438,-28.6 5.80398,-54.06829 6.13245,-56.59621 l 0.59722,-4.59621 -6.25512,-0.65379 C 542.52142,105.29421 537.09919,105 533.91233,105 c -3.18686,0 -6.05563,-0.42285 -6.37505,-0.93967 -0.54165,-0.87641 24.37183,-0.30277 25.38734,0.58455 0.23353,0.20406 -0.81411,12.40494 -2.3281,27.11307 -2.40246,23.33946 -4.87789,46.05751 -13.64674,125.24205 -1.06587,9.625 -3.06051,28.3 -4.43253,41.5 -1.37202,13.2 -2.78879,26.8125 -3.14837,30.25 -0.50352,4.81344 -1.02329,6.24648 -2.26134,6.23469 -1.03865,-0.01 -1.21035,-0.27531 -0.48516,-0.75 z"
         id="path92" />
      <path
         style="fill:#000000;fill-opacity:1;stroke:none;stroke-opacity:1"
         d="m 502.33692,336.43563 c -0.58634,-1.52799 -0.10187,-8.50955 3.6734,-52.93563 3.94605,-46.43591 5.93789,-72.60494 7.49725,-98.5 0.87769,-14.575 2.24754,-36.60182 3.04411,-48.94849 0.79658,-12.34667 1.45117,-23.59667 1.45464,-25 0.004,-1.80865 0.91735,-3.0701 3.13545,-4.33273 1.72101,-0.97968 3.36061,-1.54973 3.64355,-1.26679 0.28294,0.28293 -0.0127,5.80949 -0.65703,12.28122 -0.6443,6.47173 -2.51799,25.71679 -4.16376,42.76679 -1.64576,17.05 -4.76246,48.775 -6.92599,70.5 -2.16354,21.725 -5.08357,51.65 -6.48895,66.5 -1.40538,14.85 -2.83096,29.65484 -3.16797,32.89964 l -0.61273,5.89964 11.36556,-0.56756 c 11.32544,-0.56555 8.51042,0.37845 -4.92028,1.65 -5.11565,0.48432 -6.39593,0.30819 -6.87725,-0.94609 z"
         id="path91" />
      <path
         style="fill:#000000;fill-opacity:1;stroke:none;stroke-opacity:1"
         d="M 371.25,92.10224 C 370.5625,90.96093 370,89.64066 370,89.16831 c 0,-0.47236 4.6125,-1.39871 10.25,-2.05857 5.6375,-0.65985 11.61408,-1.4361 13.28128,-1.72499 2.68513,-0.46529 3.21922,-0.13117 4.67701,2.92584 l 1.64572,3.45112 -4.67701,0.57219 c -2.57235,0.31472 -8.727,0.85823 -13.677,1.20782 -8.39777,0.59309 -9.08364,0.49676 -10.25,-1.43948 z"
         id="path89" />
      <path
         style="display:inline;fill:#000000;fill-opacity:1;stroke:none;stroke-opacity:1"
         d="m 336.55,346.16332 c 0.5225,-0.46017 8.33764,-1.57031 17.36698,-2.46698 9.02934,-0.89667 16.72768,-1.98266 17.10743,-2.41332 0.37974,-0.43066 2.99448,-18.78302 5.81053,-40.78302 l 5.12008,-40 5.74506,-5 C 409.61873,236.42391 443.6714,206.4722 461,191.02758 c 11.275,-10.04917 23.7625,-21.01522 27.75,-24.36899 3.9875,-3.35377 7.24619,-6.33645 7.24153,-6.62818 C 495.98653,159.73869 474.88528,145.325 449.09912,128 423.31296,110.675 402.38381,96.32046 402.58991,96.10102 c 0.47053,-0.50099 92.04726,60.75687 93.56917,62.59066 1.43284,1.72646 0.40147,2.87231 -13.65908,15.17514 -6.05,5.29368 -17.00401,15.02674 -24.34225,21.62903 -7.33824,6.60228 -15.5758,13.90037 -18.30567,16.21797 -2.72988,2.31759 -10.45087,9.07624 -17.15775,15.01921 -6.70688,5.94297 -18.38183,16.12328 -25.94433,22.62292 -7.5625,6.49963 -13.75,12.40147 -13.75,13.1152 0,1.23563 -1.75405,14.73031 -7.62641,58.6734 -1.44386,10.8045 -2.92865,20.13552 -3.29953,20.73561 -0.37087,0.60009 -8.30176,1.99551 -17.62419,3.10093 -19.58463,2.32228 -19.16268,2.29441 -17.89987,1.18223 z"
         id="path83" />
      <path
         style="fill:#000000;fill-opacity:1;stroke:none;stroke-opacity:1"
         d="m 223.8125,92.31689 c 0.72187,-0.28888 1.58437,-0.25335 1.91667,0.079 0.33229,0.33229 -0.25834,0.56864 -1.3125,0.52522 -1.16495,-0.048 -1.4019,-0.28494 -0.60417,-0.60417 z"
         id="path80" />
      <path
         style="fill:#000000;fill-opacity:1;stroke:none;stroke-opacity:1"
         d="m 209,114.75334 c 0,-0.20058 1.61581,-4.37183 3.59069,-9.26945 C 215.88199,97.3216 219,91.4142 219,93.34076 c 0,1.48093 -8.26639,20.70584 -9.13362,21.24182 -0.47651,0.2945 -0.86638,0.37134 -0.86638,0.17076 z"
         id="path79" />
      <path
         style="fill:#000000;fill-opacity:1;stroke:none;stroke-opacity:1"
         d="m 307.08942,186.41678 c -0.0492,-0.59577 0.41768,-3.60826 1.03747,-6.69443 l 1.1269,-5.61122 -16.30626,-28.80557 C 283.97909,129.4625 273.37701,110.70252 269.38734,103.6167 265.39768,96.53089 261.76589,90.38138 261.3167,89.95112 260.86752,89.52087 254.65,89.79585 247.5,90.56219 c -12.9736,1.39051 -21.20514,1.80452 -20.41667,1.02686 0.22917,-0.22603 8.04699,-1.18549 17.37295,-2.13215 l 16.95627,-1.7212 1.54373,2.27491 c 6.12666,9.02857 47.03872,82.97191 47.02373,84.98939 -0.0193,2.60073 -2.73345,13.32048 -2.89059,11.41678 z"
         id="path78" />
      <path
         style="fill:#000000;fill-opacity:1;stroke:none;stroke-opacity:1"
         d="m 305.73121,189.91984 c 0.35361,-1.3522 0.8069,-1.8055 1.05655,-1.05655 0.24048,0.72144 -0.0382,1.78716 -0.61931,2.36826 -0.74207,0.74207 -0.87221,0.35164 -0.43724,-1.31171 z"
         id="path77" />
      <path
         style="fill:#000000;fill-opacity:1;stroke:none;stroke-opacity:1"
         d="m 205.60977,233.60104 -12.89024,-12.19767 25.76148,-51.45169 C 232.64981,141.65326 244.45778,118.275 244.72094,118 c 0.72339,-0.75596 7.35843,6.95774 19.35365,22.5 5.94272,7.7 16.46443,21.2 23.38158,30 15.08606,19.19248 17.41971,22.33937 15.50476,20.90797 -2.10572,-1.574 -40.23585,-32.73646 -48.11234,-39.32058 l -6.65141,-5.56005 -0.62466,-8.51367 c -1.03102,-14.05191 -1.70151,-18.28468 -2.733,-17.25319 -0.59618,0.59618 -0.55579,5.45403 0.10898,13.11001 l 1.05611,12.16287 -11.83304,17.73332 C 215.48442,191.77174 197,220.84745 197,222.23697 c 0,0.69955 4.9832,6.14922 11.07377,12.11037 6.09057,5.96115 10.92807,10.97636 10.75,11.14492 -0.17807,0.16855 -6.12437,-5.1825 -13.214,-11.89122 z"
         id="path74" />
      <path
         style="fill:#000000;fill-opacity:1;stroke:none;stroke-opacity:1"
         d="m 164.25,285.88495 c -3.40851,-2.18287 -4.51156,-3.64875 -1.5,-1.99341 2.29443,1.26116 5.88883,4.0407 5.25,4.05981 -0.275,0.008 -1.9625,-0.92165 -3.75,-2.0664 z"
         id="path73" />
      <path
         style="fill:#000000;fill-opacity:1;stroke:none;stroke-opacity:1"
         d="m 182.85167,297.70193 c -5.30658,-3.41106 -10.70658,-7.00243 -12,-7.98082 l -2.35167,-1.77888 2.5,1.18514 c 2.41645,1.14552 14.46381,8.51827 16.5,10.09767 8.42087,6.53176 7.32297,6.17201 -4.64833,-1.52311 z"
         id="path72" />
      <path
         style="fill:#000000;fill-opacity:1;stroke:none;stroke-opacity:1"
         d="m 207.79891,313.27925 c -7.53559,-4.79073 -13.538,-8.87349 -13.33868,-9.07281 0.48857,-0.48858 21.26822,12.18093 25.03977,15.26693 1.65,1.35009 2.775,2.46856 2.5,2.48549 -0.275,0.0169 -6.66549,-3.88889 -14.20109,-8.67961 z"
         id="path71" />
      <path
         style="fill:#000000;fill-opacity:1;stroke:none;stroke-opacity:1"
         d="m 226.75,324.93191 c -2.0625,-1.08883 -3.74311,-2.53144 -3.73469,-3.2058 0.01,-0.76388 0.29228,-0.84912 0.75,-0.22611 0.40408,0.55 2.20074,1.81504 3.99259,2.8112 3.1447,1.74827 3.28016,1.74827 3.89864,0 0.3524,-0.99616 1.69885,-4.47628 2.9921,-7.73361 1.29325,-3.25732 2.35136,-6.50325 2.35136,-7.21317 0,-0.70993 -17.32993,-18.81508 -38.51096,-40.23368 -35.15615,-35.55048 -38.43301,-39.1471 -37.61621,-41.28683 0.4921,-1.28915 8.96584,-21.24391 18.83053,-44.34391 9.86469,-23.1 20.35149,-47.728 23.304,-54.72889 6.04822,-14.34134 8.04297,-16.65946 2.66774,-3.10019 -4.38637,11.0648 -38.83834,92.01126 -42.13508,98.99827 l -2.43902,5.16919 4.1995,3.85143 c 2.30972,2.11828 14.47843,12.16715 27.04156,22.33081 12.56313,10.16366 28.31313,22.90697 35,28.31846 6.68687,5.4115 12.97045,10.42139 13.96352,11.13309 1.72333,1.23505 1.68917,1.5805 -0.75,7.58332 -1.40557,3.45913 -2.55558,6.6233 -2.55558,7.03148 0,1.58493 -6.21202,16.91056 -6.83754,16.86883 -0.36435,-0.0243 -2.34996,-0.93505 -4.41246,-2.02389 z"
         id="path70" />
      <path
         style="fill:#000000;fill-opacity:1;stroke:none;stroke-opacity:1"
         d="m 224.58339,352.52567 c 4.30926,-3.82265 7.8315,-5.08053 17.04418,-6.08692 3.37016,-0.36816 5.95339,-1.70499 6.50441,-2.05406 2.10225,-1.33181 25.08999,-46.80934 24.22867,-48.04273 C 271.88729,295.66413 259.9125,284.23815 245.75,270.9509 231.5875,257.66365 220,246.54426 220,246.24114 c 0,-1.21563 11.03006,8.77085 34.25,31.00954 10.8625,10.40347 19.75,19.55731 19.75,20.34188 0,1.85035 -19.26777,40.35754 -23.52047,47.00632 l -3.26135,5.09888 -12.58284,3.15112 C 227.71477,354.582 221.74071,356 221.35964,356 c -0.38107,0 1.06961,-1.56345 3.22375,-3.47433 z"
         id="path69"
         sodipodi:nodetypes="ssssssssscsss" />
      <path
         style="fill:#000000;fill-opacity:1;stroke:none;stroke-opacity:1"
         d="m 193.4375,337.73549 c -11.825,-10.17654 -26.58925,-23.1574 -33.15847,-28.81894 l -12.0221,-10.36098 -0.0387,-11.85512 C 148.19726,280.26337 148.20726,275 148.53809,275 c 0.33086,0 2.56372,1.35 4.96191,3 2.39819,1.65 4.84177,3 5.43018,3 0.5884,0 1.06982,0.4867 1.06982,1.08156 0,0.95795 -5.94366,-2.02555 -8.45,-4.2416 -2.1397,-1.89186 -2.54941,-0.37223 -2.53708,9.41004 l 0.38855,10.07322 6.72886,4.67543 c 3.88078,2.69649 17.58216,10.72036 29.68216,18.45894 12.1,7.73858 26.11368,17.31774 31.52345,20.82869 l 9.83595,6.38356 -4.97473,4.16508 c -2.7361,2.29079 -5.73728,5.13432 -6.21095,5.09673 -0.47366,-0.0376 -10.72371,-9.01961 -22.54871,-19.19616 z"
         id="path68"
         sodipodi:nodetypes="sscssssssscssscsss" />
      <path
         style="fill:#000000;fill-opacity:1;stroke:none;stroke-opacity:1"
         d="m 778.23051,427.72847 c -3.99822,-1.11255 -7.09164,-2.20067 -6.87427,-2.41804 0.58085,-0.58086 13.98052,2.81688 15.09376,3.82731 1.26224,1.14566 0.48056,1.01164 -8.21949,-1.40927 z"
         id="path65" />
      <path
         style="fill:#000000;fill-opacity:1;stroke:none;stroke-opacity:1"
         d="m 751,447.61598 c 0,-2.09128 1.44962,-3.00619 11.80494,-7.45059 15.05675,-6.46221 17.95243,-7.55146 16.69506,-6.28004 C 778.13361,435.26699 752.8155,450 751.80758,450 751.36341,450 751,448.92719 751,447.61598 Z"
         id="path64" />
      <path
         style="fill:#000000;fill-opacity:1;stroke:none;stroke-opacity:1"
         d="M 734.5,437.78697 C 712.2515,417.06078 702,407.21624 702,406.57716 c 0,-0.79334 1.00716,-0.55112 29.5,7.09465 30.69422,8.23649 38.62886,10.53266 38.12785,11.03367 -0.30171,0.30171 -48.86918,-12.58852 -61.87785,-16.42292 -0.9625,-0.2837 -1.75,-0.0322 -1.75,0.55895 0,0.97206 18.98716,17.2603 36.25,31.09727 4.84706,3.88514 6.75,6.066 6.75,7.73583 0,1.27896 -0.3375,2.30232 -0.75,2.27413 -0.4125,-0.0282 -6.6,-5.50099 -13.75,-12.16177 z"
         id="path63" />
      <path
         style="fill:#000000;fill-opacity:1;stroke:none;stroke-opacity:1"
         d="M 726.4997,444.11465 C 719.34987,437.5777 710.575,429.19627 707,425.48925 l -6.5,-6.74004 3.44552,0.6395 c 9.27958,1.72232 10.5951,2.56656 25.57335,16.4119 19.41132,17.94308 18.51306,16.74138 13.94165,18.65144 -2.03762,0.85137 -3.76245,1.54795 -3.83294,1.54795 -0.0705,0 -5.97804,-5.34841 -13.12788,-11.88535 z"
         id="path62" />
      <path
         style="fill:#000000;fill-opacity:1;stroke:none;stroke-opacity:1"
         d="m 1087.6215,577.89313 c -0.234,-0.76622 -1.2026,-15.11813 -2.1522,-31.89313 -3.6863,-65.11267 -6.294,-100.84862 -6.911,-101.46568 -0.354,-0.35394 -4.3563,-1.04045 -9.2183,-1.47158 l -8.84,-0.78387 7.6849,-0.13944 c 13.0325,-0.23646 12.2724,-1.34815 13.6893,20.02084 0.6688,10.08685 2.0808,32.96473 3.1376,50.83973 2.472,41.80711 3.0317,48.35767 4.0448,47.33812 0.9777,-0.98388 3.4182,-11.70516 8.8829,-39.02269 2.1802,-10.89848 5.5846,-27.68689 7.5654,-37.30756 l 3.6015,-17.49214 7.6511,-11.72024 c 4.2081,-6.44614 7.7136,-11.5858 7.856,-11.50787 0.8098,0.44322 -4.0182,18.63915 -11.143,45.30077 -2.6456,9.9 -6.2732,23.53661 -8.0613,30.41161 -4.7139,18.12372 -16.5762,59.43256 -17.0002,59.89313 -0.1991,0.21622 -0.5534,-0.23378 -0.7875,-1 z"
         id="path60"
         sodipodi:nodetypes="scsscsscssscssssss" />
      <path
         style="fill:#000000;fill-opacity:1;stroke:none;stroke-width:0.5;stroke-dasharray:none;stroke-opacity:1"
         d="m 1072.3748,618.31373 c -2.6528,-1.3228 -3.2102,-2.2579 -3.6875,-6.18605 -0.3093,-2.54522 -2.1433,-16.32768 -4.0755,-30.62768 -1.9322,-14.3 -4.4407,-33.2 -5.5745,-42 -1.1337,-8.8 -4.1197,-30.72947 -6.6355,-48.73216 l -5.193,-32.73217 4.2391,-7.533 c 2.6089,-4.63618 4.8412,-8.5832 5.0584,-5.69617 0.2269,3.01562 7.3132,68.38157 10.7361,95.1935 1.65,12.925 4.4242,34.975 6.0886,49 1.6643,14.025 3.3688,27.175 3.635,28.6875 0.5512,3.13201 -0.2739,2.77904 -4.5912,0.62623 z"
         id="path59"
         sodipodi:nodetypes="ssssscssssss" />
      <path
         style="fill:#000000;fill-opacity:1;stroke:none;stroke-width:0.5;stroke-dasharray:none;stroke-opacity:1"
         d="m 1064,683.49557 c 0.825,-0.24298 5.5514,-1.64987 10.3951,-2.15416 4.8436,-0.50429 8.4892,-1.06759 8.7355,-1.31393 0.4587,-0.45871 2.3885,-7.8673 12.8629,-44.62123 3.2917,-11.55 8.8913,-31.29642 12.4622,-43.67142 5.0837,-17.61733 30.75,-107.09959 40.0225,-141.01208 0.8688,-3.17748 1.2093,-5.9509 0.9398,-6.22043 -0.2696,-0.26953 -2.774,-0.92427 -6.0186,-1.39768 0,0 -6.0115,-0.2099 -5.8994,-0.86076 0.1032,-0.59905 6.1303,-0.65115 6.1303,-0.65115 4.0388,0.0676 7.1216,0.6783 7.7556,1.45951 1.0079,1.24211 -1.1426,7.64535 -13.781,53.44776 -12.3011,44.58002 -45.7157,162.53119 -50.6658,178.6463 -1.8552,6.0395 -1.1796,6.48392 -5.1851,7.28801 -3.6472,0.73216 -19.9932,1.72075 -17.754,1.06126 z"
         id="path58"
         sodipodi:nodetypes="sssssssssssssss" />
      <path
         style="fill:#000000;fill-opacity:1;stroke:none;stroke-width:0.5;stroke-dasharray:none;stroke-opacity:1"
         d="m 1058.3026,683.3463 c -0.631,-1.64457 10.4063,-61.23014 11.5817,-62.52414 0.3386,-0.37281 2.055,-0.25791 3.8459,0.35462 l 3.8123,1.30391 -2.6071,9.1561 c -5.4517,19.14671 -8.1579,29.18652 -11.5756,40.25548 -2.8214,9.13808 -3.2545,11.55896 -2.1886,12.23469 1.0086,0.63941 0.8995,0.8461 -0.4526,0.85773 -0.9797,0.008 -2.0669,-0.72885 -2.416,-1.63839 z"
         id="path57"
         sodipodi:nodetypes="ssscssscs" />
      <path
         style="fill:#000000;fill-opacity:1;stroke:none;stroke-width:0.5;stroke-dasharray:none;stroke-opacity:1"
         d="m 1026.8281,449.28319 c 0,-0.56759 -4.6306,-1.15548 -10.6093,-1.80078 l -10.7188,-1.15688 10.7814,-0.16277 c 8.8969,-0.13431 11.0099,0.0288 11.4985,1.30225 0.3257,0.84872 0.2647,1.94871 -0.078,2.29165 -0.3429,0.34295 -0.811,0.46192 -0.811,-0.0985 z"
         id="path55"
         sodipodi:nodetypes="cscssscc" />
      <path
         style="fill:#000000;fill-opacity:1;stroke:none;stroke-width:0.5;stroke-dasharray:none;stroke-opacity:1"
         d="m 972.07895,590.41667 c 0.048,-1.16495 0.28494,-1.4019 0.60416,-0.60417 0.28887,0.72187 0.25335,1.58438 -0.0789,1.91667 -0.33229,0.33229 -0.56864,-0.25834 -0.52522,-1.3125 z"
         id="path54" />
      <path
         style="fill:#000000;fill-opacity:1;stroke:none;stroke-width:0.5;stroke-dasharray:none;stroke-opacity:1"
         d="m 973.07895,594.41667 c 0.048,-1.16495 0.28494,-1.4019 0.60416,-0.60417 0.28887,0.72187 0.25335,1.58438 -0.0789,1.91667 -0.33229,0.33229 -0.56864,-0.25834 -0.52522,-1.3125 z"
         id="path53" />
      <path
         style="fill:#000000;fill-opacity:1;stroke:none;stroke-width:0.5;stroke-dasharray:none;stroke-opacity:1"
         d="m 978.74986,616 c -0.31301,-0.825 -1.30435,-4.65 -2.20299,-8.5 -0.89863,-3.85 -1.86878,-7.9 -2.15588,-9 -0.38095,-1.45957 -0.26787,-1.63338 0.4185,-0.64324 2.16533,3.12367 2.98746,-2.2021 4.22302,-27.35676 2.94232,-59.90239 3.94273,-82.79169 3.95547,-90.5 l 0.014,-8.5 10.69773,-12.21793 c 5.88375,-6.71986 10.80209,-12.11364 10.92949,-11.98619 0.3759,0.37593 -11.13047,79.05958 -17.57818,120.20412 -3.27522,20.9 -6.3548,40.7 -6.84352,44 -0.48872,3.3 -1.14468,5.325 -1.45768,4.5 z"
         id="path52" />
      <path
         style="fill:#000000;fill-opacity:1;stroke:none;stroke-width:0.5;stroke-dasharray:none;stroke-opacity:1"
         d="m 966.25116,664.75 c -10.72043,-30.28072 -38.88414,-107.38394 -41.90225,-114.71495 -0.78457,-1.90573 -1.89712,-3.75583 -2.47235,-4.11134 -0.71158,-0.43978 -0.38402,-5.37406 1.02482,-15.43774 1.13887,-8.13524 2.26087,-14.98156 2.49334,-15.21402 0.23247,-0.23247 0.67128,0.39874 0.97514,1.40269 1.68966,5.58255 12.19833,42.672 17.09218,60.32536 3.12565,11.275 7.42172,26.575 9.54683,34 2.12512,7.425 6.13973,22.275 8.92136,33 2.78164,10.725 5.33776,20.5125 5.68028,21.75 0.94713,3.42197 -0.0548,2.68494 -1.35935,-1 z"
         id="path51" />
      <path
         style="fill:#000000;fill-opacity:1;stroke:none;stroke-width:0.5;stroke-dasharray:none;stroke-opacity:1"
         d="m 981.17751,677.56712 c 9.07119,-0.95075 9.48955,-0.0625 9.93925,-2.13446 0.26427,-1.21765 4.26521,-25.49516 8.69994,-54.37016 4.4348,-28.875 9.3625,-59.5375 10.7214,-68.0625 1.3588,-8.525 5.2532,-34.6875 8.8451,-58.0625 6.2522,-40.68743 7.0955,-46.43589 7.6629,-43.17485 0.6214,1.93195 -6.7279,49.32308 -11.3892,78.7061 -4.3359,27.33209 -15.2963,97.3664 -19.40783,124.09375 -1.69218,11 -3.47536,20.95 -4.00081,22.1875 -0.9073,2.13677 -1.78436,3.27787 -11.03932,2.57196 L 971.5,678.58142 Z"
         id="path50"
         sodipodi:nodetypes="ssssscsssscs" />
      <path
         style="fill:#000000;fill-opacity:1;stroke:none;stroke-width:0.5;stroke-dasharray:none;stroke-opacity:1"
         d="m 875.34492,677.75 c 0.84458,-13.37934 3.18416,-62.89658 5.1382,-108.75 0.8555,-20.075 1.99677,-44.56689 2.53616,-54.42642 0.5394,-9.85953 0.97493,-21.78453 0.96785,-26.5 l -0.0129,-8.57358 10.24146,-20.25 10.24146,-20.25 6.52141,0.008 c 8.4882,0.01 23.13461,1.7056 24.23485,2.80584 0.96543,0.96543 2.41449,6.48562 13.30526,50.68657 4.20099,17.05 11.20287,45.28899 15.55973,62.75332 7.82103,31.35027 9.37156,38.48905 6.02651,27.74668 -1.34397,-4.31607 -30.61122,-121.42531 -34.26681,-137.11435 -0.96861,-4.15709 -1.4077,-4.27749 -19.97727,-5.47804 l -10.48243,-0.67771 -2.26888,20.88505 C 899.8918,490.23421 890.70493,565.21514 886.03169,600 c -7.3249,54.52225 -10.13943,84.78809 -9.03328,85.89425 0.78713,0.78712 21.46514,-2.36941 22.33268,-3.39001 0.39645,-0.46639 4.93376,-27.61674 9.73916,-61.44174 4.8054,-33.825 9.42656,-63.1375 9.88731,-65.0625 1.39404,-5.82431 1.12578,-0.12389 -0.49413,10.5 -1.96324,12.87558 -4.10869,27.87955 -11.01037,77 -3.09111,22 -5.92617,40.32107 -6.30012,40.71349 C 900.40109,685.00246 881.5622,688 877.35552,688 h -2.65764 z"
         id="path49"
         sodipodi:nodetypes="ssssccccsssssscsssssssssscs" />
      <path
         style="fill:#000000;fill-opacity:1;stroke:none;stroke-width:0.5;stroke-dasharray:none;stroke-opacity:1"
         d="m 857.67453,471.5 c 0.37798,-3.85 0.71834,-9.025 0.75635,-11.5 L 858.5,455.5 840,453.51239 c -10.175,-1.09318 -17.38194,-2.15081 -16.01543,-2.35029 3.47511,-0.50727 34.27931,2.90681 35.59277,3.9448 0.76674,0.60594 0.69559,3.80979 -0.24681,11.11268 -1.54073,11.93963 -2.66025,15.5094 -1.656,5.28042 z"
         id="path47" />
      <path
         style="fill:#000000;fill-opacity:1;stroke:none;stroke-width:0.5;stroke-dasharray:none;stroke-opacity:1"
         d="m 830.12001,680.5 c -0.0545,-1.1 2.38376,-20.225 5.4184,-42.5 3.03463,-22.275 6.62823,-49.275 7.98577,-60 1.35755,-10.725 3.36346,-25.8 4.45759,-33.5 1.09414,-7.7 3.17087,-23.45 4.61496,-35 1.44409,-11.55 3.00686,-23.25 3.47282,-26 2.04234,-12.05343 -0.25028,11.27679 -3.53765,36 -1.90143,14.3 -4.85844,37.025 -6.57115,50.5 -1.7127,13.475 -4.21195,32.15 -5.55388,41.5 -1.34194,9.35 -3.78144,27.125 -5.42112,39.5 -3.0678,23.15327 -4.6922,33.00168 -4.86574,29.5 z"
         id="path46" />
      <path
         style="fill:#000000;fill-opacity:1;stroke:none;stroke-width:0.5;stroke-dasharray:none;stroke-opacity:1"
         d="m 825.66031,685.93763 c 1.1,-0.62377 2.97143,-1.68887 3.57438,-2.35217 0.60701,-0.66777 0.97147,-0.79544 0.98202,0.041 0.008,0.66815 -0.21183,0.76534 -2.15097,2.33839 -2.76272,2.24114 -4.91194,1.39417 -2.40543,-0.0272 z"
         id="path45"
         sodipodi:nodetypes="sscss" />
      <path
         style="fill:#000000;fill-opacity:1;stroke:none;stroke-width:0.5;stroke-dasharray:none;stroke-opacity:1"
         d="m 814.55,691.13648 c 1.12378,-1.02148 7.46093,-3.62045 7.45,-2.59788 -0.0115,1.07763 -6.80342,3.4614 -7.82212,3.4614 -0.31784,0 -0.15038,-0.38858 0.37212,-0.86352 z"
         id="path44"
         sodipodi:nodetypes="ssss" />
      <path
         style="fill:#000000;fill-opacity:1;stroke:none;stroke-width:0.5;stroke-dasharray:none;stroke-opacity:1"
         d="m 802.67648,681.5 c 1.31962,-44.51615 2.3281,-111.43182 2.32599,-154.33548 L 805,476.82903 l 4.98569,-9.66451 c 6.01947,-11.66844 8.73112,-16.16437 9.74961,-16.16496 0.90249,-5.3e-4 0.009,19.57106 -2.16945,47.50044 -0.85783,11 -3.13928,41.825 -5.06988,68.5 -1.93061,26.675 -3.94983,53 -4.48716,58.5 -1.78412,18.26192 -3.6536,48.01428 -3.77357,55.12263 -0.0651,3.85547 -0.79646,8.22737 -1.19317,9.87737 -0.39672,1.65 -0.56123,-2.4 -0.36559,-9 z"
         id="path43"
         sodipodi:nodetypes="sscssssssss" />
      <path
         style="fill:#000000;fill-opacity:1;stroke:none;stroke-width:0.5;stroke-dasharray:none;stroke-opacity:1"
         d="m 808.77903,693.14645 c 1.375,-0.78602 3.30355,-1.6501 3.85355,-1.6501 0.55,0 -0.25758,1.21763 -1.63258,2.00365 -1.375,0.78602 -2.95,1.42913 -3.5,1.42913 -0.55,0 -0.096,-0.99666 1.27903,-1.78268 z"
         id="path42"
         sodipodi:nodetypes="sssss" />
      <path
         style="fill:#000000;fill-opacity:1;stroke:none;stroke-width:0.5;stroke-dasharray:none;stroke-opacity:1"
         d="m 727,465.5 c -1.375,-0.78602 -2.02351,-1.44508 -1.44113,-1.46456 0.58238,-0.0195 1.93238,0.62525 3,1.43276 2.46898,1.86744 1.68038,1.88353 -1.55887,0.0318 z"
         id="path40" />
      <path
         style="fill:#000000;fill-opacity:1;stroke:none;stroke-width:0.5;stroke-dasharray:none;stroke-opacity:1"
         d="m 736.5,470.41176 c -3.3,-1.84554 -5.64967,-3.36818 -5.22148,-3.38364 1.08802,-0.0393 12.72148,5.89223 12.72148,6.48628 0,0.88276 -1.43589,0.28875 -7.5,-3.10264 z"
         id="path39" />
      <path
         style="fill:#000000;fill-opacity:1;stroke:none;stroke-width:0.5;stroke-dasharray:none;stroke-opacity:1"
         d="m 756.76493,480.79172 c -6.45429,-3.3852 -11.56087,-6.32911 -11.34796,-6.54202 C 745.86169,473.80498 770,485.89238 770,486.5598 c 0,0.99319 -2.03439,0.10656 -13.23507,-5.76808 z"
         id="path38" />
      <path
         style="fill:#000000;fill-opacity:1;stroke:none;stroke-width:0.5;stroke-dasharray:none;stroke-opacity:1"
         d="m 771.37991,491.7561 c 0.11375,-4.49325 0.82906,-5.84503 2.04871,-3.87159 0.30066,0.48647 -0.0643,2.62397 -0.81107,4.75 L 771.25983,496.5 Z"
         id="path37" />
      <path
         style="fill:#000000;fill-opacity:1;stroke:none;stroke-width:0.5;stroke-dasharray:none;stroke-opacity:1"
         d="m 770.07895,498.41667 c 0.048,-1.16495 0.28494,-1.4019 0.60416,-0.60417 0.28887,0.72187 0.25335,1.58438 -0.0789,1.91667 -0.33229,0.33229 -0.56864,-0.25834 -0.52522,-1.3125 z"
         id="path36" />
      <path
         style="fill:#000000;fill-opacity:1;stroke:none;stroke-width:0.5;stroke-dasharray:none;stroke-opacity:1"
         d="m 745.07895,653.41667 c 0.048,-1.16495 0.28494,-1.4019 0.60416,-0.60417 0.28887,0.72187 0.25335,1.58438 -0.0789,1.91667 -0.33229,0.33229 -0.56864,-0.25834 -0.52522,-1.3125 z"
         id="path34" />
      <path
         style="fill:#000000;fill-opacity:1;stroke:none;stroke-width:0.5;stroke-dasharray:none;stroke-opacity:1"
         d="m 661.99283,661.85699 c -0.004,-0.74635 1.34617,-9.00699 3.00025,-18.35699 7.1684,-40.52091 22.13264,-129.33887 26.00962,-154.37623 1.05404,-6.80693 2.15325,-12.61305 2.44268,-12.90249 0.28944,-0.28943 4.69513,1.32981 9.79044,3.59833 5.0953,2.26852 20.73918,9.11488 34.76418,15.21414 14.025,6.09926 25.86193,11.44624 26.30428,11.88219 0.44235,0.43594 -1.55882,1.07249 -4.44705,1.41456 -5.1994,0.6158 -5.47433,0.50608 -27.80428,-11.09532 -33.65574,-17.48566 -35.78874,-18.51651 -36.8968,-17.83169 -1.26711,0.78312 -2.4979,6.65965 -5.67512,27.09651 -1.3681,8.8 -4.2449,26.125 -6.39289,38.5 C 675.01508,591.5104 664,657.48187 664,659.32259 c 0,1.50744 0.47485,1.77344 2.25,1.26042 1.2375,-0.35764 10.125,-2.40606 19.75,-4.55205 9.625,-2.14599 26.21088,-5.95586 36.85752,-8.46638 24.55267,-5.78962 24.19075,-5.78487 23.97438,-0.31458 l -0.16811,4.25 -0.39226,-3.75 c -0.44618,-4.26547 -0.70496,-4.33309 -8.94076,-2.33636 -31.70559,7.68688 -57.09274,13.55565 -67.33077,15.56492 -2.475,0.48573 -5.2875,1.18741 -6.25,1.55928 -1.13801,0.43969 -1.75251,0.20159 -1.75717,-0.68085 z"
         id="path33" />
      <path
         style="fill:#000000;fill-opacity:1;stroke:none;stroke-width:0.5;stroke-dasharray:none;stroke-opacity:1"
         d="m 645.13879,700.67411 c -0.12438,-2.33392 8.45127,-5.51188 18.27135,-9.18344 9.82007,-3.67157 29.57357,-11.19153 42.0285,-16.16321 12.45492,-4.97167 26.73513,-9.55295 30.99613,-11.10814 8.68258,-3.16899 8.66921,-2.01939 1.8688,5.4691 -3.71625,4.09227 -4.35455,4.35293 -27.80357,11.35374 -13.2,3.94092 -32.50318,9.81862 -42.89595,13.06157 -17.31927,5.40428 -22.38222,8.12862 -22.46526,6.57038 z"
         id="path31"
         sodipodi:nodetypes="ssssssss" />
      <path
         style="fill:#000000;fill-opacity:1;stroke:none;stroke-width:0.5;stroke-dasharray:none;stroke-opacity:1"
         d="m 630.5,702.5308 c -2.2,-0.65231 -3.9268,-1.60109 -3.83734,-2.1084 3.41066,-19.34044 14.26174,-83.90251 16.8782,-100.4224 1.95998,-12.375 5.10927,-31.5 6.99843,-42.5 2.76435,-16.09597 15.08658,-95.29452 18.00914,-115.75 0.46614,-3.26257 1.15006,-4.75 2.18405,-4.75 1.63495,0 47.1291,22.58094 48.76752,24.20568 0.55,0.5454 -9.97129,-4.48397 -23.38064,-11.17638 -13.40935,-6.69242 -24.73634,-11.79931 -25.17109,-11.34866 -0.43475,0.45065 -1.51417,6.89436 -2.39871,14.31936 -0.88455,7.425 -3.15643,24.975 -5.04862,39 -1.8922,14.025 -4.81647,36.3 -6.49837,49.5 -4.36987,34.29572 -10.54848,81.04443 -14.47223,109.5 -1.85807,13.475 -4.15289,30.35 -5.09959,37.5 -0.9467,7.15 -1.9934,13.49878 -2.32601,14.1084 -0.43983,0.80614 -1.69553,0.78498 -4.60474,-0.0776 z"
         id="path30" />
      <path
         style="fill:#000000;fill-opacity:1;stroke:none;stroke-width:0.5;stroke-dasharray:none;stroke-opacity:1"
         d="m 574.19495,441.5 c 0.0204,-1.65 0.2445,-2.20394 0.49804,-1.23097 0.25354,0.97297 0.23687,2.32297 -0.0371,3 -0.27393,0.67703 -0.48137,-0.11903 -0.46099,-1.76903 z"
         id="path28" />
      <path
         style="fill:#000000;fill-opacity:1;stroke:none;stroke-width:0.5;stroke-dasharray:none;stroke-opacity:1"
         d="m 489.5,578.40172 c -1.1,-0.84626 -2.649,-1.91164 -3.44221,-2.36751 -1.14908,-0.66038 0.0961,-3.23795 6.12636,-12.68153 4.16272,-6.51897 12.49206,-19.72768 18.50965,-29.35268 6.01759,-9.625 16.34243,-26.05 22.94409,-36.5 6.60166,-10.45 17.74495,-28.5625 24.76286,-40.25 7.01791,-11.6875 12.95785,-21.25 13.19987,-21.25 0.76652,0 -1.14896,3.55682 -29.08092,54 -5.93877,10.725 -14.38063,26.025 -18.7597,34 -4.37907,7.975 -9.18457,16.525 -10.6789,19 -1.49433,2.475 -6.04343,10.68616 -10.1091,18.24703 -4.06567,7.56086 -8.3101,14.85994 -9.43206,16.22018 -1.88319,2.28312 -2.19362,2.35493 -4.03994,0.93451 z"
         id="path23" />
      <path
         style="fill:#000000;fill-opacity:1;stroke:none;stroke-width:0.5;stroke-dasharray:none;stroke-opacity:1"
         d="m 510.07895,588.49507 c -0.0434,-1.10271 2.67164,-6.72771 6.03348,-12.5 3.36184,-5.77229 14.22467,-24.67007 24.13963,-41.99507 22.59376,-39.47941 20.81529,-36.63104 21.7873,-34.89415 1.08794,1.94405 14.27491,69.94396 13.67176,70.49981 -0.11612,0.107 -1.92263,-1.29143 -4.01446,-3.10764 l -4.1569,-3.69995 -1.40115,-18.58274 c -2.30773,-30.60639 -3.77692,-41.26056 -5.21799,-42.20202 -0.55899,-0.36519 -3.47137,5.0914 -22.70622,38.48669 -18.14224,31.49831 -26.85549,46.87665 -27.47971,48.5 -0.41897,1.08956 -0.5984,0.9514 -0.65574,-0.50493 z"
         id="path22"
         sodipodi:nodetypes="sssssscsssss" />
      <path
         style="fill:#000000;fill-opacity:1;stroke:none;stroke-width:0.5;stroke-dasharray:none;stroke-opacity:1"
         d="m 586.72226,510.37543 c -8.83975,-45.48069 -11.96844,-63.13688 -11.45883,-64.66572 0.19445,-0.58335 0.93014,2.28081 1.63485,6.36482 1.58463,9.18328 5.31772,28.78912 12.61215,66.23783 3.08671,15.8468 5.47136,29.54367 5.29923,30.43749 -0.17214,0.89382 -3.81146,-16.37467 -8.0874,-38.37442 z"
         id="path27" />
      <path
         style="fill:#000000;fill-opacity:1;stroke:none;stroke-width:0.5;stroke-dasharray:none;stroke-opacity:1"
         d="m 595.6,555.9 c -0.36648,-2.29185 -0.47108,-4.36225 -0.23245,-4.60089 0.23864,-0.23863 0.74824,1.42677 1.13245,3.70089 0.38421,2.27412 0.48881,4.34452 0.23245,4.60089 -0.25637,0.25636 -0.76597,-1.40904 -1.13245,-3.70089 z"
         id="path26" />
      <path
         style="fill:#000000;fill-opacity:1;stroke:none;stroke-width:0.5;stroke-dasharray:none;stroke-opacity:1"
         d="m 597.15789,563 c 0,-1.375 0.22698,-1.9375 0.50439,-1.25 0.27741,0.6875 0.27741,1.8125 0,2.5 -0.27741,0.6875 -0.50439,0.125 -0.50439,-1.25 z"
         id="path25" />
      <path
         style="fill:#000000;fill-opacity:1;stroke:none;stroke-width:0.5;stroke-dasharray:none;stroke-opacity:1"
         d="m 598.54545,571.45455 c -0.38251,-2.55082 -0.49094,-4.8424 -0.24094,-5.0924 0.25,-0.25 0.76752,1.63249 1.15004,4.1833 0.38251,2.55082 0.49094,4.8424 0.24094,5.0924 -0.25,0.25 -0.76752,-1.63249 -1.15004,-4.1833 z"
         id="path24" />
      <path
         style="fill:#000000;fill-opacity:1;stroke:none;stroke-width:0.5;stroke-dasharray:none;stroke-opacity:1"
         d="m 511.5,596 c -0.38421,-2.27412 -0.47356,-4.35977 -0.19856,-4.63477 0.275,-0.275 0.81435,1.36065 1.19856,3.63477 0.38421,2.27412 0.47356,4.35977 0.19856,4.63477 -0.275,0.275 -0.81435,-1.36065 -1.19856,-3.63477 z"
         id="path21" />
      <path
         style="fill:#000000;fill-opacity:1;stroke:none;stroke-width:0.5;stroke-dasharray:none;stroke-opacity:1"
         d="m 526.60216,668.25873 c -0.30832,-1.5173 -3.5175,-16.86603 -7.13152,-34.10828 -3.61402,-17.24225 -6.42276,-31.7941 -6.24164,-32.33745 0.37228,-1.11684 2.6508,8.84722 9.30407,40.687 2.52843,12.1 5.00112,22.41078 5.49487,22.91284 0.53592,0.54493 1.29241,-0.76113 1.96956,-2.5 2.72228,-6.99055 13.28383,-35.82199 17.64153,-47.72534 8.28707,-22.6367 17.24999,-46.36419 18.30949,-48.34388 0.94736,-1.77017 1.56838,-0.75274 5.6476,3.25072 2.42214,2.37714 4.40388,4.73998 4.40388,5.25076 0,0.88205 -9.08293,19.22034 -35.3416,71.35408 -6.42671,12.75955 -12.09235,23.45098 -12.5903,23.75873 -0.49794,0.30775 -1.15762,-0.68188 -1.46594,-2.19918 z"
         id="path19"
         sodipodi:nodetypes="sssssssssssss" />
      <path
         style="fill:#000000;fill-opacity:1;stroke:none;stroke-width:0.5;stroke-dasharray:none;stroke-opacity:1"
         d="m 522.11596,715.75 c 1.18614,-2.3375 7.1285,-13.025 13.20525,-23.75 6.07675,-10.725 22.55292,-40.02873 36.61371,-65.1194 14.0608,-25.09066 26.34471,-46.69066 27.29758,-48 l 1.7325,-2.3806 -0.86871,2.5 c -0.47779,1.375 -4.45323,8.8 -8.83431,16.5 -4.38108,7.7 -13.36669,23.675 -19.96802,35.5 -9.86001,17.66229 -37.87831,67.19167 -47.94228,84.75 -1.33979,2.3375 -2.65116,4.25 -2.91416,4.25 -0.26299,0 0.49231,-1.9125 1.67844,-4.25 z"
         id="path18" />
      <path
         style="fill:#000000;fill-opacity:1;stroke:none;stroke-width:0.5;stroke-dasharray:none;stroke-opacity:1"
         d="m 516.58542,723.81338 c -0.44121,-1.44702 -24.0517,-108.10507 -28.80607,-130.12853 -1.6403,-7.59834 -2.70433,-14.0932 -2.3645,-14.43304 1.4467,-1.4467 6.08535,3.57739 6.78344,7.3471 0.39733,2.1456 4.12325,23.02609 8.27983,46.40109 9.8281,55.26947 16.54314,89.34407 17.76085,90.125 0.609,0.39056 0.55676,0.88321 -0.13927,1.31338 -0.6126,0.37861 -1.29403,0.0974 -1.51428,-0.625 z"
         id="path17" />
      <path
         style="fill:#000000;fill-opacity:1;stroke:none;stroke-width:0.5;stroke-dasharray:none;stroke-opacity:1"
         d="m 488.60354,451.27021 c -0.40138,-0.40139 -5.76388,-0.65969 -11.91666,-0.57401 -8.6792,0.12086 -10.17815,-0.0352 -6.68688,-0.69609 6.5149,-1.23329 18.76358,-1.19166 19.54112,0.0664 0.801,1.29604 0.0802,2.22144 -0.93758,1.20368 z"
         id="path15"
         inkscape:label="path15" />
      <path
         style="fill:#000000;fill-opacity:1;stroke:none;stroke-width:0.5;stroke-dasharray:none;stroke-opacity:1"
         d="M 407.68805,733.82322 C 407.37701,732.54545 406.42613,726.775 405.57498,721 c -5.35582,-36.33875 -9.17314,-59.34425 -22.15174,-133.5 -5.89162,-33.66288 -17.78339,-99.17403 -20.33056,-112 l -1.98595,-10 6.19663,-5.71675 6.19664,-5.71675 18.19098,-0.0333 c 11.16095,-0.0204 18.43133,0.35563 18.81289,0.97301 0.55574,0.89921 1.80653,31.67595 5.50665,135.49552 0.6273,17.60097 1.49084,33.57597 1.91897,35.5 0.73535,3.30465 0.81261,3.35988 1.39614,0.99822 4.11484,-16.65359 12.67094,-54.55044 16.70723,-74 2.7964,-13.475 6.60029,-31.25 8.45307,-39.5 1.85278,-8.25 5.00405,-23.325 7.00281,-33.5 1.99876,-10.175 3.83939,-19.2169 4.09028,-20.09312 0.25089,-0.87621 2.49227,-3.05533 4.98084,-4.84248 l 4.08273,-2.89583 -0.0477,2.48894 c -0.0308,1.60547 -6.5515,28.26749 -14.39254,59.34249 -24.88387,98.61783 -30.86574,126.10117 -33.35379,123.30571 -1.40151,-1.57468 -3.26415,-68.14576 -4.94493,-129.80571 -0.5847,-21.45 -1.36471,-41.925 -1.73336,-45.5 l -0.67026,-6.5 -18.27474,-0.27265 -18.27474,-0.27266 0.52717,2.27266 c 0.28994,1.24996 1.19571,8.12265 2.01281,15.27265 2.38979,20.91177 8.2755,69.12498 11.47521,94 1.62719,12.65 4.11239,33.125 5.52267,45.5 3.71762,32.62155 7.9931,66.04414 12.00173,93.82078 1.93044,13.37644 3.50989,24.73894 3.50989,25.25 0,0.51107 0.38211,0.92922 0.84913,0.92922 0.46702,0 1.5692,-4.92589 3.09748,-10.83839 2.80613,-10.85616 11.14728,-40.41467 40.98824,-145.25 9.00193,-31.625 21.08387,-72.80933 26.20057,-90.87255 5.1167,-18.06323 9.20164,-31.58609 9.6503,-31.18191 1.19096,1.07288 -0.177,4.28671 -1.35783,8.57705 -3.69058,13.40904 -21.28021,74.32461 -25.97266,90.5658 -9.59461,33.2083 -37.51004,132.7648 -44.13052,156.49309 -3.83536,13.74619 -7.28444,25.61664 -7.74101,26.07321 -0.45657,0.45657 -1.58462,-0.46532 -1.89565,-1.74308 z"
         id="path14"
         sodipodi:nodetypes="sssscccsssssssssscssssscccsssssssssssssssss" />
      <path
         style="fill:#000000;fill-opacity:1;stroke:none;stroke-width:0.5;stroke-dasharray:none;stroke-opacity:1"
         d="m 287.0824,763 c -0.0415,-1.375 0.58906,-9.475 1.4013,-18 1.53754,-16.13767 4.49034,-49.94542 9.56382,-109.5 1.63991,-19.25 3.88119,-44.9 4.98061,-57 1.67426,-18.42642 8.66251,-108.47649 8.66251,-110.578 0,-0.36411 3.12574,2.57326 6.18987,6.31145 4.74375,5.7873 5.75647,7.11504 5.29868,9.70018 -1.42542,8.04946 -20.52048,153.42478 -28.07001,215.56637 -1.67047,13.75 -3.97758,33.775 -5.12689,44.5 -2.07319,19.34621 -2.75461,23.81089 -2.89989,19 z"
         id="path11"
         sodipodi:nodetypes="ssssssssss" />
      <path
         style="fill:#000000;fill-opacity:1;stroke:none;stroke-width:0.5;stroke-dasharray:none;stroke-opacity:1"
         d="m 275.07029,472.30902 c -0.0407,-4.74431 0.37368,-8.46538 0.98481,-8.84307 1.27659,-0.78898 34.9449,2.57672 34.9449,3.49331 0,0.57617 -16.60313,-0.79688 -29.25,-2.41893 l -4.44064,-0.29986 -0.20288,5.97509 c -0.25146,7.40575 -0.92924,10.56593 -1.79138,7.60139 -0.29283,-1.00691 -0.22381,-5.50793 -0.24482,-5.50793 z"
         id="path12"
         sodipodi:nodetypes="sssscssss" />
      <path
         style="fill:#000000;fill-opacity:1;stroke:none;stroke-width:0.5;stroke-dasharray:none;stroke-opacity:1"
         d="m 279.45887,770.06654 c 0.63915,-1.8031 6.66712,-4.67307 7.47404,-3.93101 0.62651,0.57616 -1.60765,1.82206 -3.91844,3.00094 -2.3108,1.17888 -3.78907,1.5887 -3.5556,0.93007 z"
         id="path10"
         sodipodi:nodetypes="ssss" />
      <path
         style="fill:#000000;fill-opacity:1;stroke:none;stroke-width:0.5;stroke-dasharray:none;stroke-opacity:1"
         d="m 267.4284,762.25 c 1.12525,-26.81482 3.24761,-100.09325 4.32795,-142.25 0.58493,-22.825 1.74345,-59.48066 2.30442,-81.45702 0.56097,-21.97637 1.18832,-40.20934 1.47959,-40.41667 1.08433,-0.77184 0.83501,5.20855 -0.27127,49.37369 -3.31072,132.17049 -6.44009,224.57838 -6.64755,226.2721 -0.21878,1.78617 0.74548,1.3883 4.8419,-1.02865 1.97992,-1.16818 3.67532,-2.11481 4.08427,-1.52907 0.38203,0.54718 -8.74066,5.71086 -10.02833,5.78562 -1.14177,0.0663 -0.43142,-6.6375 -0.091,-14.75 z"
         id="path9"
         sodipodi:nodetypes="sssssssssss" />
      <path
         style="display:inline;fill:#000000;fill-opacity:1;stroke:none;stroke-opacity:1"
         d="m 330.63249,335.22744 -3.74597,-7.72744 3.57825,-18.41144 c 1.96804,-10.12629 5.62265,-31.05129 8.12136,-46.5 2.49871,-15.44871 6.0812,-36.41356 7.96109,-46.58856 3.00876,-16.28504 9.24183,-53.36229 18.02986,-107.25 1.50237,-9.2125 3.0424,-16.75 3.42227,-16.75 0.37987,0 1.48509,0.87782 2.45604,1.95071 1.69177,1.86938 1.61249,2.98459 -1.90157,26.75 -2.01682,13.63961 -4.7533,31.77429 -6.08106,40.29929 -4.75738,30.54523 -16.5022,108.009 -20.46827,135 -4.40644,29.98789 -6.98452,46.31336 -7.37543,46.70427 -0.13784,0.13784 -1.93629,-3.22673 -3.99657,-7.47683 z"
         id="path84" />
      <path
         style="display:inline;fill:#000000;fill-opacity:1;stroke:none;stroke-width:10.013;stroke-linecap:round;stroke-linejoin:round;stroke-opacity:1"
         d="m 647.17949,124.11934 -0.61872,1.83406 -0.7734,3.51343 -1.4584,6.71752 55.6869,53.62927 0.26539,-0.21206 0.11719,-0.1875 0.0469,-0.13281 -0.0312,-0.1875 -0.16406,-0.46875 -0.75781,-1.22656 -1.88282,-2.43348 -4.34375,-5.04308 -3.36718,-4.01027 -2.94532,-3.44286 -2.89844,-3.55469 -3.74218,-4.46875 -17.63282,-21.71093 -12.4009,-15.2464 z"
         id="path2"
         sodipodi:nodetypes="cccccccccccccccccccc" />
      <path
         style="fill:#000000;fill-opacity:1;stroke:none;stroke-width:10.013;stroke-linecap:round;stroke-linejoin:round;stroke-opacity:1"
         d="m 387.89227,224.68318 3.64765,-2.49023 39.54315,-32.59318 17.2255,-14.0655 10.20599,-8.56868 -0.61872,-0.70711 -69.51744,48.46845 -0.39774,5.97878 -0.0884,3.66811 z"
         id="path7"
         sodipodi:nodetypes="cccccccccc" />
    </g>
  </g>
</svg>
