<?xml version="1.0" encoding="UTF-8" standalone="no"?>
<!-- Created with Inkscape (http://www.inkscape.org/) -->

<svg
   version="1.1"
   id="svg1"
   width="1184"
   height="864"
   viewBox="0 0 1184 864"
   sodipodi:docname="Bilynapis DEFINITIVNI-pokus.svg"
   inkscape:version="1.4.2 (f4327f4, 2025-05-13)"
   xmlns:inkscape="http://www.inkscape.org/namespaces/inkscape"
   xmlns:sodipodi="http://sodipodi.sourceforge.net/DTD/sodipodi-0.dtd"
   xmlns="http://www.w3.org/2000/svg"
   xmlns:svg="http://www.w3.org/2000/svg">
  <defs
     id="defs1" />
  <sodipodi:namedview
     id="namedview1"
     pagecolor="#ffffff"
     bordercolor="#000000"
     borderopacity="0.25"
     inkscape:showpageshadow="true"
     inkscape:pageopacity="0.0"
     inkscape:pagecheckerboard="true"
     inkscape:deskcolor="#d1d1d1"
     showgrid="false"
     inkscape:zoom="1.4142135"
     inkscape:cx="359.91736"
     inkscape:cy="633.92124"
     inkscape:window-width="1920"
     inkscape:window-height="1051"
     inkscape:window-x="-9"
     inkscape:window-y="-9"
     inkscape:window-maximized="1"
     inkscape:current-layer="g21"
     borderlayer="true" />
  <g
     id="g21"
     style="display:inline">
    <g
       id="g103"
       inkscape:label="Obrysy2"
       style="display:inline;fill:#000000;fill-opacity:1;stroke:none;stroke-width:3.2;stroke-dasharray:none;stroke-opacity:1">
      <path
         id="path20"
         style="display:inline;fill:#000000;fill-opacity:1;stroke:none;stroke-width:3.4;stroke-dasharray:none;stroke-opacity:1"
         d="m 973.10742,77.283203 c -28.83863,0.389131 -57.65557,1.85373 -86.4849,2.698481 -17.65966,0.568705 -35.32097,1.085026 -52.9819,1.612066 -5.33528,3.838834 -11.25256,7.137686 -15.38671,12.376953 -2.38936,3.626017 -2.55406,8.101547 -3.06286,12.275717 -0.75003,7.33036 -1.90529,14.68754 -1.42152,22.07389 0.0973,1.7357 0.55255,3.45531 1.52658,4.91162 2.48434,3.9884 7.32704,6.31316 11.99457,5.80019 9.15742,-0.35209 18.28386,-1.22181 27.37587,-2.34588 5.42235,-0.64964 10.83979,-1.33916 16.26118,-1.99679 -4.61445,43.36185 -10.08896,86.62533 -15.28067,129.92028 -2.14195,17.72705 -4.25748,35.45872 -6.26425,53.20082 0.14734,4.58612 3.62639,8.55922 7.80469,10.14062 4.77904,2.00078 10.11136,1.60691 15.11273,0.83789 6.41653,-0.82219 12.92786,-2.90611 17.79847,-7.32533 5.88606,-5.02611 10.57668,-11.82318 11.94168,-19.54316 0.86803,-4.88876 1.21265,-9.85095 1.91204,-14.76459 6.65059,-52.93057 12.73315,-105.93595 20.1511,-158.76731 16.69206,-2.27333 33.47686,-4.04833 49.98632,-7.4707 4.44518,-1.49292 7.76809,-4.96437 11.22216,-7.96374 3.60045,-3.39355 6.25127,-8.10567 6.22241,-13.152849 0.1999,-5.80186 -1.82622,-11.364333 -3.86239,-16.703195 -0.83662,-2.123446 -2.33406,-4.09902 -4.52284,-4.941702 -2.02838,-0.971585 -4.31558,-0.98949 -6.51432,-0.908181 -1.17581,0.01163 -2.35162,0.02327 -3.52744,0.0349 z" />
      <path
         id="path32"
         style="display:inline;fill:#000000;fill-opacity:1;stroke:none;stroke-width:3.4;stroke-dasharray:none;stroke-opacity:1"
         d="m 620.25781,80.59375 c -3.62323,0.146229 -7.55014,0.98058 -10.11571,3.740904 -2.63252,2.935631 -3.25999,6.987003 -3.86283,10.739372 -3.17942,19.491264 -5.46288,39.120254 -8.48582,58.629624 -7.742,53.18695 -15.75477,106.33497 -23.46462,159.5261 -0.44128,3.66352 -1.20667,7.3826 -0.64719,11.07298 1.06191,4.79521 5.65663,8.48253 10.55656,8.55865 5.04822,0.45246 10.10981,-0.10376 15.15806,-0.28529 3.97161,-0.25567 7.98931,-0.45471 11.85569,-1.44914 3.14719,-1.53864 4.83047,-4.99394 5.29298,-8.33159 3.19408,-13.01005 5.89206,-26.13451 8.59374,-39.25239 15.3295,15.64799 30.17727,31.767 45.16338,47.75113 3.23365,2.96446 7.87035,3.87335 12.09365,3.66787 6.28465,0.0159 12.57194,0.0414 18.85197,-0.21044 2.87122,-0.1888 5.90619,-0.9898 7.90549,-3.19409 3.32228,-3.37518 4.18091,-8.95056 1.83247,-13.10092 -1.23298,-2.34789 -3.12672,-4.24436 -4.60182,-6.43175 -15.17035,-20.60031 -30.50487,-41.07362 -45.20022,-62.015 25.6651,-15.94551 51.80793,-31.13802 76.9618,-47.8888 4.66935,-3.26114 9.46641,-6.51473 13.21292,-10.85772 2.55238,-3.88798 1.62104,-9.56864 -1.965,-12.505 -10.43393,-10.72514 -20.67636,-21.62536 -30.75175,-32.69094 -17.68666,-19.304 -35.14832,-38.81226 -52.70786,-58.236892 -1.81481,-2.011537 -3.62704,-4.025428 -5.44347,-6.035496 -13.40839,-0.466787 -26.8148,-1.105118 -40.23242,-1.201172 z m 40.46094,72.33789 c 9.26258,11.32718 18.51689,22.65883 27.9375,33.85352 -17.77488,8.98732 -35.57124,17.93187 -53.39453,26.82226 5.38846,-24.03457 10.82463,-48.05874 16.08789,-72.12109 3.12305,3.8151 6.24609,7.63021 9.36914,11.44531 z" />
      <path
         id="path35"
         style="fill:#000000;fill-opacity:1;stroke:none;stroke-width:3.4;stroke-dasharray:none;stroke-opacity:1"
         d="m 768.89258,88.167969 c -3.7503,0.482567 -6.76333,3.161604 -8.94555,6.085989 -2.7912,3.400576 -5.61597,6.773732 -8.4275,10.158152 -4.50027,73.82944 -9.00009,147.65962 -13.46731,221.49062 -0.0813,4.35426 2.87838,8.55349 7.00575,9.94581 3.83078,1.46538 8.00947,1.27332 12.0381,1.39003 6.06947,-0.041 12.13261,-0.55803 18.15402,-1.27925 3.66029,-0.72084 6.86101,-3.65274 7.59308,-7.35846 1.06395,-3.93633 0.90603,-8.06344 1.59267,-12.06388 4.20971,-36.06847 9.92924,-71.93706 14.59126,-107.94646 4.5298,-33.65485 9.06344,-67.31409 12.83533,-101.06355 0.24442,-3.58026 0.48018,-7.45982 -1.40718,-10.677207 -1.92607,-3.145556 -5.67385,-4.724528 -9.25568,-4.840419 -10.76924,-1.256259 -21.44147,-3.481382 -32.30699,-3.841375 z" />
      <path
         id="path67"
         style="display:inline;fill:#000000;fill-opacity:1;stroke:none;stroke-width:3.4;stroke-dasharray:none;stroke-opacity:1"
         d="m 523.70703,92.128906 c -5.2376,3.161131 -10.81329,6.206814 -14.60618,11.153254 -2.14629,2.89404 -2.47755,6.63607 -2.69083,10.11768 -3.94047,62.14711 -7.50904,124.32466 -12.65535,186.3876 -0.95743,12.06122 -1.99835,24.12025 -2.82265,36.18918 0.41284,6.48248 6.0934,12.01835 12.50719,12.60099 7.16626,0.40251 14.30951,-0.95275 21.39348,-1.9503 3.50227,-0.5236 7.3464,-0.55946 10.29622,-2.78942 2.35355,-1.83298 3.4054,-4.79165 3.86898,-7.64243 0.75795,-4.04992 1.08023,-8.16599 1.5743,-12.25346 7.57856,-70.39092 15.32289,-140.76483 23.0284,-211.14131 0.26286,-3.66931 1.18576,-7.60708 -0.30682,-11.16483 -1.66772,-4.039969 -5.60895,-7.013838 -9.94743,-7.532025 -5.5096,-1.101006 -11.16096,-0.904771 -16.73892,-1.356093 -4.26711,-0.23458 -8.53479,-0.458483 -12.80273,-0.67743 l -0.0858,0.05145 z" />
      <path
         id="path75"
         style="fill:#000000;fill-opacity:1;stroke:none;stroke-width:3.4;stroke-dasharray:none;stroke-opacity:1"
         d="m 259.90039,77.142578 c -15.79564,1.026795 -31.46033,3.395766 -47.19186,5.07702 -0.74987,0.09424 -1.50468,0.155211 -2.24369,0.321418 -15.61537,38.605514 -32.0689,76.858684 -48.22621,115.240964 -3.84942,9.18774 -7.71886,18.36679 -11.48811,27.58643 -1.41343,3.46259 -1.05611,7.67132 1.25486,10.66889 2.4122,3.62304 5.61718,6.61286 8.45905,9.8861 13.73692,14.70736 28.02013,28.89026 41.95492,43.40673 3.97555,4.11478 7.9834,8.20305 11.83456,12.43354 0.27252,0.39297 0.0154,1.22084 -0.5625,0.89258 -1.60647,-0.53982 -2.90075,-1.69486 -4.37975,-2.49012 -17.97577,-11.14655 -35.62518,-22.83203 -53.98371,-33.34625 -3.35485,-1.77127 -7.33254,-3.02342 -11.10636,-1.93848 -3.89621,1.16636 -6.78591,4.96597 -6.91523,9.02466 -0.62693,6.89912 -0.99204,13.83981 -0.7092,20.76509 0.10451,2.31374 0.27684,4.68245 1.28757,6.80672 1.15654,2.74632 3.16297,5.02618 5.40509,6.94518 10.18691,9.62557 20.90583,18.65998 31.48971,27.84222 11.2177,9.65073 22.37229,19.38143 33.2172,29.44949 2.18846,1.98985 4.9796,3.52091 8.0063,3.49589 3.29953,0.0741 6.40974,-1.23548 9.57215,-1.86826 9.34085,-2.26526 18.71505,-4.40959 27.99318,-6.91661 2.7925,-1.34985 4.13898,-4.32416 5.43555,-6.95898 8.43921,-16.95487 17.58772,-33.57316 25.10037,-50.97169 1.44732,-3.96585 1.24939,-8.74128 -1.37049,-12.18664 -2.64013,-3.8452 -6.41212,-6.6853 -9.65422,-9.98478 -18.13564,-17.51924 -36.95583,-34.3175 -54.95394,-51.97024 -2.45978,-2.40422 -4.89617,-4.83462 -7.3268,-7.26947 12.43797,-19.96611 24.80565,-39.98548 38.34765,-59.22851 15.77879,13.03593 31.37499,26.30336 47.52262,38.87975 3.4464,2.34899 7.60164,4.21254 11.8641,3.60462 4.26681,-0.77432 7.65632,-4.29667 8.92893,-8.35191 1.81442,-4.55436 3.39488,-9.27234 3.75435,-14.19399 0.27695,-2.9697 0.50913,-6.00524 -0.0426,-8.95605 -0.72368,-3.24659 -2.61557,-6.0425 -4.07335,-8.98543 -5.30645,-9.92131 -10.99909,-19.63033 -16.48641,-29.44684 -9.11933,-16.01763 -18.08899,-32.12322 -27.57755,-47.925311 -1.42833,-2.26551 -2.78519,-4.646023 -4.72942,-6.517672 -2.30122,-1.983021 -5.39746,-2.900817 -8.40671,-2.820059 z" />
      <path
         id="path76"
         style="fill:#000000;fill-opacity:1;stroke:none;stroke-width:3.4;stroke-dasharray:none;stroke-opacity:1"
         d="m 698.625,394.34375 c -5.25631,0.0657 -9.68381,5.13704 -9.42476,10.31438 0.0272,1.94439 0.87517,3.7324 1.75484,5.42195 -3.48562,3.40537 -3.53437,9.55384 -0.19922,13.08008 5.32911,6.63764 11.6535,12.37406 17.66718,18.36793 8.3799,8.11139 16.82316,16.18835 25.95674,23.45417 2.77714,1.96069 6.54971,1.99145 9.59395,0.64652 2.41434,-0.98456 4.74477,-2.16176 7.13714,-3.19813 13.31399,-6.15799 26.04686,-13.49215 38.43874,-21.32384 3.1026,-2.08305 6.33353,-4.21743 8.53076,-7.30532 2.22321,-3.77352 1.48366,-9.14215 -1.99324,-11.91811 -3.38857,-2.87166 -7.87634,-3.73923 -12.00017,-5.03255 -18.25751,-5.34766 -36.66441,-10.16349 -55.0237,-15.14648 -9.62174,-2.56586 -19.23341,-5.212 -28.98384,-7.24076 -0.48219,-0.0666 -0.96793,-0.10857 -1.45442,-0.11984 z" />
      <path
         id="path82"
         style="fill:#000000;fill-opacity:1;stroke:none;stroke-width:3.4;stroke-dasharray:none;stroke-opacity:1"
         d="m 1119.9785,430.02148 c -6.9979,10.34065 -14.3764,20.44644 -20.7265,31.20508 -1.9829,5.68097 -2.9649,11.65605 -4.502,17.4336 -0.3556,0.46626 -1.1006,0.14531 -1.0144,-0.43077 -0.4037,-2.19011 -0.3245,-4.43371 -0.5708,-6.6433 -0.7416,-10.52133 -1.3913,-21.06427 -2.8438,-31.51551 -0.6916,-3.36779 -3.1586,-6.43959 -6.5276,-7.39502 -3.9838,-1.41651 -8.2796,-1.0217 -12.4284,-1.25594 -7.4194,-0.16079 -14.8426,-0.0839 -22.2654,-0.0817 -4.3457,8.23778 -8.7078,16.466 -12.9883,24.73633 0.1167,2.24856 0.5927,4.45923 0.8302,6.69655 7.0948,51.75063 14.1251,103.51005 21.164,155.26829 -0.5979,5.65982 -2.0446,11.182 -2.9654,16.79033 -2.9666,15.76276 -6.3376,31.464 -8.4254,47.37404 -0.2032,3.79642 0.6772,7.96562 3.5487,10.65293 3.0776,2.82011 7.6202,3.47833 11.5859,2.55212 8.929,-1.07966 18.0482,-1.135 26.8499,-3.22489 3.4491,-1.33785 5.6274,-4.77023 6.3872,-8.27125 8.7122,-27.81857 16.4097,-55.94008 24.5017,-83.94396 13.6036,-47.76003 26.9553,-95.59119 40.3331,-143.41483 1.2266,-4.50174 2.5594,-8.98919 3.4233,-13.57665 0.4539,-4.03414 -1.7099,-8.43782 -5.5733,-9.99047 -3.6126,-1.60994 -7.6562,-1.39802 -11.5111,-1.76822 -8.7139,-0.58091 -17.4415,-0.9181 -26.1624,-1.37251 -0.04,0.0586 -0.08,0.11719 -0.1192,0.17578 z" />
      <path
         id="path85"
         style="fill:#000000;fill-opacity:1;stroke:none;stroke-width:3.4;stroke-dasharray:none;stroke-opacity:1"
         d="m 901.96875,427.17578 c -3.66127,0.63961 -6.40127,3.71457 -7.71289,7.04688 -6.93077,13.24376 -13.86806,26.4841 -20.8125,39.7207 -3.0141,65.76295 -5.93719,131.53019 -8.92411,197.29426 -0.32106,6.03921 -1.00995,12.09087 -0.67534,18.13931 1.05696,5.34803 6.01647,9.72832 11.51185,9.8482 5.45622,0.17787 10.76997,-1.37568 16.13746,-1.96346 5.33357,-0.79701 10.79088,-1.42826 15.80162,-3.53169 3.12143,-1.75891 4.61497,-5.38608 4.99983,-8.79226 1.71202,-11.26063 3.46447,-22.51136 5.04202,-33.79081 2.96493,-20.83524 5.87796,-41.68621 8.94808,-62.49846 0.039,-1.10884 0.33842,0.33567 0.52751,0.6985 12.26668,33.28798 24.42266,66.61514 36.8596,99.8386 10.41675,-0.24397 20.97723,1.01443 31.36132,-0.60157 4.18328,-1.42662 7.0209,-5.56263 7.6357,-9.83765 3.4627,-17.77291 5.989,-35.71223 8.8475,-53.59026 8.3194,-53.16262 16.6932,-106.32278 24.4833,-159.56329 0.8844,-6.40693 1.8366,-12.82518 2.0482,-19.29668 0.085,-1.79096 -0.195,-3.62838 -1.1455,-5.17799 -1.2463,-2.23587 -3.5856,-3.89857 -6.1295,-4.14465 -3.5161,-0.59817 -7.1061,-0.37637 -10.643,-0.78047 -6.0199,-0.36014 -12.1074,-0.9375 -18.1006,0.0179 -4.10567,1.32192 -6.97712,4.73246 -9.87772,7.71903 -6.31409,6.70791 -12.63371,13.4884 -17.8567,21.10297 -2.68675,4.30073 -3.1157,9.5334 -3.01445,14.48187 -0.19877,15.80577 -0.96232,31.60125 -1.80038,47.38159 -0.0323,0.46307 -0.71299,1.08442 -0.99684,0.43471 -0.74505,-1.23247 -0.75489,-2.73873 -1.22003,-4.07933 -6.83331,-27.41033 -13.57637,-54.84514 -19.90682,-82.37632 -0.72229,-3.66921 -3.15582,-6.93438 -6.47745,-8.65671 -4.77365,-2.55124 -10.30944,-2.71769 -15.58042,-3.18396 -7.77017,-0.68567 -15.54636,-1.37826 -23.32974,-1.85901 z" />
      <path
         id="path87"
         style="fill:#000000;fill-opacity:1;stroke:none;stroke-width:3.4;stroke-dasharray:none;stroke-opacity:1"
         inkscape:label="path41"
         d="m 813.29883,438.61328 c -7.25119,10.36379 -13.00509,21.65043 -18.94727,32.78906 -1.31275,3.80344 -0.55249,7.88622 -0.82295,11.7582 -0.48273,67.05052 -0.84088,134.1055 -1.71294,201.14943 -0.0305,3.66957 -0.30677,7.3437 -0.12159,11.01018 0.28134,3.4547 1.83899,6.89883 4.67075,8.99399 2.61841,2.07263 6.17351,2.82875 9.42144,2.08502 4.28591,-0.80528 8.19232,-2.83947 12.25657,-4.33301 6.46793,-2.62161 13.11886,-5.03808 18.9327,-8.97393 3.01198,-2.47464 4.40476,-6.38699 4.77033,-10.16766 1.6169,-13.21988 3.42521,-26.41609 5.18517,-39.61771 5.35,-39.77483 10.83256,-79.53239 15.88128,-119.34705 2.90205,-22.74821 5.89174,-45.48633 8.59784,-68.25863 0.092,-4.36676 -2.45061,-8.93417 -6.65836,-10.48129 -4.02086,-1.5042 -8.35842,-1.67271 -12.55687,-2.36381 -12.89553,-1.7092 -25.84795,-2.93633 -38.76915,-4.42834 -0.0423,0.0618 -0.0846,0.1237 -0.12695,0.18555 z" />
      <path
         id="path88"
         style="fill:#000000;fill-opacity:1;stroke:none;stroke-width:3.4;stroke-dasharray:none;stroke-opacity:1"
         d="m 669.36133,425.35742 c -4.53174,0.21364 -8.3419,3.95276 -9.40657,8.24019 -3.60286,14.46474 -5.72749,29.23068 -8.27696,43.90399 -5.73563,33.97819 -11.23227,67.99609 -16.81432,101.99974 -5.28705,32.3944 -10.62843,64.78 -16.05502,97.15122 -1.39107,8.76561 -2.90986,17.55352 -3.17512,26.44105 0.28599,3.86732 3.27243,7.09684 6.79791,8.44082 3.24382,1.49273 6.68054,2.65803 10.22547,3.14356 4.88416,0.37593 9.52351,-1.53723 14.14161,-2.75951 19.92394,-5.79635 39.76298,-11.88371 59.63734,-17.85325 10.35619,-3.15283 20.73193,-6.248 30.97193,-9.75918 4.75692,-1.93245 8.666,-5.50605 11.69708,-9.58837 3.48857,-4.23781 6.47157,-9.1572 7.21779,-14.68793 1.11291,-6.28151 1.85277,-12.67166 1.62554,-19.0565 -0.33447,-3.42505 -2.45822,-6.62652 -5.55958,-8.15578 -2.76081,-1.48458 -6.04305,-1.64585 -9.06738,-1.02098 -5.37418,0.73782 -10.57062,2.5857 -15.90894,3.34999 -2.40206,-0.32245 -4.85989,-0.64766 -7.25862,-0.12051 -4.36313,0.72364 -8.6044,2.02024 -12.93143,2.91684 -10.01692,2.34555 -20.03131,4.66992 -30.05409,6.99078 5.99845,-37.06357 12.3769,-74.06418 18.70698,-111.07216 2.2445,-13.03306 4.5416,-26.05699 6.82036,-39.08409 16.24028,7.90529 31.69734,17.41056 48.39649,24.36328 5.36766,1.57779 11.04191,0.74186 16.43795,-0.22687 2.62923,-0.48217 5.41171,-0.94976 7.55329,-2.68185 2.3795,-1.76159 3.26583,-4.74006 4.10064,-7.43988 1.5228,-5.6726 3.70842,-11.21381 4.64123,-17.05562 0.34714,-2.50042 0.74103,-5.184 -0.36326,-7.56163 -1.32906,-3.15116 -4.08369,-5.49329 -7.15548,-6.8739 -3.8817,-1.84635 -7.65437,-3.9117 -11.49701,-5.83887 -28.85549,-14.77712 -57.86197,-29.26742 -87.09668,-43.28346 -2.67652,-1.20537 -5.39124,-2.52775 -8.35115,-2.82112 z" />
      <path
         id="path94"
         style="display:inline;fill:#000000;fill-opacity:1;stroke:none;stroke-width:3.4;stroke-dasharray:none;stroke-opacity:1"
         d="m 572.58398,423.3418 c -3.87404,0.15192 -7.1651,2.85762 -9.15563,6.02404 -5.31314,8.04865 -10.60856,16.10493 -15.72347,24.28095 -9.64831,15.33089 -19.14005,30.76075 -28.89906,46.02221 -14.7374,23.43663 -29.78869,46.69166 -43.51657,70.73779 -1.63645,3.26847 -2.32259,7.08318 -1.5021,10.67797 2.20191,13.50438 5.53642,26.82267 8.48421,40.19057 7.54764,33.29532 15.06762,66.59784 22.62714,99.88989 1.05126,4.13922 2.00758,8.51528 4.71402,11.93979 2.91322,3.45753 8.42543,4.68815 12.32827,2.19794 3.4194,-1.99713 5.25103,-5.66276 7.3508,-8.85632 6.15776,-9.82651 11.5557,-20.10241 17.36984,-30.134 21.95487,-38.9513 43.85083,-77.9358 65.70185,-116.94544 -9.19742,-47.18345 -18.27739,-94.39062 -27.40089,-141.5878 -0.88409,-4.08659 -2.01998,-8.41663 -5.07172,-11.4626 -1.93045,-1.87556 -4.6001,-3.02883 -7.30669,-2.97499 z m -22.50781,117.17187 c 0.99493,0.39742 0.6798,1.69388 0.88256,2.53188 0.6958,5.42058 1.46825,10.83413 2.10914,16.26004 0.19861,3.48238 0.15138,7.0631 -1.03652,10.38458 -1.6572,5.03137 -3.46079,10.0273 -5.22307,15.03399 -5.27421,14.7704 -10.7502,29.46749 -16.14617,44.19381 -2.79818,-12.9974 -5.59635,-25.99479 -8.39453,-38.99219 9.06332,-16.33454 17.68399,-32.91718 27.03125,-49.0957 0.19601,-0.20743 0.47543,-0.40848 0.77734,-0.31641 z" />
      <path
         id="path99"
         style="fill:#000000;fill-opacity:1;stroke:none;stroke-width:3.4;stroke-dasharray:none;stroke-opacity:1"
         d="m 484.25977,438.34961 c -5.91887,0.20706 -11.86577,0.38368 -17.73061,1.2643 -3.14428,0.47508 -6.31857,1.33003 -8.91783,3.23961 -3.85011,2.64091 -7.03436,6.09069 -10.49096,9.19789 -2.17682,2.29226 -3.09427,5.45096 -3.47191,8.51781 -5.6591,27.51351 -11.34791,55.02211 -17.22268,82.49328 -0.0715,0.49422 -0.91143,1.10929 -1.13214,0.39287 -0.5271,-1.42487 -0.18762,-2.93374 -0.34524,-4.42398 -0.87599,-27.48131 -1.4932,-54.97717 -3.0364,-82.43139 -0.36408,-3.72092 -1.04893,-7.71526 -3.66591,-10.57266 -2.24291,-2.16047 -5.6154,-2.39362 -8.51483,-2.2665 -13.47426,-0.11217 -26.94869,-0.30093 -40.42462,-0.46982 -6.13423,5.46585 -13.16561,10.18189 -18.13672,16.87109 -1.77467,3.26946 -1.54575,7.18392 -0.67991,10.68533 1.83207,9.08876 3.37841,18.23209 5.0845,27.34502 10.22717,55.93797 20.2268,111.91097 29.933,167.94195 4.00413,23.40772 7.68783,46.87079 11.81043,70.2576 0.65125,3.22484 1.53787,6.73297 4.19691,8.91816 3.69213,3.06299 9.55373,3.54132 13.42137,0.52928 2.54334,-1.98581 4.02168,-4.99934 5.14213,-7.95479 1.38841,-3.96085 2.48903,-8.01587 3.68142,-12.03896 3.44752,-12.14287 6.58466,-24.36154 10.11099,-36.47861 19.5944,-69.25161 39.32781,-138.46404 58.88522,-207.72599 2.46444,-8.83634 5.00053,-17.65822 7.36629,-26.51859 0.54812,-2.29431 1.29365,-4.69083 0.70698,-7.05397 -1.00485,-4.82028 -5.24945,-8.8432 -10.19655,-9.3076 -2.10194,-0.36185 -4.24394,-0.44032 -6.37293,-0.41133 z" />
      <path
         id="path101"
         style="fill:#000000;fill-opacity:1;stroke:none;stroke-width:3.4;stroke-dasharray:none;stroke-opacity:1"
         d="m 275.11328,452.58008 c -3.86624,0.29913 -7.80843,2.65782 -9.09059,6.45341 -1.37454,4.63662 -0.90786,9.53283 -1.21043,14.29998 -0.44155,13.556 -0.73244,27.11672 -1.06663,40.67578 -0.7512,32.65249 -1.43694,65.30657 -2.30465,97.95626 -1.32605,53.34748 -2.91836,106.68817 -4.63344,160.0243 -0.0354,3.55545 -0.39137,7.38395 1.41642,10.61158 2.25215,3.85994 7.17527,5.77955 11.4786,4.71051 5.13439,-1.11456 9.50585,-4.1794 14.08734,-6.58262 4.06087,-2.30561 8.17933,-4.54617 12.02382,-7.19564 2.07793,-2.03119 2.33751,-5.09774 2.57872,-7.83023 7.20889,-62.20636 15.38777,-124.29427 23.36452,-186.40532 4.27432,-33.10457 8.63672,-66.19769 13.0614,-99.28247 -3.4942,-6.93953 -8.38034,-13.03829 -13.33246,-18.97784 -1.65458,-1.85653 -3.352,-3.81762 -5.60116,-4.95691 -3.39786,-1.29989 -7.11168,-0.84412 -10.64254,-1.43564 -10.02723,-0.88171 -20.05761,-1.88999 -30.12892,-2.06515 z" />
      <path
         id="path102"
         style="display:inline;fill:#000000;fill-opacity:1;stroke:none;stroke-width:3.4;stroke-dasharray:none;stroke-opacity:1"
         d="m 396.52539,73.814453 c -10.72958,0.868695 -21.54046,1.606749 -32.02976,4.158519 -4.49082,1.537573 -7.46086,6.064158 -7.94914,10.67291 -0.84685,5.831226 -1.98234,11.615988 -2.93785,17.430058 -10.62624,61.61445 -20.92092,123.28563 -31.58951,184.89283 -1.80087,10.63352 -3.7311,21.24912 -5.2791,31.92244 -0.45157,4.0022 -0.10211,8.14068 1.43776,11.88946 2.06134,5.69389 4.71387,11.14832 7.28391,16.62412 1.03916,2.05084 2.16444,4.36169 4.39572,5.32763 3.21924,1.54852 6.8714,0.92708 10.29736,0.77512 10.1321,-0.66596 20.24387,-1.79806 30.23116,-3.64199 3.43177,-0.72252 6.97343,-1.65615 9.80324,-3.81842 2.44796,-2.30475 3.21713,-5.75218 3.80536,-8.9324 2.40336,-13.91834 4.30622,-27.91327 6.07353,-41.92584 1.31343,-10.31946 2.58647,-20.64441 4.01591,-30.94866 0.65287,-1.37632 2.10101,-2.09677 3.06823,-3.22106 14.29598,-13.5199 28.99953,-26.60734 44.05433,-39.27668 17.43397,-15.03916 35.22682,-29.70556 51.73096,-45.7731 5.04289,-5.08456 10.46105,-9.90717 14.50395,-15.86656 1.81901,-3.09306 1.95107,-7.30194 -0.27246,-10.23333 -1.96496,-2.79241 -5.19813,-4.20722 -7.87334,-6.1849 -26.83581,-18.39624 -54.07704,-36.18079 -80.74901,-54.815639 -2.39822,-1.783889 -4.97563,-3.36467 -7.11696,-5.465884 -1.5846,-1.510364 -2.73297,-3.38624 -3.75052,-5.304562 -1.76095,-3.085082 -3.97636,-6.246052 -7.41549,-7.58289 -1.18425,-0.477705 -2.45758,-0.750737 -3.73828,-0.701172 z m 10.05078,65.994137 c 13.20969,8.79975 26.23662,17.87118 39.08008,27.19727 -15.94078,13.19982 -31.93261,26.33778 -47.91406,39.48828 2.9609,-22.22579 6.1268,-44.42951 8.83398,-66.68555 z" />
      <path
         id="path103"
         style="display:inline;fill:#000000;fill-opacity:1;stroke:none;stroke-width:3.4;stroke-dasharray:none;stroke-opacity:1"
         inkscape:label="path1"
         d="m 46.173828,449.42188 c -5.654413,0.31916 -10.265916,6.1133 -9.335937,11.69335 2.361656,23.10064 5.47618,46.21754 8.132788,69.32389 10.027486,83.87918 19.586892,167.81336 29.401427,251.71749 0.758486,6.20438 1.476043,12.42452 2.699421,18.55697 0.705842,2.79988 2.524873,5.40851 5.214086,6.60281 3.807383,1.89934 8.922802,1.4517 11.920285,-1.72722 8.862922,-9.29475 16.684232,-19.50178 24.865252,-29.38994 25.62375,-31.32161 51.54752,-62.39862 77.63581,-93.33823 16.70297,-19.84606 33.48235,-39.63478 50.15453,-59.50135 1.53259,-1.75941 2.98081,-3.62398 3.9106,-5.78189 1.51862,-3.21489 1.97658,-6.8496 1.56481,-10.36451 -0.41597,-3.81933 -1.33827,-7.56131 -1.9905,-11.34305 -0.57393,-2.85448 -1.10637,-5.74738 -2.09761,-8.48687 -1.39119,-2.35993 -4.0261,-3.47096 -6.09803,-5.11122 -56.37133,-39.37929 -112.65725,-78.88248 -169.08075,-118.18604 -4.984375,-3.43109 -9.903758,-6.96065 -14.931338,-10.3263 -3.575634,-2.31819 -7.581238,-4.44952 -11.964844,-4.33789 z m 76.683592,117.74218 c 1.75828,0.52725 2.9741,2.01312 4.51736,2.92989 15.77947,11.42485 31.56369,22.82785 47.21116,34.43339 -16.46115,28.31998 -33.33708,56.39651 -50.1191,84.52728 -3.2724,5.45622 -6.52297,10.93278 -9.85746,16.33991 -0.5804,0.15915 -0.8418,-0.6054 -0.65792,-1.04903 2.79612,-45.44482 5.5915,-90.88972 8.4626,-136.32988 -0.09,-0.32063 0.0386,-0.84844 0.44336,-0.85156 z" />
    </g>
    <g
       id="g111"
       inkscape:label="Obrysy"
       style="display:inline;fill:#ffffff;fill-opacity:1;stroke:#cd399e;stroke-width:3.3;stroke-dasharray:none;stroke-opacity:1">
      <path
         id="path106"
         style="display:inline;fill:#ffffff;fill-opacity:1;stroke:#a45178;stroke-width:4.5;stroke-dasharray:none;stroke-opacity:1"
         d="m 978.85742,84.455078 c -7.37367,0.07084 -14.749,0.02987 -22.12253,0.230965 -13.63673,0.32622 -27.25991,1.047718 -40.89105,1.538997 -26.60726,0.958448 -53.22143,1.710983 -79.83407,2.501522 -4.16394,2.98154 -8.8641,5.436538 -12.0918,9.523438 -1.04121,1.94466 -0.96364,4.22528 -1.35209,6.34449 -0.91902,7.28272 -1.67327,14.5965 -1.93111,21.93481 -0.002,1.86594 0.80664,3.90404 2.61328,4.69531 2.41037,1.18796 5.15497,0.53609 7.72017,0.50589 12.6477,-0.66142 25.20752,-2.35643 37.74921,-4.05392 3.38476,-0.4293 6.76452,-0.81397 10.14976,-1.11408 -0.3838,6.69944 -1.20955,13.35196 -1.91541,20.025 -3.85268,34.58316 -8.11579,69.11886 -12.3336,103.6589 -2.74765,22.42937 -5.53237,44.85591 -8.1299,67.30243 0.0499,1.88413 1.80748,3.06544 3.35156,3.76953 3.23634,1.49218 6.92108,1.01657 10.30322,0.47588 3.37882,-0.41489 6.81227,-0.86391 9.93649,-2.30089 4.17094,-1.82324 7.55708,-5.04384 10.24635,-8.65987 2.47093,-3.14495 4.51466,-6.83198 4.78912,-10.89799 3.59197,-26.72338 6.54021,-53.52731 9.89058,-80.28112 3.55773,-28.95496 7.13692,-57.90897 11.10966,-86.81026 0.52214,-3.61723 1.02481,-7.22891 1.68357,-10.81481 2.53982,-0.48928 5.15069,-0.75531 7.72664,-1.09415 11.93877,-1.43926 23.8577,-3.06279 35.74579,-4.85714 3.72725,-0.63843 7.53338,-0.97635 11.15452,-2.10926 1.62827,-0.5669 2.81073,-1.95486 4.15016,-2.94764 2.97023,-2.33082 6.11168,-4.87069 7.47484,-8.51916 0.88892,-3.648333 0.13079,-7.46144 -0.94289,-10.983104 -0.70319,-2.102041 -1.43607,-4.207778 -2.16648,-6.292284 -0.46055,-0.68141 -1.32237,-0.812511 -2.08399,-0.771484 z" />
      <path
         id="path98"
         style="display:inline;fill:#ffffff;fill-opacity:1;stroke:#a45178;stroke-width:4.5;stroke-dasharray:none;stroke-opacity:1"
         d="m 622.54688,87.708984 c -2.32921,0.142519 -4.88461,-0.146694 -6.94141,1.181641 -1.33548,1.23972 -1.37544,3.197386 -1.83096,4.845283 -1.99482,9.584462 -2.83143,19.357612 -4.28252,29.031232 -6.33845,46.12396 -13.59665,92.11597 -20.25895,138.19588 -2.55635,17.63201 -5.26744,35.24261 -7.87128,52.86651 -0.37106,2.80835 -0.84469,5.62809 -0.82971,8.46445 0.24606,1.87817 1.98246,3.35108 3.86002,3.39318 2.85996,0.39076 5.75076,0.14243 8.61104,0.11268 5.03022,-0.19589 10.04049,-0.70952 15.0633,-1.0264 0.99995,-0.46445 0.90944,-1.73223 1.27577,-2.61479 1.34043,-4.98262 2.38871,-10.03591 3.56957,-15.05299 2.82983,-12.67655 5.12298,-25.46329 7.9027,-38.14668 6.94641,6.77058 13.63254,13.79585 20.37344,20.77444 10.60254,11.01772 21.08492,22.14405 31.24375,33.57517 1.19309,1.23077 2.34414,2.54882 3.74805,3.53907 1.84477,0.95752 4.00006,0.88886 6.02107,1.01119 3.5441,0.045 7.05227,-0.14463 10.57189,-0.0744 3.26642,-0.0306 6.54867,0.0809 9.79962,-0.25513 1.79679,-0.62132 2.78072,-2.70048 2.6021,-4.50795 -0.41151,-1.55536 -1.64422,-2.69357 -2.47756,-4.02435 -6.72581,-9.23721 -13.72132,-18.27453 -20.4425,-27.51083 -10.50028,-14.221 -20.95765,-28.47543 -30.92814,-43.07797 -0.72496,-0.60229 0.25724,-0.82149 0.68626,-1.16482 9.27229,-5.91915 18.74652,-11.51103 28.11778,-17.27149 14.32438,-8.74674 28.70681,-17.4033 42.91266,-26.33794 6.92165,-4.46923 13.80294,-9.0412 20.26015,-14.1685 0.9743,-0.87759 2.1763,-1.79852 2.4255,-3.151 0.0283,-1.5326 -1.43476,-2.42287 -2.31108,-3.47798 -5.71149,-5.87969 -11.56382,-11.6254 -17.05187,-17.70569 -23.29895,-25.20444 -46.25099,-50.72848 -69.17026,-76.285077 -11.54884,-0.393565 -23.09206,-1.02453 -34.64843,-1.136719 z m 26.21093,39.371096 c 8.72775,10.19267 16.97531,20.77046 25.49257,31.13856 7.32926,9.05597 14.80368,17.98759 22.38952,26.82693 1.02955,1.31136 2.18537,2.55067 2.93041,4.05795 -1.06136,0.83951 -2.38117,1.26799 -3.53927,1.95804 -20.1289,10.39316 -40.41533,20.4849 -60.70269,30.57295 -3.44674,1.71273 -6.90407,3.40428 -10.38304,5.05104 7.3171,-33.03187 15.16104,-65.94975 22.03695,-99.07728 0.15561,-0.66232 0.32763,-1.32099 0.52751,-1.97155 0.41601,0.48112 0.83203,0.96224 1.24804,1.44336 z" />
      <path
         id="path93"
         style="fill:#ffffff;fill-opacity:1;stroke:#a45178;stroke-width:4.5;stroke-dasharray:none;stroke-opacity:1"
         d="m 769.69922,95.267578 c -1.79381,0.185676 -2.67871,1.958736 -3.82605,3.110632 -2.50309,2.88823 -4.90412,5.86068 -7.33997,8.80538 -2.51411,42.30034 -5.09361,84.59676 -7.69613,126.89173 -1.77716,30.18686 -3.72438,60.36382 -5.64562,90.54141 -0.0568,1.19537 -0.1469,2.55148 0.76919,3.47589 1.10727,1.34476 2.95416,1.40675 4.53155,1.71011 4.69932,0.66503 9.45304,0.19273 14.17025,0.0155 3.24504,-0.20419 6.50403,-0.40969 9.71256,-0.92372 1.52989,-0.61911 1.74661,-2.45914 1.89844,-3.88867 1.15839,-11.81307 2.57486,-23.60885 4.21895,-35.37087 2.24818,-16.23138 4.62809,-32.44429 6.87848,-48.67543 5.37885,-38.41554 10.46011,-76.87256 15.34642,-115.35366 0.76935,-6.46082 1.58935,-12.92009 2.12145,-19.40511 0.0814,-1.68684 0.21724,-3.41881 -0.15823,-5.07596 -0.36786,-1.10295 -1.52459,-1.792007 -2.66399,-1.713193 -10.14132,-1.251315 -20.19731,-3.17922 -30.38761,-4.067887 -0.6422,-0.04044 -1.28699,-0.07807 -1.92969,-0.07617 z" />
      <path
         id="path90"
         style="display:inline;fill:#ffffff;fill-opacity:1;stroke:#a45178;stroke-width:4.5;stroke-dasharray:none;stroke-opacity:1"
         d="m 525.40625,99.382812 c -3.77614,2.529588 -8.05859,4.623138 -10.80859,8.374998 -1.08661,2.00977 -0.74314,4.37352 -1.06216,6.55724 -1.17343,15.56644 -1.8889,31.16245 -2.91132,46.73887 -1.94612,31.85928 -3.88423,63.72042 -6.28236,95.54959 -1.81579,24.68411 -3.73654,49.38383 -5.88284,74.02735 -0.14895,1.69591 -0.42442,3.39467 -0.46556,5.0904 0.37302,1.77821 1.44331,3.41845 2.87181,4.52874 1.89538,1.33507 4.30269,1.27876 6.5149,1.28233 4.03067,0.0559 7.97571,-0.90231 11.96207,-1.35852 3.54237,-0.51315 7.11069,-0.90116 10.63827,-1.4824 1.1741,-0.39686 1.63137,-1.68119 1.77514,-2.80347 1.26179,-5.58036 1.52025,-11.31405 2.18605,-16.97078 3.41454,-33.562 7.20868,-67.09166 10.89835,-100.6276 2.89219,-26.02683 5.66326,-52.06685 8.48098,-78.10176 1.15058,-10.51589 2.30462,-21.03355 3.63272,-31.52777 0.13885,-1.88372 0.31687,-4.04257 -1.01035,-5.57995 -1.16736,-1.52104 -3.17242,-1.83645 -4.92969,-2.20703 -3.23879,-0.49745 -6.52892,-0.50423 -9.79284,-0.74348 -5.23727,-0.288988 -10.47654,-0.54033 -15.71497,-0.807304 l -0.0855,0.05194 z" />
      <path
         id="path66"
         style="fill:#ffffff;fill-opacity:1;stroke:#a45178;stroke-width:4.5;stroke-dasharray:none;stroke-opacity:1"
         d="m 259.37891,84.308594 c -7.92941,0.362012 -15.78346,1.575056 -23.66918,2.418337 -6.72294,0.793845 -13.4456,1.590112 -20.16871,2.382444 -8.16208,20.564205 -16.85488,40.911745 -25.43958,61.302135 -9.89563,23.43994 -19.96089,46.81232 -29.82265,70.26406 -1.15404,2.83071 -2.38612,5.65102 -3.30904,8.55896 -0.15151,1.91285 1.36249,3.34673 2.40989,4.7611 5.02975,6.15192 10.70731,11.7266 16.18226,17.47242 17.62386,18.24574 35.6373,36.11526 52.91076,54.69015 1.30143,1.4518 2.67605,2.91842 3.92187,4.44922 -0.59819,3.25763 -1.74093,6.39759 -2.94573,9.47691 -0.0809,0.7666 -0.70968,0.001 -1.11958,-0.0851 -5.31681,-2.82285 -10.40977,-6.08257 -15.5567,-9.2037 -16.55608,-10.1862 -32.88511,-20.7561 -49.36967,-31.06558 -4.12198,-2.49707 -8.18793,-5.12644 -12.56256,-7.16769 -1.36312,-0.56109 -2.8655,-1.23238 -4.36637,-0.91255 -1.1209,0.26054 -1.98954,1.28741 -1.97012,2.45295 -0.73394,4.70478 -0.68538,9.48492 -0.88029,14.23197 -0.0617,2.96592 -0.16143,5.96351 0.30074,8.90315 0.43712,2.04585 1.7967,3.72641 3.32618,5.08656 5.07619,5.02046 10.46067,9.71693 15.82995,14.42188 9.43027,8.16114 18.9961,16.1649 28.35555,24.40803 6.49179,5.66057 13.01155,11.29935 19.15772,17.33853 1.24168,1.10566 2.4193,2.33562 3.85505,3.18678 1.15597,0.61027 2.51759,0.4876 3.71087,0.0716 10.66876,-2.38858 21.20689,-5.3444 31.90684,-7.5949 0.56481,-0.0766 0.85329,-0.50131 1.03302,-1.00632 7.43083,-14.60139 14.94196,-29.16319 22.25221,-43.82484 1.6824,-3.61048 3.44136,-7.21664 4.57176,-11.0453 0.37027,-2.30972 -1.08876,-4.41827 -2.71853,-5.89717 -5.43995,-5.61538 -11.22354,-10.86746 -16.87676,-16.26248 -12.40586,-11.69206 -25.01736,-23.17318 -37.38219,-34.904 -6.53422,-6.2441 -13.00316,-12.55715 -19.19592,-19.14583 0.77894,-1.079 1.35915,-2.30551 2.08351,-3.43168 5.62505,-9.33834 11.53652,-18.52331 17.35286,-27.75563 5.79676,-9.11094 11.59133,-18.21996 17.745,-27.09714 2.92138,-4.14342 5.91055,-8.23857 8.85183,-12.36789 15.28715,12.6476 30.52078,25.36243 45.8113,38.00533 3.48552,2.79135 6.94902,5.75174 11.06226,7.58138 1.6272,0.6453 3.82183,0.49604 4.85425,-1.09403 1.05056,-1.51563 1.39296,-3.37636 2.18769,-5.0213 0.89367,-2.1351 1.80589,-4.37164 1.95615,-6.67 0.41844,-3.17411 0.75763,-6.38299 0.77484,-9.57873 -1.60696,-4.22154 -3.99394,-8.07867 -6.10491,-12.05579 -6.83018,-12.37266 -13.97096,-24.57631 -20.89196,-36.89874 -7.30599,-12.84429 -14.42003,-25.803324 -22.17708,-38.381116 -0.77216,-1.330281 -1.91495,-2.613061 -3.52827,-2.817588 -0.7713,-0.168647 -1.56387,-0.163945 -2.34856,-0.178792 z" />
      <path
         id="path61"
         style="fill:#ffffff;fill-opacity:1;stroke:#a45178;stroke-width:4.5;stroke-dasharray:none;stroke-opacity:1"
         d="m 698.83789,401.48828 c -1.71321,0.11717 -3.03507,2.11531 -2.2388,3.70445 0.85637,2.68081 3.0102,4.63865 4.87258,6.64079 1.46637,1.46371 3.02912,2.83101 4.57325,4.20945 -3.04416,-0.67828 -6.1506,-1.4256 -9.28428,-1.26781 -1.34381,0.32119 -1.77936,2.16469 -0.87949,3.15396 1.57548,2.66789 3.91956,4.75077 5.97581,7.03361 8.53704,8.89554 17.54619,17.32584 26.60358,25.68875 3.2055,2.88603 6.38671,5.81598 9.81332,8.43996 0.77475,0.5308 1.79673,0.48552 2.58151,0.0109 6.66169,-2.5024 12.96341,-5.83803 19.28173,-9.0849 8.8239,-4.66922 17.51006,-9.61295 25.88337,-15.05376 1.99513,-1.36379 4.04118,-2.72183 5.71781,-4.47348 0.7442,-0.94829 0.65469,-2.43689 -0.33008,-3.1875 -1.44279,-1.32817 -3.44478,-1.70888 -5.22323,-2.39329 -7.37092,-2.41902 -14.90541,-4.29024 -22.37272,-6.38491 -19.17439,-5.23137 -38.35335,-10.44893 -57.57549,-15.50143 -2.33607,-0.58125 -4.66922,-1.25069 -7.06098,-1.54068 -0.1119,0.007 -0.22715,-0.0111 -0.33789,0.006 z" />
      <path
         id="path56"
         style="fill:#ffffff;fill-opacity:1;stroke:#a45178;stroke-width:4.5;stroke-dasharray:none;stroke-opacity:1"
         d="m 1123.6133,437.36719 c -5.8797,8.64361 -11.9635,17.15452 -17.5087,26.0166 -1.247,2.70894 -1.6458,5.69279 -2.4004,8.53623 -3.6166,15.62969 -6.6261,31.39099 -9.6128,47.15116 -1.2751,6.81274 -2.525,13.6439 -3.9195,20.42491 -1.457,-25.29531 -3.0123,-50.58513 -4.6653,-75.86836 -0.5071,-7.17536 -1.0488,-14.39672 -2.0086,-21.50078 -0.094,-1.11959 -0.6394,-2.36584 -1.8378,-2.64843 -2.842,-0.92237 -5.8814,-0.7893 -8.8309,-0.9176 -6.4613,-0.13667 -12.9265,-0.0578 -19.3898,-0.0765 -3.3257,6.31769 -6.6567,12.63262 -9.9844,18.94921 6.9202,48.5338 13.155,97.16158 19.8077,145.73207 0.7179,5.19369 1.5283,10.37894 2.1981,15.57653 -0.1108,1.55796 -0.5846,3.06503 -0.8113,4.60916 -3.2761,17.17534 -6.6999,34.32479 -9.8241,51.52756 -0.5638,3.44629 -1.1763,6.94848 -0.8841,10.44921 0.2381,1.60698 1.4787,3.15679 3.1914,3.23243 2.0078,0.22577 3.9764,-0.422 5.975,-0.50895 7.2628,-0.86226 14.6414,-1.05067 21.8917,-2.17564 1.1022,-0.13657 2.2275,-0.77718 2.5024,-1.92516 1.8409,-5.12799 3.371,-10.36594 4.9723,-15.57429 3.8221,-12.81773 7.4101,-25.70807 11.1358,-38.55618 9.9814,-34.77842 19.9824,-69.55194 29.6005,-104.43301 6.6409,-23.95584 13.3126,-47.90329 20.1889,-71.7928 1.0163,-3.66553 2.1859,-7.30513 2.8233,-11.06132 0.2148,-1.17254 -0.1336,-2.6625 -1.4034,-3.06582 -2.3086,-0.82966 -4.8106,-0.81161 -7.2272,-1.04824 -7.946,-0.53414 -15.9059,-0.83122 -23.8597,-1.22383 -0.04,0.0573 -0.079,0.11459 -0.1191,0.17188 z" />
      <path
         id="path48"
         style="fill:#ffffff;fill-opacity:1;stroke:#a45178;stroke-width:4.5;stroke-dasharray:none;stroke-opacity:1"
         d="m 903.14844,434.25 c -1.20511,0.066 -1.42025,1.44658 -1.95236,2.27082 -6.8883,13.1174 -13.77641,26.23489 -20.66483,39.35223 -2.76439,58.38369 -5.45641,116.77112 -7.85737,175.17103 -0.50387,10.87434 -0.84879,21.76371 -1.80515,32.61003 -0.30072,2.3419 -0.37505,5.07312 1.35393,6.92011 1.52265,1.59123 3.90439,1.79925 5.96761,1.47578 2.77246,-0.39285 5.54085,-0.89861 8.31045,-1.26797 5.63148,-0.84052 11.31336,-1.52313 16.82732,-2.9788 1.03236,-0.36081 1.47467,-1.4657 1.56617,-2.47326 1.0545,-4.85145 1.65743,-9.78776 2.42535,-14.69059 2.07526,-14.29364 4.03856,-28.61033 6.09134,-42.91005 2.86284,-20.0747 5.5313,-40.1791 8.63195,-60.21592 0.44706,-2.77144 0.90682,-5.54106 1.43371,-8.29857 4.26448,11.1666 8.15345,22.47198 12.31526,33.67698 10.86114,29.73403 21.66483,59.48845 32.85662,89.09841 7.92845,0.0449 15.88443,0.73989 23.79101,-0.12304 1.4313,-0.25322 2.46683,-1.50907 2.75339,-2.89043 0.87721,-2.80355 1.26494,-5.73049 1.83763,-8.60565 2.12988,-11.87172 3.86983,-23.81546 5.77703,-35.72683 6.2708,-40.02519 12.5208,-80.05376 18.7244,-120.08938 3.1664,-20.56993 6.2864,-41.14468 9.0193,-61.77638 0.276,-2.54195 0.4968,-5.10848 0.4273,-7.66329 -0.1946,-0.93431 -1.228,-1.27975 -2.0748,-1.16734 -8.0927,-0.47437 -16.1873,-1.35915 -24.3021,-1.0768 -1.8733,0.32086 -3.0876,1.95055 -4.4397,3.06911 -5.01764,4.74068 -9.4045,10.07485 -13.97003,15.23674 -2.2074,2.60014 -4.53853,5.16287 -6.16576,8.18179 -1.17514,2.26963 -1.59199,4.88374 -1.52574,7.38826 -0.10517,4.97556 0.0112,9.92631 -0.21757,14.89314 -0.56364,18.47338 -1.7579,36.91951 -2.53456,55.38401 -0.53466,10.91001 -0.88091,21.83273 -1.68687,32.727 -0.12342,-0.11294 -0.32535,-1.06962 -0.47631,-1.47757 -1.67617,-6.14886 -3.12985,-12.35661 -4.69978,-18.53344 -8.54467,-34.2812 -17.06667,-68.56862 -25.33087,-102.91862 -1.02254,-4.36241 -2.11086,-8.71675 -2.9701,-13.1123 -0.10648,-1.65843 -0.61157,-3.41427 -1.99512,-4.46007 -2.03265,-1.68648 -4.76167,-2.07632 -7.28412,-2.49234 -5.5096,-0.74497 -11.07894,-0.85948 -16.60909,-1.40351 -3.86155,-0.30104 -7.70491,-0.7088 -11.54754,-1.10329 z" />
      <path
         id="path41"
         style="fill:#ffffff;fill-opacity:1;stroke:#a45178;stroke-width:4.5;stroke-dasharray:none;stroke-opacity:1"
         inkscape:label="path41"
         d="m 816.7832,446.23242 c -4.15038,5.90293 -7.34925,12.39063 -10.85078,18.67635 -1.71392,3.1612 -3.4269,6.32292 -5.1414,9.48381 -0.44269,63.03628 -0.7163,126.08663 -1.41422,189.11296 -0.13344,8.80231 -0.1914,17.60794 -0.47055,26.40657 -0.16337,2.44153 -0.66313,5.12978 0.61445,7.37002 0.86289,1.56863 2.70407,2.60232 4.50023,2.1983 2.65438,-0.39886 5.08321,-1.62562 7.59448,-2.51114 6.25313,-2.45469 12.47262,-5.00005 18.54823,-7.86651 1.74172,-0.83219 3.45338,-2.15008 3.90755,-4.1284 0.66148,-2.32906 0.64222,-4.74475 1.01247,-7.09643 1.81592,-15.60219 4.09718,-31.14494 6.19518,-46.71061 4.56178,-33.16608 9.16195,-66.32794 13.32413,-99.54714 3.16641,-24.83712 6.30903,-49.6786 9.61098,-74.49739 0.17868,-1.78059 0.0552,-3.97417 -1.58114,-5.07593 -1.19252,-0.69038 -2.62191,-0.71977 -3.93442,-1.04322 -6.56036,-1.14531 -13.19101,-1.84922 -19.80563,-2.61303 -7.32613,-0.79431 -14.65853,-1.53017 -21.9826,-2.34375 -0.0423,0.0618 -0.0846,0.12369 -0.12696,0.18554 z" />
      <path
         id="path29"
         style="fill:#ffffff;fill-opacity:1;stroke:#a45178;stroke-width:4.5;stroke-dasharray:none;stroke-opacity:1"
         d="m 669.52734,432.48828 c -1.61019,0.21179 -2.31791,1.90121 -2.72461,3.26953 -1.64172,5.49868 -2.47601,11.19206 -3.58474,16.81201 -2.59724,14.58858 -5.13169,29.18845 -7.50325,43.8156 -6.111,37.23676 -12.19904,74.4773 -18.20683,111.73088 -2.44315,14.99269 -4.80329,29.99946 -7.46414,44.95563 -2.42275,13.98079 -4.90783,27.96055 -6.78424,42.02467 -0.3124,2.55067 -0.50588,5.11688 -0.56422,7.6866 0.76968,1.8014 2.84751,2.30432 4.46695,2.9758 2.49992,0.84669 5.02569,2.18312 7.74985,1.79852 2.89164,-0.32923 5.66109,-1.29597 8.46383,-2.03746 12.36652,-3.55023 24.63762,-7.43242 36.97669,-11.08273 16.03151,-4.84423 32.10619,-9.54935 48.09924,-14.51869 3.39053,-1.11437 6.87677,-2.18224 9.87968,-4.1621 2.54491,-1.95136 4.30748,-4.68091 6.41454,-7.05732 2.3125,-2.8726 4.092,-6.28801 4.56612,-9.96695 0.89318,-4.86722 1.41731,-9.80193 1.66871,-14.74272 0.05,-1.57941 0.0644,-3.51504 -1.37545,-4.53057 -1.23756,-0.98726 -2.89203,-0.89437 -4.36897,-0.71675 -3.76633,0.40922 -7.40558,1.53049 -11.08608,2.38216 -2.66954,0.68002 -5.3605,1.37028 -8.13284,1.54358 -0.66103,-0.36741 -1.31125,-0.82111 -2.10551,-0.79941 -2.19833,-0.14812 -4.33147,0.5783 -6.46154,1.01206 -6.80032,1.64767 -13.59383,3.32066 -20.41312,4.88658 -9.46496,2.22429 -18.94793,4.40321 -28.44952,6.4828 0.53419,-5.3791 1.4862,-10.70699 2.31545,-16.05557 4.30198,-26.27122 8.81054,-52.5082 13.23633,-78.75879 4.2339,-24.71249 8.3468,-49.44713 12.96953,-74.08792 0.0432,-0.72305 0.18274,-1.26468 0.92202,-0.6768 7.40087,3.21776 14.56235,6.95253 21.70276,10.70451 8.21223,4.42016 16.33506,9.02052 24.767,13.0119 3.52303,1.72631 7.0247,3.71022 10.9186,4.45093 3.40088,0.38618 6.78733,-0.42804 10.13801,-0.85611 1.633,-0.25824 3.31895,-0.46494 4.85893,-1.06792 1.17256,-0.81906 1.15619,-2.40621 1.68729,-3.61044 1.81296,-5.86423 3.76251,-11.70592 4.98017,-17.72957 0.26107,-1.64298 -0.12365,-3.62228 -1.68639,-4.50147 -1.92841,-1.22606 -4.02182,-2.16524 -6.02065,-3.26969 -17.53653,-9.16773 -35.27391,-17.94659 -52.97074,-26.79991 -14.69804,-7.32198 -29.40731,-14.63116 -44.2691,-21.61204 -0.84022,-0.36279 -1.70223,-0.78525 -2.60976,-0.90283 z" />
      <path
         id="path16"
         style="display:inline;fill:#ffffff;fill-opacity:1;stroke:#a45178;stroke-width:4.5;stroke-dasharray:none;stroke-opacity:1"
         d="m 572.78125,430.49609 c -1.53827,-0.006 -2.3262,1.52406 -3.14153,2.58569 -8.31429,11.73178 -15.62831,24.12837 -23.29235,36.28762 -18.45953,29.7045 -37.524,59.02632 -55.75936,88.86965 -3.04152,5.07201 -6.18692,10.09418 -8.89465,15.35665 -0.59529,1.27902 -1.36018,2.59765 -1.15655,4.06318 0.37508,3.14889 0.94392,6.27773 1.5123,9.39824 1.55398,8.5463 3.67108,16.97172 5.65792,25.4253 2.11615,9.32332 4.06525,18.70635 6.22257,28.02941 3.36451,14.90017 6.95055,29.74963 10.28005,44.64987 2.63973,11.8526 5.08202,23.75088 7.87241,35.56888 0.63725,2.47196 1.2671,5.00177 2.52084,7.24348 0.78697,1.20294 2.55259,2.06662 3.84839,1.12462 1.61693,-1.19029 2.51223,-3.05531 3.68599,-4.63465 4.87003,-7.37897 8.89761,-15.26294 13.34141,-22.89857 18.37352,-32.45094 36.69335,-64.93369 54.85142,-97.50684 4.82683,-8.6299 9.64303,-17.26575 14.46481,-25.89846 -7.62638,-38.79808 -15.1642,-77.61374 -22.5528,-116.45776 -1.49242,-7.84937 -2.80527,-15.73576 -4.48741,-23.54722 -0.53202,-2.18663 -1.06472,-4.47635 -2.39338,-6.33291 -0.64449,-0.74837 -1.57174,-1.31572 -2.58008,-1.32618 z M 547.1155,604.82821 c -6.06252,16.58578 -12.05463,33.19723 -18.18581,49.75773 -3.14783,-13.64197 -5.94524,-27.36141 -8.93421,-41.0386 l -5.33532,-24.80515 c 11.94842,-21.38301 23.90406,-42.76987 36.90002,-63.54225 0.48513,-0.77056 5.01727,-8.77309 5.53394,-9.52288 1.37051,12.58473 2.44625,22.6943 3.62072,36.14948 0.22468,6.51481 1.2759,13.90543 -2.47034,23.26193 -1.74484,4.35783 -9.37145,23.71797 -11.129,29.73974 z"
         sodipodi:nodetypes="ccccccccccccccccccccccccccccsc" />
      <path
         id="path13"
         style="fill:#ffffff;fill-opacity:1;stroke:#a45178;stroke-width:4.5;stroke-dasharray:none;stroke-opacity:1"
         d="m 483.92383,445.46484 c -6.07451,0.24049 -12.16353,0.54725 -18.1875,1.38672 -2.51885,0.52886 -4.70226,2.02788 -6.50762,3.81203 -2.57235,2.28708 -5.14385,4.59635 -7.59199,7.00243 -0.6223,1.30728 -0.59818,2.79696 -0.98088,4.17705 -4.17082,21.38075 -8.65104,42.68451 -13.25567,63.97624 -5.85973,27.54841 -11.53468,55.1355 -17.32595,82.69827 -0.52141,-9.368 -0.78373,-18.74831 -1.11315,-28.12452 -0.78641,-25.25753 -1.39382,-50.52028 -2.20258,-75.77717 -0.47962,-15.28139 -0.90916,-30.56745 -1.75416,-45.83383 -0.17899,-2.44644 -0.56832,-4.90302 -1.35785,-7.22542 -0.37414,-0.84791 -1.40006,-0.50469 -2.11125,-0.57682 -13.19273,-0.16326 -26.38547,-0.32596 -39.5782,-0.48959 -4.61308,3.99195 -9.62904,7.566 -13.75916,12.08831 -1.01523,1.14335 -1.63879,2.7649 -1.10601,4.26996 1.89736,9.44169 3.51676,18.9372 5.2703,28.40646 3.62484,19.61118 7.22197,39.22747 10.71511,58.86261 5.65613,31.73308 11.3382,63.4698 16.90249,95.22277 3.76992,21.61611 7.37525,43.26105 10.76057,64.94075 1.31669,8.01403 2.48095,16.06441 4.26944,23.98844 0.67985,1.81485 2.87478,2.80889 4.71649,2.39775 1.75621,-0.61036 2.45177,-2.54167 3.18296,-4.07835 2.18409,-5.42565 3.60073,-11.11971 5.10744,-16.76148 4.57234,-17.44257 9.6199,-34.75396 14.49742,-52.11815 12.84615,-45.35484 25.66135,-90.71861 38.67771,-136.02499 6.02353,-21.0846 12.09702,-42.15645 17.859,-63.3122 1.48985,-5.44393 3.08401,-10.87598 4.63437,-16.3093 0.44987,-1.8465 0.15393,-4.18638 -1.60892,-5.25313 -2.18781,-1.43357 -4.92801,-1.23412 -7.42585,-1.34679 -0.24219,6.5e-4 -0.48437,0.001 -0.72656,0.002 z" />
      <path
         id="path8"
         style="fill:#ffffff;fill-opacity:1;stroke:#a45178;stroke-width:4.5;stroke-dasharray:none;stroke-opacity:1"
         d="m 277.45898,459.69336 c -1.5575,0.0507 -3.45093,-0.0838 -4.54687,1.25195 -0.78352,1.4184 -0.46365,3.10436 -0.67275,4.65002 -0.92534,18.14113 -1.03135,36.30964 -1.45914,54.46616 -1.2613,62.16368 -2.91971,124.31853 -4.67037,186.47009 -0.61898,20.93198 -1.20079,41.86656 -2.12137,62.78787 -0.13327,2.96935 -0.28758,5.96245 0.0546,8.92031 0.30526,1.45059 1.82159,2.25897 3.22058,2.18993 2.21319,-0.0747 4.19048,-1.24176 6.15821,-2.13477 4.89805,-2.49512 9.57202,-5.39273 14.35909,-8.09005 1.02404,-0.59197 2.0492,-1.18201 3.07255,-1.77518 2.63656,-23.46088 5.40357,-46.90727 8.40872,-70.32397 5.34495,-42.38377 10.87455,-84.74399 16.26171,-127.12241 3.83396,-29.96013 7.77289,-59.90697 11.89402,-89.82901 -3.50262,-5.65894 -7.3318,-11.14778 -11.89769,-16.00778 -0.76334,-0.85607 -1.52613,-1.71263 -2.28981,-2.5684 -11.58724,-0.97351 -23.14987,-2.30753 -34.76787,-2.86655 -0.33437,-0.006 -0.66997,-0.0129 -1.00362,-0.0182 z" />
      <path
         id="path81"
         style="display:inline;fill:#ffffff;fill-opacity:1;stroke:#a45178;stroke-width:4.5;stroke-dasharray:none;stroke-opacity:1"
         d="m 396.05469,80.974609 c -8.95813,0.556151 -17.87146,1.684408 -26.74069,3.037165 -2.00606,0.352942 -4.32028,1.17922 -5.11088,3.246038 -0.46285,1.426395 -0.51535,2.944449 -0.85942,4.400436 -3.89316,21.781752 -7.48775,43.621402 -11.19747,65.437502 -8.01434,47.33959 -15.87659,94.71898 -24.23863,141.99038 -1.59124,8.90818 -3.28674,17.80863 -4.36868,26.79699 -0.15241,2.75753 1.01114,5.34766 1.86579,7.90747 2.01687,5.46693 4.75901,10.63246 7.11173,15.9504 0.14012,0.62362 0.77957,0.88151 1.36397,0.77549 5.16486,0.15428 10.31667,-0.3618 15.43899,-0.97059 8.55097,-0.90646 17.29721,-1.44774 25.48143,-4.32762 0.85125,-0.22926 1.06961,-1.19865 1.36607,-1.92032 0.6107,-2.02554 0.86722,-4.13891 1.29381,-6.20806 2.48559,-13.97371 4.0412,-28.09034 5.91818,-42.15467 1.30534,-10.14637 2.61069,-20.29275 3.91603,-30.43913 8.59989,-8.11282 17.01278,-16.4169 25.96339,-24.14984 13.10607,-11.47101 26.43635,-22.6821 39.63063,-34.05099 10.32802,-8.86508 20.67379,-17.71544 30.6687,-26.95332 3.34607,-3.33368 6.44746,-6.88636 9.98536,-10.01861 2.34458,-2.15235 4.41985,-4.57178 6.49055,-6.98073 0.6945,-0.94296 1.52449,-1.91984 1.7184,-3.10432 0.0722,-1.08345 -0.826,-1.8719 -1.69581,-2.34021 -9.55438,-6.77436 -19.36393,-13.17562 -29.06232,-19.74209 -18.47955,-12.43942 -37.05692,-24.71872 -55.38309,-37.381735 -3.50584,-2.484749 -7.04928,-4.965505 -10.16542,-7.936354 -2.69951,-2.90069 -3.75613,-6.933234 -6.52118,-9.787713 -0.53583,-0.669908 -1.31248,-1.147107 -2.19662,-1.069897 -0.22387,-0.01135 -0.44873,-0.0092 -0.67282,-0.0057 z m 5.85351,47.343751 c 4.55679,2.60558 8.85801,5.62652 13.23914,8.51115 12.19358,8.18969 24.19914,16.65382 36.10869,25.25555 1.97933,1.47588 3.91925,3.00612 5.78499,4.62392 -7.56345,6.79306 -15.54381,13.08571 -23.37565,19.5596 -12.63846,10.31944 -25.19612,20.73459 -37.78501,31.11448 -2.38625,1.94284 -4.77695,3.88032 -7.20458,5.77124 0.17628,-5.67358 1.12779,-11.27072 1.80103,-16.91275 2.64191,-19.85206 5.58257,-39.66389 8.07943,-59.53539 0.7232,-5.75978 1.48528,-11.52129 1.94137,-17.30767 0.0256,-0.58114 -0.002,-1.17836 0.18989,-1.73638 0.4069,0.21875 0.8138,0.4375 1.2207,0.65625 z" />
      <path
         id="path1"
         style="display:inline;fill:#ffffff;fill-opacity:1;stroke:#a45178;stroke-width:4.5;stroke-dasharray:none;stroke-opacity:1"
         inkscape:label="path1"
         d="m 46.873047,456.55664 c -1.810565,-0.0352 -3.320206,1.88206 -2.842238,3.63501 0.461277,8.94883 1.916463,17.80265 2.92037,26.69851 5.814457,47.0629 11.298357,94.16584 16.820196,141.26374 5.452201,46.565 10.779438,93.14453 16.047596,139.73068 1.207116,10.35121 2.359877,20.71724 4.005248,31.008 0.571449,2.08096 3.478545,3.25604 5.19055,1.81399 3.527026,-3.37609 6.543892,-7.23056 9.706105,-10.93795 10.003066,-12.01649 19.662346,-24.32104 29.682276,-36.327 30.12863,-36.57114 60.60382,-72.85864 91.25836,-108.98636 7.45436,-8.78536 14.99092,-17.50329 22.39959,-26.32697 1.93846,-2.4048 3.4944,-5.3793 3.23982,-8.55637 -0.11345,-4.23018 -1.31774,-8.32194 -2.01893,-12.47273 C 242.8788,595.06612 242.47522,593.03312 242.07227,591 190.80959,555.02302 139.48512,519.13357 88.122421,483.29788 77.433614,475.85263 66.808862,468.30995 56.099705,460.88928 c -2.559384,-1.70299 -5.179597,-3.49383 -8.197361,-4.25647 -0.340127,-0.0571 -0.684988,-0.0821 -1.029297,-0.0762 z m 84.244143,107.35742 c 17.59742,12.7333 35.27545,25.34415 52.57926,38.46645 0.11904,0.34273 -0.31526,0.79547 -0.39836,1.17966 -1.58456,3.52725 -3.76818,6.73651 -5.64919,10.10497 -19.97133,34.07024 -40.29577,67.93256 -60.58867,101.81132 -4.04425,6.73464 -8.10162,13.46138 -12.15984,20.1876 1.87589,-31.98565 3.68719,-63.97615 5.83424,-95.94526 1.45915,-22.12908 2.73845,-44.26944 4.06267,-66.40678 0.427,-6.27723 0.78414,-12.56589 1.49567,-18.81788 0.12577,-0.49345 0.0678,-1.48486 0.7001,-0.73185 4.70804,3.38393 9.41608,6.76785 14.12412,10.15177 z" />
    </g>
    <g
       id="g129"
       inkscape:label="stíny"
       style="display:inline;fill:#000000;fill-opacity:1;stroke:none;stroke-opacity:1">
      <path
         style="display:inline;fill:#000000;fill-opacity:1;stroke:none;stroke-width:0.5;stroke-dasharray:none;stroke-opacity:1"
         d="m 95.757428,785.74556 c 7.937622,-10.42482 56.483832,-75.59854 62.737352,-84.49556 2.70609,-3.85 13.03453,-18 23.25764,-31.75 10.22312,-13.75 21.79573,-30.1625 25.86968,-35.9375 4.07395,-5.775 12.14995,-17.23895 18.3183,-25.38824 l 11.41111,-15.07574 2.78335,9.45074 c 2.0635,7.00653 1.41211,9.24718 0.41239,10.45074 -0.68527,0.825 -7.50124,8.88606 -15.1466,17.91347 -38.00099,44.87044 -97.56253,117.29804 -120.37802,145.83653 -7.584908,9.4875 -14.450848,17.34073 -14.67885,17.25 -0.444254,-0.17678 2.144318,-3.96069 5.413648,-8.25444 z"
         id="path4"
         sodipodi:nodetypes="ssssscssssss" />
      <path
         id="path86"
         style="display:inline;fill:#000000;fill-opacity:1;stroke:none;stroke-width:1;stroke-dasharray:none;stroke-opacity:1"
         d="m 402.10352,128 c -0.218,0 -0.40862,0.034 -0.58399,0.16797 0.28752,0.16253 0.61957,0.35468 0.98828,0.57422 1.40092,0.83413 3.34695,2.05899 5.67774,3.57031 4.66157,3.02264 10.86995,7.19764 17.48047,11.78711 12.43371,8.63234 20.5349,14.34951 25.49609,18.03711 0.14291,0.10622 0.28413,0.21155 0.42187,0.31445 -0.8683,-0.98934 -5.83619,-4.74327 -11.64843,-8.7832 -6.28989,-4.37192 -17.13559,-11.93584 -24.10157,-16.80859 C 408.868,131.98662 402.68956,128 402.10352,128 Z m -1.58008,2.78711 c -0.56014,2.69779 -1.25073,7.96699 -2.54492,18.21289 -1.14629,9.075 -3.36586,25.725 -4.93164,37 -2.88196,20.75269 -3.92865,28.19016 -3.77344,30.56055 0.56024,-4.9724 1.72627,-13.97694 2.84375,-21.83399 2.37689,-16.71204 4.49624,-32.23109 6.02148,-43.97656 0.76263,-5.87273 1.37625,-10.80148 1.80078,-14.4707 0.28037,-2.42315 0.48012,-4.22652 0.58399,-5.49219 z" />
      <path
         style="display:inline;fill:#000000;fill-opacity:1;stroke:none;stroke-width:0.5;stroke-dasharray:none;stroke-opacity:1"
         d="M 86.57249,794.75 C 86.3164,793.5125 84.94017,781.475 83.51422,768 82.08826,754.525 79.82452,734.95 78.48368,724.5 77.14284,714.05 73.12126,679.625 69.54684,648 62.3193,584.05375 59.35926,558.67603 57.99952,549 c -0.50238,-3.575 -2.7193,-22.025 -4.92648,-41 -2.20718,-18.975 -4.42474,-37.425 -4.92792,-41 -0.50318,-3.575 -0.77466,-6.65452 -0.60329,-6.84337 0.39791,-0.43852 50.64533,34.08341 84.95817,58.36956 7.15,5.06067 22,15.48566 33,23.16663 11,7.68098 24.05,16.822 29,20.3134 4.95,3.49139 13.95,9.73251 20,13.86915 C 229.32207,586.00984 237.55495,592 236.66172,592 235.6685,592 222.96067,583.4125 196.49299,564.85538 184.39685,556.37448 154.925,535.76549 131,519.05761 85.30255,487.14508 77.81321,481.88899 61.38159,470.19873 55.81646,466.23943 50.75396,463 50.13159,463 c -1.37637,0 -1.37726,0.0641 -0.12732,9.17764 C 51.66489,484.28558 62.1597,573.23867 75.93921,692 c 2.20161,18.975 5.58877,48 7.52702,64.5 1.93824,16.5 3.52626,31.43036 3.52893,33.17857 0.003,1.74822 0.65841,3.83214 1.45722,4.63095 0.79881,0.79881 1.17381,1.73096 0.83333,2.07143 -1.21244,1.21245 -2.25442,0.5861 -2.71322,-1.63095 z"
         id="path3" />
      <path
         id="path6"
         style="display:inline;fill:#000000;fill-opacity:1;stroke:none;stroke-width:1;stroke-dasharray:none;stroke-opacity:1"
         d="m 113.19727,547.65234 c -0.13769,10e-4 -0.23825,0.0311 -0.29883,0.0957 -0.38772,0.4132 -1.20684,8.62695 -1.81836,18.25195 -0.61153,9.625 -2.46264,38.68933 -4.11328,64.58789 -6.56792,103.05023 -7.080712,115.77603 -4.63086,114.83594 0.73506,-0.28207 5.42405,-7.35558 10.41992,-15.71875 C 174.38509,626.5368 188,603.35124 188,601.56445 c 0,-0.69861 -17.13581,-13.43433 -44.5,-33.07422 -12.1,-8.68444 -23.77742,-17.07226 -25.94922,-18.64062 -1.83246,-1.32331 -3.61,-2.20289 -4.35351,-2.19727 z M 115.5,550.82422 132,562.6875 c 29.00063,20.85221 52.94908,38.42279 53.42773,39.19727 0.2555,0.4134 -1.2369,3.64592 -3.31835,7.18359 -2.08144,3.53767 -7.74704,13.18164 -12.58985,21.43164 -11.06439,18.84882 -64.0716,107.47955 -65.48828,109.5 -0.75642,1.07879 -0.90488,-0.74646 -0.5293,-6.5 0.28723,-4.4 1.21084,-20.15 2.05274,-35 0.8419,-14.85 2.39667,-39.825 3.45508,-55.5 1.05842,-15.675 2.63792,-41.325 3.50976,-57 0.87185,-15.675 1.89946,-30.00195 2.2832,-31.83789 z" />
      <path
         id="path5"
         style="display:inline;fill:#000000;fill-opacity:1;stroke:none;stroke-width:1;stroke-dasharray:none;stroke-opacity:1"
         d="m 92.5,531.02344 -0.324219,13.73828 c -0.17842,7.55589 0.160307,23.41328 0.753907,35.23828 0.593599,11.825 1.537053,35.225 2.095703,52 0.55865,16.775 1.679927,48.95 2.492187,71.5 0.81226,22.55 1.492819,43.025 1.511719,45.5 0.03238,4.2401 0.121637,4.38449 1.554683,2.5 2.44075,-3.20962 22.65998,-36.90482 62.4043,-104 24.16112,-40.78807 27.01047,-45.6814 26.98047,-46.32617 -0.0173,-0.37076 -1.14519,-1.4842 -2.50586,-2.47461 C 167.64278,584.27255 124.8833,553.72869 104.5,539.4375 Z m 23,19.80078 16.5,11.86328 c 29.00063,20.85221 52.94908,38.42279 53.42773,39.19727 0.2555,0.4134 -1.2369,3.64592 -3.31835,7.18359 -2.08144,3.53767 -7.74704,13.18164 -12.58985,21.43164 -11.06439,18.84882 -64.0716,107.47955 -65.48828,109.5 -0.75642,1.07879 -0.90488,-0.74646 -0.5293,-6.5 0.28723,-4.4 1.21084,-20.15 2.05274,-35 0.8419,-14.85 2.39667,-39.825 3.45508,-55.5 1.05842,-15.675 2.63792,-41.325 3.50976,-57 0.87185,-15.675 1.89946,-30.00195 2.2832,-31.83789 z" />
      <path
         style="fill:#000000;fill-opacity:1;stroke:none;stroke-opacity:1"
         d="m 970.89907,102.24069 c 0.81582,-8.77792 1.43167,-10.137212 4.50721,-11.538522 2.23306,-1.01745 2.75264,-0.418838 3.70954,2.056492 2.59165,6.70418 2.31227,8.56466 -1.7741,11.81401 -6.90317,5.48919 -7.17567,5.55503 -6.44265,-2.33198 z"
         id="path111"
         sodipodi:nodetypes="sssss" />
      <path
         style="fill:#000000;fill-opacity:1;stroke:none;stroke-opacity:1"
         d="m 860,316.37834 c 0,-0.89192 0.65999,-6.17942 1.46665,-11.75 0.80665,-5.57059 2.17341,-16.42834 3.03724,-24.12834 0.86382,-7.7 2.22155,-19.175 3.01717,-25.5 11.63206,-92.47213 16.10199,-131.71029 15.11643,-132.69585 -0.33024,-0.33023 -10.17127,0.58693 -21.86896,2.03815 -29.74439,3.6901 -35.35929,4.12888 -36.16444,2.82612 -0.59833,-0.96812 0.84866,-20.43995 1.90854,-25.68285 0.23011,-1.13828 2.85131,-3.4957 6.0267,-5.42018 l 5.61949,-3.40576 27.67059,-0.78286 c 23.25254,-0.657864 49.86686,-2.072413 69.92624,-2.828802 12.52513,-0.472291 23.02495,-0.806354 28.02468,-1.09274 C 970.93402,87.545464 974,88.12844 974,88.81875 c 0,1.38571 -5.75157,1.96458 -36.5,3.67354 -48.16976,2.67721 -107.99442,6.7606 -108.73517,7.42182 -0.40435,0.36093 -1.19641,5.14041 -1.76014,10.62106 -0.56372,5.48066 -1.29547,11.42733 -1.62611,13.21483 -0.42799,2.31379 -0.22515,3.25 0.70413,3.25 0.7179,0 14.09651,-1.59647 29.73024,-3.54771 15.63373,-1.95124 28.60573,-3.36694 28.82668,-3.14599 0.70008,0.70007 -11.75183,106.5264 -19.61379,166.6937 -2.12009,16.225 -3.69711,29.6586 -3.5045,29.85244 0.56759,0.57121 17.91979,-1.9152 18.60584,-2.66603 0.585,-0.64026 6.89009,-40.26264 17.29519,-108.68641 6.38177,-41.96641 13.76149,-87.93442 14.1935,-88.41088 0.38356,-0.42302 52.37125,-6.9969 55.8008,-7.05606 1.05416,-0.0182 1.70469,0.17892 1.44561,0.438 -0.25909,0.25908 -12.37159,1.90119 -26.91667,3.64913 -14.54509,1.74794 -26.95195,3.56946 -27.57082,4.04782 -0.61887,0.47836 -1.39091,2.54875 -1.71565,4.60087 C 910.99768,133.2679 899.96143,223.37846 893.5248,279 c -1.43206,12.375 -2.81211,23.48281 -3.06677,24.68403 -0.25466,1.20122 -2.73696,4.35122 -5.51622,7 -5.42109,5.16659 -10.61936,7.02522 -20.19181,7.21954 -3.75358,0.0762 -4.75,-0.24375 -4.75,-1.52523 z"
         id="path108"
         sodipodi:nodetypes="ssssssssscssssssssssssssssssssssssss" />
      <path
         style="fill:#000000;fill-opacity:1;stroke:none;stroke-opacity:1"
         d="m 693.25,323.26496 c 2.81049,-0.22161 4.74886,-0.86257 4.74721,-1.56975 -0.002,-0.65737 -10.68904,-15.60385 -23.75,-33.21441 -25.65107,-34.58623 -31.33496,-42.30452 -32.50056,-44.13324 -0.50184,-0.78735 2.16901,-2.77225 8,-5.9454 4.81434,-2.6199 22.25335,-12.62427 38.75335,-22.23193 16.5,-9.60765 34.4647,-19.98886 39.92155,-23.06935 5.45686,-3.08048 10.0715,-6.05732 10.25477,-6.61518 0.18327,-0.55787 -6.01702,-7.75787 -13.77842,-16 -7.7614,-8.24214 -26.68204,-29.00496 -42.04586,-46.13962 L 654.91782,93.19216 643.70891,92.51829 c -6.1649,-0.37063 -14.33664,-0.52636 -18.15941,-0.34608 L 618.59899,92.5 615.29802,117 c -2.92588,21.71606 -10.76185,75.59017 -14.83586,102 -0.80602,5.225 -3.72751,24.8 -6.49221,43.5 -4.37209,29.57215 -5.95967,39.86526 -8.52776,55.2897 l -0.54771,3.2897 8.78369,-0.2897 8.78368,-0.2897 3.70988,-16 c 2.04044,-8.8 5.40374,-23.98333 7.47402,-33.74074 l 3.76414,-17.74074 2.92808,2.74074 c 3.54168,3.31508 55.34564,60.38031 58.54486,64.49074 1.19799,1.5392 1.11766,1.75 -0.66687,1.75 -1.29893,0 -4.99126,-3.32807 -10.26241,-9.25 -8.91361,-10.0141 -11.85221,-13.17855 -34.37043,-37.01212 -8.19072,-8.66916 -15.0611,-15.59324 -15.2675,-15.38684 -0.2064,0.2064 -2.83117,12.69936 -5.83283,27.76212 -3.00166,15.06276 -5.83225,28.73684 -6.29021,30.38684 l -0.83266,3 -10.67996,0.28383 C 588.47216,321.94881 584,321.67364 584,321.12669 c 0,-1.53051 4.8481,-34.14716 5.96439,-40.12669 0.56472,-3.025 3.25668,-21.475 5.98214,-41 2.72546,-19.525 6.77355,-46.83418 8.99574,-60.68706 2.2222,-13.85289 5.83323,-38.96549 8.02451,-55.8058 2.19129,-16.8403 4.24675,-31.04363 4.56771,-31.56294 0.83962,-1.35854 33.79337,-1.20757 36.81386,0.16866 1.34335,0.61207 7.10202,6.34634 12.79705,12.74283 22.48462,25.25403 47.94067,53.33747 60.74273,67.01211 l 13.45098,14.36781 -2.362,1.78165 c -1.29909,0.97991 -10.48789,6.65023 -20.41955,12.6007 -9.93166,5.95048 -21.43256,12.91837 -25.55756,15.48421 -4.125,2.56585 -16.63478,10.18493 -27.79951,16.93129 -14.11788,8.53083 -20.13625,12.69156 -19.76339,13.66322 0.56972,1.48467 13.33959,19.05087 30.02574,41.30332 C 690.23221,307.69626 700,321.57674 700,322.86841 c 0,0.73182 -2.03138,1.06791 -5.75,0.95134 -5.68646,-0.17825 -5.69751,-0.18439 -1,-0.55479 z"
         id="path100" />
      <path
         style="fill:#000000;fill-opacity:1;stroke:none;stroke-opacity:1"
         d="M 774.13747,108.59344 763.77494,107.5 l 3.86253,-4.2574 3.86253,-4.2574 13.47125,2.28708 13.47125,2.28707 -5.7061,3.22033 c -3.13836,1.77117 -6.27542,3.14987 -6.97125,3.06376 -0.69583,-0.0861 -5.92829,-0.64861 -11.62768,-1.25 z"
         id="path97" />
      <path
         style="fill:#000000;fill-opacity:1;stroke:none;stroke-opacity:1"
         d="m 760.5625,324.81103 8.80492,-0.37732 1.83454,-16.9444 c 1.01209,-9.34797 4.87542,-50.98089 8.7541,-92.5 9.88476,-105.81101 9.59938,-103.15264 11.17523,-104.09826 0.75279,-0.45173 3.3097,-2.08989 5.63335,-3.66501 l 4.70215,-3.18743 -0.31586,4.49632 c -0.15116,2.15179 -3.84027,28.49007 -7.68955,58.46507 -6.17943,48.1202 -15.08754,102.3186 -20.20374,144 -0.9141,7.4471 -1.46337,13.97858 -1.93101,14.72254 -0.35755,0.58928 -4.52663,0.28617 -10.04538,0.33849 0,0 -9.67788,0.38038 -9.78125,-0.43897 -0.0743,-0.58901 9.0625,-0.81103 9.0625,-0.81103 z"
         id="path96"
         sodipodi:nodetypes="ccsssscssscssc" />
      <path
         style="fill:#000000;fill-opacity:1;stroke:none;stroke-opacity:1"
         d="m 749.41151,315.25 c 0.37645,-5.9125 1.75501,-27.4 3.06346,-47.75 1.30846,-20.35 2.88808,-46.45 3.51026,-58 0.62218,-11.55 2.00504,-35.07923 3.07301,-52.28718 1.06797,-17.20794 1.97339,-34.30794 2.01205,-38 0.0386,-3.69205 0.47938,-7.61282 0.9794,-8.71282 0.58742,-1.29229 0.73418,1.18469 0.41476,7 -0.27189,4.95 -0.94679,18 -1.49976,29 -1.63683,32.56022 -4.87651,86.98222 -7.97228,133.92288 -1.59322,24.15758 -2.66672,44.29508 -2.38556,44.75 0.28115,0.45492 -0.0268,0.82712 -0.6843,0.82712 -0.89562,0 -1.02381,-2.69642 -0.51104,-10.75 z"
         id="path95" />
      <path
         style="fill:#000000;fill-opacity:1;stroke:none;stroke-opacity:1"
         d="m 526.62238,334.23469 c 0.63539,-0.41592 1.85146,-8.1107 2.80275,-17.73469 0.9242,-9.35 3.67083,-35 6.1036,-57 2.43278,-22 6.91409,-63.4 9.95846,-92 3.04438,-28.6 5.80398,-54.06829 6.13245,-56.59621 l 0.59722,-4.59621 -6.25512,-0.65379 C 542.52142,105.29421 537.09919,105 533.91233,105 c -3.18686,0 -6.05563,-0.42285 -6.37505,-0.93967 -0.54165,-0.87641 24.37183,-0.30277 25.38734,0.58455 0.23353,0.20406 -0.81411,12.40494 -2.3281,27.11307 -2.40246,23.33946 -4.87789,46.05751 -13.64674,125.24205 -1.06587,9.625 -3.06051,28.3 -4.43253,41.5 -1.37202,13.2 -2.78879,26.8125 -3.14837,30.25 -0.50352,4.81344 -1.02329,6.24648 -2.26134,6.23469 -1.03865,-0.01 -1.21035,-0.27531 -0.48516,-0.75 z"
         id="path92" />
      <path
         style="fill:#000000;fill-opacity:1;stroke:none;stroke-opacity:1"
         d="m 502.33692,336.43563 c -0.58634,-1.52799 -0.10187,-8.50955 3.6734,-52.93563 3.94605,-46.43591 5.93789,-72.60494 7.49725,-98.5 0.87769,-14.575 2.24754,-36.60182 3.04411,-48.94849 0.79658,-12.34667 1.45117,-23.59667 1.45464,-25 0.004,-1.80865 0.91735,-3.0701 3.13545,-4.33273 1.72101,-0.97968 3.36061,-1.54973 3.64355,-1.26679 0.28294,0.28293 -0.0127,5.80949 -0.65703,12.28122 -0.6443,6.47173 -2.51799,25.71679 -4.16376,42.76679 -1.64576,17.05 -4.76246,48.775 -6.92599,70.5 -2.16354,21.725 -5.08357,51.65 -6.48895,66.5 -1.40538,14.85 -2.83096,29.65484 -3.16797,32.89964 l -0.61273,5.89964 11.36556,-0.56756 c 11.32544,-0.56555 8.51042,0.37845 -4.92028,1.65 -5.11565,0.48432 -6.39593,0.30819 -6.87725,-0.94609 z"
         id="path91" />
      <path
         style="fill:#000000;fill-opacity:1;stroke:none;stroke-opacity:1"
         d="M 371.25,92.10224 C 370.5625,90.96093 370,89.64066 370,89.16831 c 0,-0.47236 4.6125,-1.39871 10.25,-2.05857 5.6375,-0.65985 11.61408,-1.4361 13.28128,-1.72499 2.68513,-0.46529 3.21922,-0.13117 4.67701,2.92584 l 1.64572,3.45112 -4.67701,0.57219 c -2.57235,0.31472 -8.727,0.85823 -13.677,1.20782 -8.39777,0.59309 -9.08364,0.49676 -10.25,-1.43948 z"
         id="path89" />
      <path
         style="display:inline;fill:#000000;fill-opacity:1;stroke:none;stroke-opacity:1"
         d="m 336.55,346.16332 c 0.5225,-0.46017 8.33764,-1.57031 17.36698,-2.46698 9.02934,-0.89667 16.72768,-1.98266 17.10743,-2.41332 0.37974,-0.43066 2.99448,-18.78302 5.81053,-40.78302 l 5.12008,-40 5.74506,-5 C 409.61873,236.42391 443.6714,206.4722 461,191.02758 c 11.275,-10.04917 23.7625,-21.01522 27.75,-24.36899 3.9875,-3.35377 7.24619,-6.33645 7.24153,-6.62818 C 495.98653,159.73869 474.88528,145.325 449.09912,128 423.31296,110.675 402.38381,96.32046 402.58991,96.10102 c 0.47053,-0.50099 92.04726,60.75687 93.56917,62.59066 1.43284,1.72646 0.40147,2.87231 -13.65908,15.17514 -6.05,5.29368 -17.00401,15.02674 -24.34225,21.62903 -7.33824,6.60228 -15.5758,13.90037 -18.30567,16.21797 -2.72988,2.31759 -10.45087,9.07624 -17.15775,15.01921 -6.70688,5.94297 -18.38183,16.12328 -25.94433,22.62292 -7.5625,6.49963 -13.75,12.40147 -13.75,13.1152 0,1.23563 -1.75405,14.73031 -7.62641,58.6734 -1.44386,10.8045 -2.92865,20.13552 -3.29953,20.73561 -0.37087,0.60009 -8.30176,1.99551 -17.62419,3.10093 -19.58463,2.32228 -19.16268,2.29441 -17.89987,1.18223 z"
         id="path83" />
      <path
         style="fill:#000000;fill-opacity:1;stroke:none;stroke-opacity:1"
         d="m 223.8125,92.31689 c 0.72187,-0.28888 1.58437,-0.25335 1.91667,0.079 0.33229,0.33229 -0.25834,0.56864 -1.3125,0.52522 -1.16495,-0.048 -1.4019,-0.28494 -0.60417,-0.60417 z"
         id="path80" />
      <path
         style="fill:#000000;fill-opacity:1;stroke:none;stroke-opacity:1"
         d="m 209,114.75334 c 0,-0.20058 1.61581,-4.37183 3.59069,-9.26945 C 215.88199,97.3216 219,91.4142 219,93.34076 c 0,1.48093 -8.26639,20.70584 -9.13362,21.24182 -0.47651,0.2945 -0.86638,0.37134 -0.86638,0.17076 z"
         id="path79" />
      <path
         style="fill:#000000;fill-opacity:1;stroke:none;stroke-opacity:1"
         d="m 307.08942,186.41678 c -0.0492,-0.59577 0.41768,-3.60826 1.03747,-6.69443 l 1.1269,-5.61122 -16.30626,-28.80557 C 283.97909,129.4625 273.37701,110.70252 269.38734,103.6167 265.39768,96.53089 261.76589,90.38138 261.3167,89.95112 260.86752,89.52087 254.65,89.79585 247.5,90.56219 c -12.9736,1.39051 -21.20514,1.80452 -20.41667,1.02686 0.22917,-0.22603 8.04699,-1.18549 17.37295,-2.13215 l 16.95627,-1.7212 1.54373,2.27491 c 6.12666,9.02857 47.03872,82.97191 47.02373,84.98939 -0.0193,2.60073 -2.73345,13.32048 -2.89059,11.41678 z"
         id="path78" />
      <path
         style="fill:#000000;fill-opacity:1;stroke:none;stroke-opacity:1"
         d="m 305.73121,189.91984 c 0.35361,-1.3522 0.8069,-1.8055 1.05655,-1.05655 0.24048,0.72144 -0.0382,1.78716 -0.61931,2.36826 -0.74207,0.74207 -0.87221,0.35164 -0.43724,-1.31171 z"
         id="path77" />
      <path
         style="fill:#000000;fill-opacity:1;stroke:none;stroke-opacity:1"
         d="m 205.60977,233.60104 -12.89024,-12.19767 25.76148,-51.45169 C 232.64981,141.65326 244.45778,118.275 244.72094,118 c 0.72339,-0.75596 7.35843,6.95774 19.35365,22.5 5.94272,7.7 16.46443,21.2 23.38158,30 15.08606,19.19248 17.41971,22.33937 15.50476,20.90797 -2.10572,-1.574 -40.23585,-32.73646 -48.11234,-39.32058 l -6.65141,-5.56005 -0.62466,-8.51367 c -1.03102,-14.05191 -1.70151,-18.28468 -2.733,-17.25319 -0.59618,0.59618 -0.55579,5.45403 0.10898,13.11001 l 1.05611,12.16287 -11.83304,17.73332 C 215.48442,191.77174 197,220.84745 197,222.23697 c 0,0.69955 4.9832,6.14922 11.07377,12.11037 6.09057,5.96115 10.92807,10.97636 10.75,11.14492 -0.17807,0.16855 -6.12437,-5.1825 -13.214,-11.89122 z"
         id="path74" />
      <path
         style="fill:#000000;fill-opacity:1;stroke:none;stroke-opacity:1"
         d="m 164.25,285.88495 c -3.40851,-2.18287 -4.51156,-3.64875 -1.5,-1.99341 2.29443,1.26116 5.88883,4.0407 5.25,4.05981 -0.275,0.008 -1.9625,-0.92165 -3.75,-2.0664 z"
         id="path73" />
      <path
         style="fill:#000000;fill-opacity:1;stroke:none;stroke-opacity:1"
         d="m 182.85167,297.70193 c -5.30658,-3.41106 -10.70658,-7.00243 -12,-7.98082 l -2.35167,-1.77888 2.5,1.18514 c 2.41645,1.14552 14.46381,8.51827 16.5,10.09767 8.42087,6.53176 7.32297,6.17201 -4.64833,-1.52311 z"
         id="path72" />
      <path
         style="fill:#000000;fill-opacity:1;stroke:none;stroke-opacity:1"
         d="m 207.79891,313.27925 c -7.53559,-4.79073 -13.538,-8.87349 -13.33868,-9.07281 0.48857,-0.48858 21.26822,12.18093 25.03977,15.26693 1.65,1.35009 2.775,2.46856 2.5,2.48549 -0.275,0.0169 -6.66549,-3.88889 -14.20109,-8.67961 z"
         id="path71" />
      <path
         style="fill:#000000;fill-opacity:1;stroke:none;stroke-opacity:1"
         d="m 226.75,324.93191 c -2.0625,-1.08883 -3.74311,-2.53144 -3.73469,-3.2058 0.01,-0.76388 0.29228,-0.84912 0.75,-0.22611 0.40408,0.55 2.20074,1.81504 3.99259,2.8112 3.1447,1.74827 3.28016,1.74827 3.89864,0 0.3524,-0.99616 1.69885,-4.47628 2.9921,-7.73361 1.29325,-3.25732 2.35136,-6.50325 2.35136,-7.21317 0,-0.70993 -17.32993,-18.81508 -38.51096,-40.23368 -35.15615,-35.55048 -38.43301,-39.1471 -37.61621,-41.28683 0.4921,-1.28915 8.96584,-21.24391 18.83053,-44.34391 9.86469,-23.1 20.35149,-47.728 23.304,-54.72889 6.04822,-14.34134 8.04297,-16.65946 2.66774,-3.10019 -4.38637,11.0648 -38.83834,92.01126 -42.13508,98.99827 l -2.43902,5.16919 4.1995,3.85143 c 2.30972,2.11828 14.47843,12.16715 27.04156,22.33081 12.56313,10.16366 28.31313,22.90697 35,28.31846 6.68687,5.4115 12.97045,10.42139 13.96352,11.13309 1.72333,1.23505 1.68917,1.5805 -0.75,7.58332 -1.40557,3.45913 -2.55558,6.6233 -2.55558,7.03148 0,1.58493 -6.21202,16.91056 -6.83754,16.86883 -0.36435,-0.0243 -2.34996,-0.93505 -4.41246,-2.02389 z"
         id="path70" />
      <path
         style="fill:#000000;fill-opacity:1;stroke:none;stroke-opacity:1"
         d="m 224.58339,352.52567 c 4.30926,-3.82265 7.8315,-5.08053 17.04418,-6.08692 3.37016,-0.36816 5.95339,-1.70499 6.50441,-2.05406 2.10225,-1.33181 25.08999,-46.80934 24.22867,-48.04273 C 271.88729,295.66413 259.9125,284.23815 245.75,270.9509 231.5875,257.66365 220,246.54426 220,246.24114 c 0,-1.21563 11.03006,8.77085 34.25,31.00954 10.8625,10.40347 19.75,19.55731 19.75,20.34188 0,1.85035 -19.26777,40.35754 -23.52047,47.00632 l -3.26135,5.09888 -12.58284,3.15112 C 227.71477,354.582 221.74071,356 221.35964,356 c -0.38107,0 1.06961,-1.56345 3.22375,-3.47433 z"
         id="path69"
         sodipodi:nodetypes="ssssssssscsss" />
      <path
         style="fill:#000000;fill-opacity:1;stroke:none;stroke-opacity:1"
         d="m 193.4375,337.73549 c -11.825,-10.17654 -26.58925,-23.1574 -33.15847,-28.81894 l -12.0221,-10.36098 -0.0387,-11.85512 C 148.19726,280.26337 148.20726,275 148.53809,275 c 0.33086,0 2.56372,1.35 4.96191,3 2.39819,1.65 4.84177,3 5.43018,3 0.5884,0 1.06982,0.4867 1.06982,1.08156 0,0.95795 -5.94366,-2.02555 -8.45,-4.2416 -2.1397,-1.89186 -2.54941,-0.37223 -2.53708,9.41004 l 0.38855,10.07322 6.72886,4.67543 c 3.88078,2.69649 17.58216,10.72036 29.68216,18.45894 12.1,7.73858 26.11368,17.31774 31.52345,20.82869 l 9.83595,6.38356 -4.97473,4.16508 c -2.7361,2.29079 -5.73728,5.13432 -6.21095,5.09673 -0.47366,-0.0376 -10.72371,-9.01961 -22.54871,-19.19616 z"
         id="path68"
         sodipodi:nodetypes="sscssssssscssscsss" />
      <path
         style="fill:#000000;fill-opacity:1;stroke:none;stroke-opacity:1"
         d="m 778.23051,427.72847 c -3.99822,-1.11255 -7.09164,-2.20067 -6.87427,-2.41804 0.58085,-0.58086 13.98052,2.81688 15.09376,3.82731 1.26224,1.14566 0.48056,1.01164 -8.21949,-1.40927 z"
         id="path65" />
      <path
         style="fill:#000000;fill-opacity:1;stroke:none;stroke-opacity:1"
         d="m 751,447.61598 c 0,-2.09128 1.44962,-3.00619 11.80494,-7.45059 15.05675,-6.46221 17.95243,-7.55146 16.69506,-6.28004 C 778.13361,435.26699 752.8155,450 751.80758,450 751.36341,450 751,448.92719 751,447.61598 Z"
         id="path64" />
      <path
         style="fill:#000000;fill-opacity:1;stroke:none;stroke-opacity:1"
         d="M 734.5,437.78697 C 712.2515,417.06078 702,407.21624 702,406.57716 c 0,-0.79334 1.00716,-0.55112 29.5,7.09465 30.69422,8.23649 38.62886,10.53266 38.12785,11.03367 -0.30171,0.30171 -48.86918,-12.58852 -61.87785,-16.42292 -0.9625,-0.2837 -1.75,-0.0322 -1.75,0.55895 0,0.97206 18.98716,17.2603 36.25,31.09727 4.84706,3.88514 6.75,6.066 6.75,7.73583 0,1.27896 -0.3375,2.30232 -0.75,2.27413 -0.4125,-0.0282 -6.6,-5.50099 -13.75,-12.16177 z"
         id="path63" />
      <path
         style="fill:#000000;fill-opacity:1;stroke:none;stroke-opacity:1"
         d="M 726.4997,444.11465 C 719.34987,437.5777 710.575,429.19627 707,425.48925 l -6.5,-6.74004 3.44552,0.6395 c 9.27958,1.72232 10.5951,2.56656 25.57335,16.4119 19.41132,17.94308 18.51306,16.74138 13.94165,18.65144 -2.03762,0.85137 -3.76245,1.54795 -3.83294,1.54795 -0.0705,0 -5.97804,-5.34841 -13.12788,-11.88535 z"
         id="path62" />
      <path
         style="fill:#000000;fill-opacity:1;stroke:none;stroke-opacity:1"
         d="m 1087.6215,577.89313 c -0.234,-0.76622 -1.2026,-15.11813 -2.1522,-31.89313 -3.6863,-65.11267 -6.294,-100.84862 -6.911,-101.46568 -0.354,-0.35394 -4.3563,-1.04045 -9.2183,-1.47158 l -8.84,-0.78387 7.6849,-0.13944 c 13.0325,-0.23646 12.2724,-1.34815 13.6893,20.02084 0.6688,10.08685 2.0808,32.96473 3.1376,50.83973 2.472,41.80711 3.0317,48.35767 4.0448,47.33812 0.9777,-0.98388 3.4182,-11.70516 8.8829,-39.02269 2.1802,-10.89848 5.5846,-27.68689 7.5654,-37.30756 l 3.6015,-17.49214 7.6511,-11.72024 c 4.2081,-6.44614 7.7136,-11.5858 7.856,-11.50787 0.8098,0.44322 -4.0182,18.63915 -11.143,45.30077 -2.6456,9.9 -6.2732,23.53661 -8.0613,30.41161 -4.7139,18.12372 -16.5762,59.43256 -17.0002,59.89313 -0.1991,0.21622 -0.5534,-0.23378 -0.7875,-1 z"
         id="path60"
         sodipodi:nodetypes="scsscsscssscssssss" />
      <path
         style="fill:#000000;fill-opacity:1;stroke:none;stroke-width:0.5;stroke-dasharray:none;stroke-opacity:1"
         d="m 1072.3748,618.31373 c -2.6528,-1.3228 -3.2102,-2.2579 -3.6875,-6.18605 -0.3093,-2.54522 -2.1433,-16.32768 -4.0755,-30.62768 -1.9322,-14.3 -4.4407,-33.2 -5.5745,-42 -1.1337,-8.8 -4.1197,-30.72947 -6.6355,-48.73216 l -5.193,-32.73217 4.2391,-7.533 c 2.6089,-4.63618 4.8412,-8.5832 5.0584,-5.69617 0.2269,3.01562 7.3132,68.38157 10.7361,95.1935 1.65,12.925 4.4242,34.975 6.0886,49 1.6643,14.025 3.3688,27.175 3.635,28.6875 0.5512,3.13201 -0.2739,2.77904 -4.5912,0.62623 z"
         id="path59"
         sodipodi:nodetypes="ssssscssssss" />
      <path
         style="fill:#000000;fill-opacity:1;stroke:none;stroke-width:0.5;stroke-dasharray:none;stroke-opacity:1"
         d="m 1064,683.49557 c 0.825,-0.24298 5.5514,-1.64987 10.3951,-2.15416 4.8436,-0.50429 8.4892,-1.06759 8.7355,-1.31393 0.4587,-0.45871 2.3885,-7.8673 12.8629,-44.62123 3.2917,-11.55 8.8913,-31.29642 12.4622,-43.67142 5.0837,-17.61733 30.75,-107.09959 40.0225,-141.01208 0.8688,-3.17748 1.2093,-5.9509 0.9398,-6.22043 -0.2696,-0.26953 -2.774,-0.92427 -6.0186,-1.39768 0,0 -6.0115,-0.2099 -5.8994,-0.86076 0.1032,-0.59905 6.1303,-0.65115 6.1303,-0.65115 4.0388,0.0676 7.1216,0.6783 7.7556,1.45951 1.0079,1.24211 -1.1426,7.64535 -13.781,53.44776 -12.3011,44.58002 -45.7157,162.53119 -50.6658,178.6463 -1.8552,6.0395 -1.1796,6.48392 -5.1851,7.28801 -3.6472,0.73216 -19.9932,1.72075 -17.754,1.06126 z"
         id="path58"
         sodipodi:nodetypes="sssssssssssssss" />
      <path
         style="fill:#000000;fill-opacity:1;stroke:none;stroke-width:0.5;stroke-dasharray:none;stroke-opacity:1"
         d="m 1058.3026,683.3463 c -0.631,-1.64457 10.4063,-61.23014 11.5817,-62.52414 0.3386,-0.37281 2.055,-0.25791 3.8459,0.35462 l 3.8123,1.30391 -2.6071,9.1561 c -5.4517,19.14671 -8.1579,29.18652 -11.5756,40.25548 -2.8214,9.13808 -3.2545,11.55896 -2.1886,12.23469 1.0086,0.63941 0.8995,0.8461 -0.4526,0.85773 -0.9797,0.008 -2.0669,-0.72885 -2.416,-1.63839 z"
         id="path57"
         sodipodi:nodetypes="ssscssscs" />
      <path
         style="fill:#000000;fill-opacity:1;stroke:none;stroke-width:0.5;stroke-dasharray:none;stroke-opacity:1"
         d="m 1026.8281,449.28319 c 0,-0.56759 -4.6306,-1.15548 -10.6093,-1.80078 l -10.7188,-1.15688 10.7814,-0.16277 c 8.8969,-0.13431 11.0099,0.0288 11.4985,1.30225 0.3257,0.84872 0.2647,1.94871 -0.078,2.29165 -0.3429,0.34295 -0.811,0.46192 -0.811,-0.0985 z"
         id="path55"
         sodipodi:nodetypes="cscssscc" />
      <path
         style="fill:#000000;fill-opacity:1;stroke:none;stroke-width:0.5;stroke-dasharray:none;stroke-opacity:1"
         d="m 972.07895,590.41667 c 0.048,-1.16495 0.28494,-1.4019 0.60416,-0.60417 0.28887,0.72187 0.25335,1.58438 -0.0789,1.91667 -0.33229,0.33229 -0.56864,-0.25834 -0.52522,-1.3125 z"
         id="path54" />
      <path
         style="fill:#000000;fill-opacity:1;stroke:none;stroke-width:0.5;stroke-dasharray:none;stroke-opacity:1"
         d="m 973.07895,594.41667 c 0.048,-1.16495 0.28494,-1.4019 0.60416,-0.60417 0.28887,0.72187 0.25335,1.58438 -0.0789,1.91667 -0.33229,0.33229 -0.56864,-0.25834 -0.52522,-1.3125 z"
         id="path53" />
      <path
         style="fill:#000000;fill-opacity:1;stroke:none;stroke-width:0.5;stroke-dasharray:none;stroke-opacity:1"
         d="m 978.74986,616 c -0.31301,-0.825 -1.30435,-4.65 -2.20299,-8.5 -0.89863,-3.85 -1.86878,-7.9 -2.15588,-9 -0.38095,-1.45957 -0.26787,-1.63338 0.4185,-0.64324 2.16533,3.12367 2.98746,-2.2021 4.22302,-27.35676 2.94232,-59.90239 3.94273,-82.79169 3.95547,-90.5 l 0.014,-8.5 10.69773,-12.21793 c 5.88375,-6.71986 10.80209,-12.11364 10.92949,-11.98619 0.3759,0.37593 -11.13047,79.05958 -17.57818,120.20412 -3.27522,20.9 -6.3548,40.7 -6.84352,44 -0.48872,3.3 -1.14468,5.325 -1.45768,4.5 z"
         id="path52" />
      <path
         style="fill:#000000;fill-opacity:1;stroke:none;stroke-width:0.5;stroke-dasharray:none;stroke-opacity:1"
         d="m 966.25116,664.75 c -10.72043,-30.28072 -38.88414,-107.38394 -41.90225,-114.71495 -0.78457,-1.90573 -1.89712,-3.75583 -2.47235,-4.11134 -0.71158,-0.43978 -0.38402,-5.37406 1.02482,-15.43774 1.13887,-8.13524 2.26087,-14.98156 2.49334,-15.21402 0.23247,-0.23247 0.67128,0.39874 0.97514,1.40269 1.68966,5.58255 12.19833,42.672 17.09218,60.32536 3.12565,11.275 7.42172,26.575 9.54683,34 2.12512,7.425 6.13973,22.275 8.92136,33 2.78164,10.725 5.33776,20.5125 5.68028,21.75 0.94713,3.42197 -0.0548,2.68494 -1.35935,-1 z"
         id="path51" />
      <path
         style="fill:#000000;fill-opacity:1;stroke:none;stroke-width:0.5;stroke-dasharray:none;stroke-opacity:1"
         d="m 981.17751,677.56712 c 9.07119,-0.95075 9.48955,-0.0625 9.93925,-2.13446 0.26427,-1.21765 4.26521,-25.49516 8.69994,-54.37016 4.4348,-28.875 9.3625,-59.5375 10.7214,-68.0625 1.3588,-8.525 5.2532,-34.6875 8.8451,-58.0625 6.2522,-40.68743 7.0955,-46.43589 7.6629,-43.17485 0.6214,1.93195 -6.7279,49.32308 -11.3892,78.7061 -4.3359,27.33209 -15.2963,97.3664 -19.40783,124.09375 -1.69218,11 -3.47536,20.95 -4.00081,22.1875 -0.9073,2.13677 -1.78436,3.27787 -11.03932,2.57196 L 971.5,678.58142 Z"
         id="path50"
         sodipodi:nodetypes="ssssscsssscs" />
      <path
         style="fill:#000000;fill-opacity:1;stroke:none;stroke-width:0.5;stroke-dasharray:none;stroke-opacity:1"
         d="m 875.34492,677.75 c 0.84458,-13.37934 3.18416,-62.89658 5.1382,-108.75 0.8555,-20.075 1.99677,-44.56689 2.53616,-54.42642 0.5394,-9.85953 0.97493,-21.78453 0.96785,-26.5 l -0.0129,-8.57358 10.24146,-20.25 10.24146,-20.25 6.52141,0.008 c 8.4882,0.01 23.13461,1.7056 24.23485,2.80584 0.96543,0.96543 2.41449,6.48562 13.30526,50.68657 4.20099,17.05 11.20287,45.28899 15.55973,62.75332 7.82103,31.35027 9.37156,38.48905 6.02651,27.74668 -1.34397,-4.31607 -30.61122,-121.42531 -34.26681,-137.11435 -0.96861,-4.15709 -1.4077,-4.27749 -19.97727,-5.47804 l -10.48243,-0.67771 -2.26888,20.88505 C 899.8918,490.23421 890.70493,565.21514 886.03169,600 c -7.3249,54.52225 -10.13943,84.78809 -9.03328,85.89425 0.78713,0.78712 21.46514,-2.36941 22.33268,-3.39001 0.39645,-0.46639 4.93376,-27.61674 9.73916,-61.44174 4.8054,-33.825 9.42656,-63.1375 9.88731,-65.0625 1.39404,-5.82431 1.12578,-0.12389 -0.49413,10.5 -1.96324,12.87558 -4.10869,27.87955 -11.01037,77 -3.09111,22 -5.92617,40.32107 -6.30012,40.71349 C 900.40109,685.00246 881.5622,688 877.35552,688 h -2.65764 z"
         id="path49"
         sodipodi:nodetypes="ssssccccsssssscsssssssssscs" />
      <path
         style="fill:#000000;fill-opacity:1;stroke:none;stroke-width:0.5;stroke-dasharray:none;stroke-opacity:1"
         d="m 857.67453,471.5 c 0.37798,-3.85 0.71834,-9.025 0.75635,-11.5 L 858.5,455.5 840,453.51239 c -10.175,-1.09318 -17.38194,-2.15081 -16.01543,-2.35029 3.47511,-0.50727 34.27931,2.90681 35.59277,3.9448 0.76674,0.60594 0.69559,3.80979 -0.24681,11.11268 -1.54073,11.93963 -2.66025,15.5094 -1.656,5.28042 z"
         id="path47" />
      <path
         style="fill:#000000;fill-opacity:1;stroke:none;stroke-width:0.5;stroke-dasharray:none;stroke-opacity:1"
         d="m 830.12001,680.5 c -0.0545,-1.1 2.38376,-20.225 5.4184,-42.5 3.03463,-22.275 6.62823,-49.275 7.98577,-60 1.35755,-10.725 3.36346,-25.8 4.45759,-33.5 1.09414,-7.7 3.17087,-23.45 4.61496,-35 1.44409,-11.55 3.00686,-23.25 3.47282,-26 2.04234,-12.05343 -0.25028,11.27679 -3.53765,36 -1.90143,14.3 -4.85844,37.025 -6.57115,50.5 -1.7127,13.475 -4.21195,32.15 -5.55388,41.5 -1.34194,9.35 -3.78144,27.125 -5.42112,39.5 -3.0678,23.15327 -4.6922,33.00168 -4.86574,29.5 z"
         id="path46" />
      <path
         style="fill:#000000;fill-opacity:1;stroke:none;stroke-width:0.5;stroke-dasharray:none;stroke-opacity:1"
         d="m 825.66031,685.93763 c 1.1,-0.62377 2.97143,-1.68887 3.57438,-2.35217 0.60701,-0.66777 0.97147,-0.79544 0.98202,0.041 0.008,0.66815 -0.21183,0.76534 -2.15097,2.33839 -2.76272,2.24114 -4.91194,1.39417 -2.40543,-0.0272 z"
         id="path45"
         sodipodi:nodetypes="sscss" />
      <path
         style="fill:#000000;fill-opacity:1;stroke:none;stroke-width:0.5;stroke-dasharray:none;stroke-opacity:1"
         d="m 814.55,691.13648 c 1.12378,-1.02148 7.46093,-3.62045 7.45,-2.59788 -0.0115,1.07763 -6.80342,3.4614 -7.82212,3.4614 -0.31784,0 -0.15038,-0.38858 0.37212,-0.86352 z"
         id="path44"
         sodipodi:nodetypes="ssss" />
      <path
         style="fill:#000000;fill-opacity:1;stroke:none;stroke-width:0.5;stroke-dasharray:none;stroke-opacity:1"
         d="m 802.67648,681.5 c 1.31962,-44.51615 2.3281,-111.43182 2.32599,-154.33548 L 805,476.82903 l 4.98569,-9.66451 c 6.01947,-11.66844 8.73112,-16.16437 9.74961,-16.16496 0.90249,-5.3e-4 0.009,19.57106 -2.16945,47.50044 -0.85783,11 -3.13928,41.825 -5.06988,68.5 -1.93061,26.675 -3.94983,53 -4.48716,58.5 -1.78412,18.26192 -3.6536,48.01428 -3.77357,55.12263 -0.0651,3.85547 -0.79646,8.22737 -1.19317,9.87737 -0.39672,1.65 -0.56123,-2.4 -0.36559,-9 z"
         id="path43"
         sodipodi:nodetypes="sscssssssss" />
      <path
         style="fill:#000000;fill-opacity:1;stroke:none;stroke-width:0.5;stroke-dasharray:none;stroke-opacity:1"
         d="m 808.77903,693.14645 c 1.375,-0.78602 3.30355,-1.6501 3.85355,-1.6501 0.55,0 -0.25758,1.21763 -1.63258,2.00365 -1.375,0.78602 -2.95,1.42913 -3.5,1.42913 -0.55,0 -0.096,-0.99666 1.27903,-1.78268 z"
         id="path42"
         sodipodi:nodetypes="sssss" />
      <path
         style="fill:#000000;fill-opacity:1;stroke:none;stroke-width:0.5;stroke-dasharray:none;stroke-opacity:1"
         d="m 727,465.5 c -1.375,-0.78602 -2.02351,-1.44508 -1.44113,-1.46456 0.58238,-0.0195 1.93238,0.62525 3,1.43276 2.46898,1.86744 1.68038,1.88353 -1.55887,0.0318 z"
         id="path40" />
      <path
         style="fill:#000000;fill-opacity:1;stroke:none;stroke-width:0.5;stroke-dasharray:none;stroke-opacity:1"
         d="m 736.5,470.41176 c -3.3,-1.84554 -5.64967,-3.36818 -5.22148,-3.38364 1.08802,-0.0393 12.72148,5.89223 12.72148,6.48628 0,0.88276 -1.43589,0.28875 -7.5,-3.10264 z"
         id="path39" />
      <path
         style="fill:#000000;fill-opacity:1;stroke:none;stroke-width:0.5;stroke-dasharray:none;stroke-opacity:1"
         d="m 756.76493,480.79172 c -6.45429,-3.3852 -11.56087,-6.32911 -11.34796,-6.54202 C 745.86169,473.80498 770,485.89238 770,486.5598 c 0,0.99319 -2.03439,0.10656 -13.23507,-5.76808 z"
         id="path38" />
      <path
         style="fill:#000000;fill-opacity:1;stroke:none;stroke-width:0.5;stroke-dasharray:none;stroke-opacity:1"
         d="m 771.37991,491.7561 c 0.11375,-4.49325 0.82906,-5.84503 2.04871,-3.87159 0.30066,0.48647 -0.0643,2.62397 -0.81107,4.75 L 771.25983,496.5 Z"
         id="path37" />
      <path
         style="fill:#000000;fill-opacity:1;stroke:none;stroke-width:0.5;stroke-dasharray:none;stroke-opacity:1"
         d="m 770.07895,498.41667 c 0.048,-1.16495 0.28494,-1.4019 0.60416,-0.60417 0.28887,0.72187 0.25335,1.58438 -0.0789,1.91667 -0.33229,0.33229 -0.56864,-0.25834 -0.52522,-1.3125 z"
         id="path36" />
      <path
         style="fill:#000000;fill-opacity:1;stroke:none;stroke-width:0.5;stroke-dasharray:none;stroke-opacity:1"
         d="m 745.07895,653.41667 c 0.048,-1.16495 0.28494,-1.4019 0.60416,-0.60417 0.28887,0.72187 0.25335,1.58438 -0.0789,1.91667 -0.33229,0.33229 -0.56864,-0.25834 -0.52522,-1.3125 z"
         id="path34" />
      <path
         style="fill:#000000;fill-opacity:1;stroke:none;stroke-width:0.5;stroke-dasharray:none;stroke-opacity:1"
         d="m 661.99283,661.85699 c -0.004,-0.74635 1.34617,-9.00699 3.00025,-18.35699 7.1684,-40.52091 22.13264,-129.33887 26.00962,-154.37623 1.05404,-6.80693 2.15325,-12.61305 2.44268,-12.90249 0.28944,-0.28943 4.69513,1.32981 9.79044,3.59833 5.0953,2.26852 20.73918,9.11488 34.76418,15.21414 14.025,6.09926 25.86193,11.44624 26.30428,11.88219 0.44235,0.43594 -1.55882,1.07249 -4.44705,1.41456 -5.1994,0.6158 -5.47433,0.50608 -27.80428,-11.09532 -33.65574,-17.48566 -35.78874,-18.51651 -36.8968,-17.83169 -1.26711,0.78312 -2.4979,6.65965 -5.67512,27.09651 -1.3681,8.8 -4.2449,26.125 -6.39289,38.5 C 675.01508,591.5104 664,657.48187 664,659.32259 c 0,1.50744 0.47485,1.77344 2.25,1.26042 1.2375,-0.35764 10.125,-2.40606 19.75,-4.55205 9.625,-2.14599 26.21088,-5.95586 36.85752,-8.46638 24.55267,-5.78962 24.19075,-5.78487 23.97438,-0.31458 l -0.16811,4.25 -0.39226,-3.75 c -0.44618,-4.26547 -0.70496,-4.33309 -8.94076,-2.33636 -31.70559,7.68688 -57.09274,13.55565 -67.33077,15.56492 -2.475,0.48573 -5.2875,1.18741 -6.25,1.55928 -1.13801,0.43969 -1.75251,0.20159 -1.75717,-0.68085 z"
         id="path33" />
      <path
         style="fill:#000000;fill-opacity:1;stroke:none;stroke-width:0.5;stroke-dasharray:none;stroke-opacity:1"
         d="m 645.13879,700.67411 c -0.12438,-2.33392 8.45127,-5.51188 18.27135,-9.18344 9.82007,-3.67157 29.57357,-11.19153 42.0285,-16.16321 12.45492,-4.97167 26.73513,-9.55295 30.99613,-11.10814 8.68258,-3.16899 8.66921,-2.01939 1.8688,5.4691 -3.71625,4.09227 -4.35455,4.35293 -27.80357,11.35374 -13.2,3.94092 -32.50318,9.81862 -42.89595,13.06157 -17.31927,5.40428 -22.38222,8.12862 -22.46526,6.57038 z"
         id="path31"
         sodipodi:nodetypes="ssssssss" />
      <path
         style="fill:#000000;fill-opacity:1;stroke:none;stroke-width:0.5;stroke-dasharray:none;stroke-opacity:1"
         d="m 630.5,702.5308 c -2.2,-0.65231 -3.9268,-1.60109 -3.83734,-2.1084 3.41066,-19.34044 14.26174,-83.90251 16.8782,-100.4224 1.95998,-12.375 5.10927,-31.5 6.99843,-42.5 2.76435,-16.09597 15.08658,-95.29452 18.00914,-115.75 0.46614,-3.26257 1.15006,-4.75 2.18405,-4.75 1.63495,0 47.1291,22.58094 48.76752,24.20568 0.55,0.5454 -9.97129,-4.48397 -23.38064,-11.17638 -13.40935,-6.69242 -24.73634,-11.79931 -25.17109,-11.34866 -0.43475,0.45065 -1.51417,6.89436 -2.39871,14.31936 -0.88455,7.425 -3.15643,24.975 -5.04862,39 -1.8922,14.025 -4.81647,36.3 -6.49837,49.5 -4.36987,34.29572 -10.54848,81.04443 -14.47223,109.5 -1.85807,13.475 -4.15289,30.35 -5.09959,37.5 -0.9467,7.15 -1.9934,13.49878 -2.32601,14.1084 -0.43983,0.80614 -1.69553,0.78498 -4.60474,-0.0776 z"
         id="path30" />
      <path
         style="fill:#000000;fill-opacity:1;stroke:none;stroke-width:0.5;stroke-dasharray:none;stroke-opacity:1"
         d="m 574.19495,441.5 c 0.0204,-1.65 0.2445,-2.20394 0.49804,-1.23097 0.25354,0.97297 0.23687,2.32297 -0.0371,3 -0.27393,0.67703 -0.48137,-0.11903 -0.46099,-1.76903 z"
         id="path28" />
      <path
         style="fill:#000000;fill-opacity:1;stroke:none;stroke-width:0.5;stroke-dasharray:none;stroke-opacity:1"
         d="m 489.5,578.40172 c -1.1,-0.84626 -2.649,-1.91164 -3.44221,-2.36751 -1.14908,-0.66038 0.0961,-3.23795 6.12636,-12.68153 4.16272,-6.51897 12.49206,-19.72768 18.50965,-29.35268 6.01759,-9.625 16.34243,-26.05 22.94409,-36.5 6.60166,-10.45 17.74495,-28.5625 24.76286,-40.25 7.01791,-11.6875 12.95785,-21.25 13.19987,-21.25 0.76652,0 -1.14896,3.55682 -29.08092,54 -5.93877,10.725 -14.38063,26.025 -18.7597,34 -4.37907,7.975 -9.18457,16.525 -10.6789,19 -1.49433,2.475 -6.04343,10.68616 -10.1091,18.24703 -4.06567,7.56086 -8.3101,14.85994 -9.43206,16.22018 -1.88319,2.28312 -2.19362,2.35493 -4.03994,0.93451 z"
         id="path23" />
      <path
         style="fill:#000000;fill-opacity:1;stroke:none;stroke-width:0.5;stroke-dasharray:none;stroke-opacity:1"
         d="m 510.07895,588.49507 c -0.0434,-1.10271 2.67164,-6.72771 6.03348,-12.5 3.36184,-5.77229 14.22467,-24.67007 24.13963,-41.99507 22.59376,-39.47941 20.81529,-36.63104 21.7873,-34.89415 1.08794,1.94405 14.27491,69.94396 13.67176,70.49981 -0.11612,0.107 -1.92263,-1.29143 -4.01446,-3.10764 l -3.09624,-5.11416 -2.63859,-16.28465 c -4.90918,-30.29813 -4.48402,-39.31601 -5.92509,-40.25747 -0.55899,-0.36519 -1.52683,1.73264 -20.76168,35.12793 -18.14224,31.49831 -27.91615,47.40698 -28.54037,49.03033 -0.41897,1.08956 -0.5984,0.9514 -0.65574,-0.50493 z"
         id="path22"
         sodipodi:nodetypes="sssssscsssss" />
      <path
         style="fill:#000000;fill-opacity:1;stroke:none;stroke-width:0.5;stroke-dasharray:none;stroke-opacity:1"
         d="m 586.72226,510.37543 c -8.83975,-45.48069 -11.96844,-63.13688 -11.45883,-64.66572 0.19445,-0.58335 0.93014,2.28081 1.63485,6.36482 1.58463,9.18328 5.31772,28.78912 12.61215,66.23783 3.08671,15.8468 5.47136,29.54367 5.29923,30.43749 -0.17214,0.89382 -3.81146,-16.37467 -8.0874,-38.37442 z"
         id="path27" />
      <path
         style="fill:#000000;fill-opacity:1;stroke:none;stroke-width:0.5;stroke-dasharray:none;stroke-opacity:1"
         d="m 595.6,555.9 c -0.36648,-2.29185 -0.47108,-4.36225 -0.23245,-4.60089 0.23864,-0.23863 0.74824,1.42677 1.13245,3.70089 0.38421,2.27412 0.48881,4.34452 0.23245,4.60089 -0.25637,0.25636 -0.76597,-1.40904 -1.13245,-3.70089 z"
         id="path26" />
      <path
         style="fill:#000000;fill-opacity:1;stroke:none;stroke-width:0.5;stroke-dasharray:none;stroke-opacity:1"
         d="m 597.15789,563 c 0,-1.375 0.22698,-1.9375 0.50439,-1.25 0.27741,0.6875 0.27741,1.8125 0,2.5 -0.27741,0.6875 -0.50439,0.125 -0.50439,-1.25 z"
         id="path25" />
      <path
         style="fill:#000000;fill-opacity:1;stroke:none;stroke-width:0.5;stroke-dasharray:none;stroke-opacity:1"
         d="m 598.54545,571.45455 c -0.38251,-2.55082 -0.49094,-4.8424 -0.24094,-5.0924 0.25,-0.25 0.76752,1.63249 1.15004,4.1833 0.38251,2.55082 0.49094,4.8424 0.24094,5.0924 -0.25,0.25 -0.76752,-1.63249 -1.15004,-4.1833 z"
         id="path24" />
      <path
         style="fill:#000000;fill-opacity:1;stroke:none;stroke-width:0.5;stroke-dasharray:none;stroke-opacity:1"
         d="m 511.5,596 c -0.38421,-2.27412 -0.47356,-4.35977 -0.19856,-4.63477 0.275,-0.275 0.81435,1.36065 1.19856,3.63477 0.38421,2.27412 0.47356,4.35977 0.19856,4.63477 -0.275,0.275 -0.81435,-1.36065 -1.19856,-3.63477 z"
         id="path21" />
      <path
         style="fill:#000000;fill-opacity:1;stroke:none;stroke-width:0.5;stroke-dasharray:none;stroke-opacity:1"
         d="m 526.60216,668.25873 c -0.30832,-1.5173 -3.5175,-16.86603 -7.13152,-34.10828 -3.61402,-17.24225 -6.42276,-31.7941 -6.24164,-32.33745 0.37228,-1.11684 2.6508,8.84722 9.30407,40.687 2.52843,12.1 5.00112,22.41078 5.49487,22.91284 0.53592,0.54493 1.29241,-0.76113 1.96956,-2.5 2.72228,-6.99055 13.28383,-35.82199 17.64153,-47.72534 8.28707,-22.6367 17.24999,-46.36419 18.30949,-48.34388 0.94736,-1.77017 1.56838,-0.75274 5.6476,3.25072 2.42214,2.37714 4.40388,4.73998 4.40388,5.25076 0,0.88205 -9.08293,19.22034 -35.3416,71.35408 -6.42671,12.75955 -12.09235,23.45098 -12.5903,23.75873 -0.49794,0.30775 -1.15762,-0.68188 -1.46594,-2.19918 z"
         id="path19"
         sodipodi:nodetypes="sssssssssssss" />
      <path
         style="fill:#000000;fill-opacity:1;stroke:none;stroke-width:0.5;stroke-dasharray:none;stroke-opacity:1"
         d="m 522.11596,715.75 c 1.18614,-2.3375 7.1285,-13.025 13.20525,-23.75 6.07675,-10.725 22.55292,-40.02873 36.61371,-65.1194 14.0608,-25.09066 26.34471,-46.69066 27.29758,-48 l 1.7325,-2.3806 -0.86871,2.5 c -0.47779,1.375 -4.45323,8.8 -8.83431,16.5 -4.38108,7.7 -13.36669,23.675 -19.96802,35.5 -9.86001,17.66229 -37.87831,67.19167 -47.94228,84.75 -1.33979,2.3375 -2.65116,4.25 -2.91416,4.25 -0.26299,0 0.49231,-1.9125 1.67844,-4.25 z"
         id="path18" />
      <path
         style="fill:#000000;fill-opacity:1;stroke:none;stroke-width:0.5;stroke-dasharray:none;stroke-opacity:1"
         d="m 516.58542,723.81338 c -0.44121,-1.44702 -24.0517,-108.10507 -28.80607,-130.12853 -1.6403,-7.59834 -2.70433,-14.0932 -2.3645,-14.43304 1.4467,-1.4467 6.08535,3.57739 6.78344,7.3471 0.39733,2.1456 4.12325,23.02609 8.27983,46.40109 9.8281,55.26947 16.54314,89.34407 17.76085,90.125 0.609,0.39056 0.55676,0.88321 -0.13927,1.31338 -0.6126,0.37861 -1.29403,0.0974 -1.51428,-0.625 z"
         id="path17" />
      <path
         style="fill:#000000;fill-opacity:1;stroke:none;stroke-width:0.5;stroke-dasharray:none;stroke-opacity:1"
         d="m 488.60354,451.27021 c -0.40138,-0.40139 -5.76388,-0.65969 -11.91666,-0.57401 -8.6792,0.12086 -10.17815,-0.0352 -6.68688,-0.69609 6.5149,-1.23329 18.76358,-1.19166 19.54112,0.0664 0.801,1.29604 0.0802,2.22144 -0.93758,1.20368 z"
         id="path15"
         inkscape:label="path15" />
      <path
         style="fill:#000000;fill-opacity:1;stroke:none;stroke-width:0.5;stroke-dasharray:none;stroke-opacity:1"
         d="M 407.68805,733.82322 C 407.37701,732.54545 406.42613,726.775 405.57498,721 c -5.35582,-36.33875 -9.17314,-59.34425 -22.15174,-133.5 -5.89162,-33.66288 -17.78339,-99.17403 -20.33056,-112 l -1.98595,-10 6.19663,-5.71675 6.19664,-5.71675 18.19098,-0.0333 c 11.16095,-0.0204 18.43133,0.35563 18.81289,0.97301 0.55574,0.89921 1.80653,31.67595 5.50665,135.49552 0.6273,17.60097 1.49084,33.57597 1.91897,35.5 0.73535,3.30465 0.81261,3.35988 1.39614,0.99822 4.11484,-16.65359 12.67094,-54.55044 16.70723,-74 2.7964,-13.475 6.60029,-31.25 8.45307,-39.5 1.85278,-8.25 5.00405,-23.325 7.00281,-33.5 1.99876,-10.175 3.83939,-19.2169 4.09028,-20.09312 0.25089,-0.87621 2.49227,-3.05533 4.98084,-4.84248 l 4.08273,-2.89583 -0.0477,2.48894 c -0.0308,1.60547 -6.5515,28.26749 -14.39254,59.34249 -24.88387,98.61783 -30.86574,126.10117 -33.35379,123.30571 -1.40151,-1.57468 -3.26415,-68.14576 -4.94493,-129.80571 -0.5847,-21.45 -1.36471,-41.925 -1.73336,-45.5 l -0.67026,-6.5 -18.27474,-0.27265 -18.27474,-0.27266 0.52717,2.27266 c 0.28994,1.24996 1.19571,8.12265 2.01281,15.27265 2.38979,20.91177 8.2755,69.12498 11.47521,94 1.62719,12.65 4.11239,33.125 5.52267,45.5 3.71762,32.62155 7.9931,66.04414 12.00173,93.82078 1.93044,13.37644 3.50989,24.73894 3.50989,25.25 0,0.51107 0.38211,0.92922 0.84913,0.92922 0.46702,0 1.5692,-4.92589 3.09748,-10.83839 2.80613,-10.85616 11.14728,-40.41467 40.98824,-145.25 9.00193,-31.625 21.08387,-72.80933 26.20057,-90.87255 5.1167,-18.06323 9.20164,-31.58609 9.6503,-31.18191 1.19096,1.07288 -0.177,4.28671 -1.35783,8.57705 -3.69058,13.40904 -21.28021,74.32461 -25.97266,90.5658 -9.59461,33.2083 -37.51004,132.7648 -44.13052,156.49309 -3.83536,13.74619 -7.28444,25.61664 -7.74101,26.07321 -0.45657,0.45657 -1.58462,-0.46532 -1.89565,-1.74308 z"
         id="path14"
         sodipodi:nodetypes="sssscccsssssssssscssssscccsssssssssssssssss" />
      <path
         style="fill:#000000;fill-opacity:1;stroke:none;stroke-width:0.5;stroke-dasharray:none;stroke-opacity:1"
         d="m 287.0824,763 c -0.0415,-1.375 0.58906,-9.475 1.4013,-18 1.53754,-16.13767 4.49034,-49.94542 9.56382,-109.5 1.63991,-19.25 3.88119,-44.9 4.98061,-57 1.67426,-18.42642 8.66251,-108.47649 8.66251,-110.578 0,-0.36411 3.12574,2.57326 6.18987,6.31145 4.74375,5.7873 5.75647,7.11504 5.29868,9.70018 -1.42542,8.04946 -20.52048,153.42478 -28.07001,215.56637 -1.67047,13.75 -3.97758,33.775 -5.12689,44.5 -2.07319,19.34621 -2.75461,23.81089 -2.89989,19 z"
         id="path11"
         sodipodi:nodetypes="ssssssssss" />
      <path
         style="fill:#000000;fill-opacity:1;stroke:none;stroke-width:0.5;stroke-dasharray:none;stroke-opacity:1"
         d="m 275.07029,472.30902 c -0.0407,-4.74431 0.37368,-8.46538 0.98481,-8.84307 1.27659,-0.78898 34.9449,2.57672 34.9449,3.49331 0,0.57617 -16.60313,-0.79688 -29.25,-2.41893 l -4.44064,-0.29986 -0.20288,5.97509 c -0.25146,7.40575 -0.92924,10.56593 -1.79138,7.60139 -0.29283,-1.00691 -0.22381,-5.50793 -0.24482,-5.50793 z"
         id="path12"
         sodipodi:nodetypes="sssscssss" />
      <path
         style="fill:#000000;fill-opacity:1;stroke:none;stroke-width:0.5;stroke-dasharray:none;stroke-opacity:1"
         d="m 279.45887,770.06654 c 0.63915,-1.8031 6.66712,-4.67307 7.47404,-3.93101 0.62651,0.57616 -1.60765,1.82206 -3.91844,3.00094 -2.3108,1.17888 -3.78907,1.5887 -3.5556,0.93007 z"
         id="path10"
         sodipodi:nodetypes="ssss" />
      <path
         style="fill:#000000;fill-opacity:1;stroke:none;stroke-width:0.5;stroke-dasharray:none;stroke-opacity:1"
         d="m 267.4284,762.25 c 1.12525,-26.81482 3.24761,-100.09325 4.32795,-142.25 0.58493,-22.825 1.74345,-59.48066 2.30442,-81.45702 0.56097,-21.97637 1.18832,-40.20934 1.47959,-40.41667 1.08433,-0.77184 0.83501,5.20855 -0.27127,49.37369 -3.31072,132.17049 -6.44009,224.57838 -6.64755,226.2721 -0.21878,1.78617 0.74548,1.3883 4.8419,-1.02865 1.97992,-1.16818 3.67532,-2.11481 4.08427,-1.52907 0.38203,0.54718 -8.74066,5.71086 -10.02833,5.78562 -1.14177,0.0663 -0.43142,-6.6375 -0.091,-14.75 z"
         id="path9"
         sodipodi:nodetypes="sssssssssss" />
      <path
         style="display:inline;fill:#000000;fill-opacity:1;stroke:none;stroke-opacity:1"
         d="m 330.63249,335.22744 -3.74597,-7.72744 3.57825,-18.41144 c 1.96804,-10.12629 5.62265,-31.05129 8.12136,-46.5 2.49871,-15.44871 6.0812,-36.41356 7.96109,-46.58856 3.00876,-16.28504 9.24183,-53.36229 18.02986,-107.25 1.50237,-9.2125 3.0424,-16.75 3.42227,-16.75 0.37987,0 1.48509,0.87782 2.45604,1.95071 1.69177,1.86938 1.61249,2.98459 -1.90157,26.75 -2.01682,13.63961 -4.7533,31.77429 -6.08106,40.29929 -4.75738,30.54523 -16.5022,108.009 -20.46827,135 -4.40644,29.98789 -6.98452,46.31336 -7.37543,46.70427 -0.13784,0.13784 -1.93629,-3.22673 -3.99657,-7.47683 z"
         id="path84" />
      <path
         style="display:inline;fill:#000000;fill-opacity:1;stroke:none;stroke-width:10.013;stroke-linecap:round;stroke-linejoin:round;stroke-opacity:1"
         d="m 647.17949,124.11934 -0.61872,1.83406 -0.7734,3.51343 -1.4584,6.71752 55.6869,53.62927 0.26539,-0.21206 0.11719,-0.1875 0.0469,-0.13281 -0.0312,-0.1875 -0.16406,-0.46875 -0.75781,-1.22656 -1.88282,-2.43348 -4.34375,-5.04308 -3.36718,-4.01027 -2.94532,-3.44286 -2.89844,-3.55469 -3.74218,-4.46875 -17.63282,-21.71093 -12.4009,-15.2464 z"
         id="path2"
         sodipodi:nodetypes="cccccccccccccccccccc" />
      <path
         style="fill:#000000;fill-opacity:1;stroke:none;stroke-width:10.013;stroke-linecap:round;stroke-linejoin:round;stroke-opacity:1"
         d="m 387.89227,224.68318 3.64765,-2.49023 39.54315,-32.59318 17.2255,-14.0655 10.20599,-8.56868 -0.61872,-0.70711 -69.51744,48.46845 -0.39774,5.97878 -0.0884,3.66811 z"
         id="path7"
         sodipodi:nodetypes="cccccccccc" />
    </g>
  </g>
</svg>
